<svg xmlns="http://www.w3.org/2000/svg" viewBox="0 0 137.35 37.54"><defs><style>.cls-1{fill:#fff;}</style></defs><g id="Capa_2" data-name="Capa 2"><g id="Capa_1-2" data-name="Capa 1"><polygon class="cls-1" points="28.08 1.87 39.61 13.39 39.61 34.9 21.12 34.9 2.64 34.9 2.64 3.21 18.48 3.21 18.48 16.42 19.8 16.42 19.8 16.42 19.8 16.42 21.12 16.42 21.12 3.21 21.12 0.57 18.48 0.57 2.64 0.57 0 0.57 0 3.21 0 34.9 0 37.54 2.64 37.54 21.12 37.54 39.61 37.54 39.61 37.54 42.25 37.54 42.25 37.54 42.25 34.9 42.25 13.78 42.25 13.78 42.25 12.3 29.95 0 28.08 1.87"/><rect class="cls-1" x="57.85" y="0.59" width="2.33" height="36.95"/><path class="cls-1" d="M81.44,5.33l-.12-.11-.11-.11a2.75,2.75,0,0,0,.63-1.78,2.7,2.7,0,0,0-.22-1.1A3,3,0,0,0,81,1.31,2.86,2.86,0,0,0,79.72.58H76.23v9.55h3.88a3.27,3.27,0,0,0,.71-.28,2.74,2.74,0,0,0,.62-.47,2.94,2.94,0,0,0,.63-.93,2.91,2.91,0,0,0,.21-1.1,2.73,2.73,0,0,0-.84-2ZM77.9,2.15H79a1.22,1.22,0,0,1,.46.09,1.37,1.37,0,0,1,.37.26,1.23,1.23,0,0,1,.24.38,1,1,0,0,1,.1.45,1,1,0,0,1-.1.46,1.13,1.13,0,0,1-.24.36,1.34,1.34,0,0,1-.37.25,1.22,1.22,0,0,1-.46.09H77.9Zm2.37,6a1.17,1.17,0,0,1-.85.35H77.9V6.16h1.52a1.17,1.17,0,0,1,.85.35,1.21,1.21,0,0,1,0,1.68Z"/><polygon class="cls-1" points="88.28 10.12 91.84 10.12 91.84 8.46 88.28 8.46 88.28 5.94 91.84 5.94 91.84 4.27 88.28 4.27 88.28 2.16 91.84 2.16 91.84 0.58 86.61 0.58 86.61 10.13 88.28 10.13 88.28 10.12"/><path class="cls-1" d="M99,8.46a.79.79,0,0,1-.4-.07,1,1,0,0,1-.32-.21L97.23,7.06,96,8.23l1.09,1.11A2.8,2.8,0,0,0,98,10a2.64,2.64,0,0,0,1,.18h0a2.38,2.38,0,0,0,1-.22,2.16,2.16,0,0,0,.47-.26,2.41,2.41,0,0,0,.41-.37,2.46,2.46,0,0,0,.53-.82,2.77,2.77,0,0,0,.17-1,2.44,2.44,0,0,0-.16-1A2.69,2.69,0,0,0,101,5.7l0,0L98.48,3.5a.93.93,0,0,1-.22-.69.93.93,0,0,1,.35-.68l0,0a1,1,0,0,1,1.41.14l.79,1,1.31-1-.8-1a2.38,2.38,0,0,0-.82-.68,2,2,0,0,0-.48-.2,2.74,2.74,0,0,0-1.55,0,2.62,2.62,0,0,0-.94.52l0,0a3,3,0,0,0-.66.86,2.32,2.32,0,0,0-.27,1,2.63,2.63,0,0,0,.13,1c.07.16.15.32.23.47a3.28,3.28,0,0,0,.32.44l0,0,2.47,2.16a.94.94,0,0,1,.24.65,1,1,0,0,1-.28.65A.9.9,0,0,1,99,8.46Z"/><polygon class="cls-1" points="108.77 10.13 110.44 10.13 110.44 2.2 112.8 2.2 112.8 0.58 106.45 0.58 106.45 2.2 108.77 2.2 108.77 10.13"/><path class="cls-1" d="M77.47,19.91l1.52,0a2.8,2.8,0,0,0,.86-.28,2.9,2.9,0,0,0,.73-.53,2.68,2.68,0,0,0,.62-.91,2.91,2.91,0,0,0,.22-1.09A2.87,2.87,0,0,0,81.2,16a2.84,2.84,0,0,0-1.79-1.62H75.8v9.51h1.67Zm0-4h1.1A1,1,0,0,1,79,16a1.23,1.23,0,0,1,.38.24,1.15,1.15,0,0,1,.25.37,1.06,1.06,0,0,1,.1.46,1,1,0,0,1-.1.45,1.05,1.05,0,0,1-.25.37,1.25,1.25,0,0,1-.38.25,1.13,1.13,0,0,1-.45.09h-1.1Z"/><polygon class="cls-1" points="87.54 23.87 91.09 23.87 91.09 22.21 87.54 22.21 87.54 14.33 85.87 14.33 85.87 23.88 87.54 23.88 87.54 23.87"/><path class="cls-1" d="M97.44,14.29l-3.62,9.59H95.6l.8-2.1h3.93l.81,2.1h1.8l-3.73-9.59ZM97,20.11l1.3-3.45,1.35,3.45Z"/><path class="cls-1" d="M107.73,16.9a3,3,0,0,1,1-.68,3.12,3.12,0,0,1,3.37.68l1.19-1.17a4.87,4.87,0,0,0-3.38-1.41,4.83,4.83,0,0,0-1.81.36,4.65,4.65,0,0,0-1.58,1.05,4.51,4.51,0,0,0-1.05,1.57,4.81,4.81,0,0,0-.35,1.81,4.6,4.6,0,0,0,.09.91,4,4,0,0,0,.26.88,4.86,4.86,0,0,0,2.63,2.64,4.78,4.78,0,0,0,1.81.34,4.67,4.67,0,0,0,1.79-.34,4.62,4.62,0,0,0,1.59-1.06l-1.19-1.17a3.08,3.08,0,0,1-1,.67,3.15,3.15,0,0,1-1.19.23,3.24,3.24,0,0,1-1.2-.23,3.14,3.14,0,0,1-1.68-1.68,3,3,0,0,1-.24-1.19,3.11,3.11,0,0,1,.92-2.21Z"/><polygon class="cls-1" points="122.25 22.21 118.7 22.21 118.7 19.69 122.25 19.69 122.25 18.02 118.7 18.02 118.7 15.91 122.25 15.91 122.25 14.33 117.03 14.33 117.03 23.88 118.7 23.88 118.7 23.87 122.25 23.87 122.25 22.21"/><polygon class="cls-1" points="75.19 29.61 77.51 29.61 77.51 37.54 79.18 37.54 79.18 29.61 81.54 29.61 81.54 27.99 75.19 27.99 75.19 29.61"/><path class="cls-1" d="M93.25,28.93a4.92,4.92,0,0,0-1.6-1.08,5,5,0,0,0-3.93,0,4.92,4.92,0,0,0-1.6,1.08,4.48,4.48,0,0,0-.63.75,6.13,6.13,0,0,0-.45.84,5,5,0,0,0-.41,2,4.93,4.93,0,0,0,.41,2,6.25,6.25,0,0,0,.45.85,4.85,4.85,0,0,0,.63.74,4.48,4.48,0,0,0,.75.63,4.61,4.61,0,0,0,.85.45,4.88,4.88,0,0,0,2,.41,5,5,0,0,0,2-.41,4.61,4.61,0,0,0,.85-.45,4.48,4.48,0,0,0,.75-.63,5,5,0,0,0,0-7.12Zm-.47,4.87a3.46,3.46,0,0,1-.72,1.08A3.42,3.42,0,0,1,91,35.6a3.2,3.2,0,0,1-1.31.27,3.23,3.23,0,0,1-1.31-.27,3.31,3.31,0,0,1-1.07-.72,3.49,3.49,0,0,1-.73-1.08,3.31,3.31,0,0,1,0-2.62,3.57,3.57,0,0,1,.73-1.07,3.47,3.47,0,0,1,1.07-.72,3.23,3.23,0,0,1,1.31-.27,3.2,3.2,0,0,1,1.31.27,3.6,3.6,0,0,1,1.07.72,3.54,3.54,0,0,1,.72,1.07,3.31,3.31,0,0,1,0,2.62Z"/><polygon class="cls-1" points="105.84 27.99 104.17 27.99 104.17 37.54 105.84 37.54 105.84 37.53 109.4 37.53 109.4 35.87 105.84 35.87 105.84 27.99"/><rect class="cls-1" x="113.65" y="27.99" width="1.67" height="9.55"/><polygon class="cls-1" points="124.38 35.2 121.57 27.97 119.78 27.97 123.52 37.54 125.27 37.54 128.9 27.97 127.12 27.97 124.38 35.2"/><polygon class="cls-1" points="137.35 29.57 137.35 27.99 132.13 27.99 132.13 37.54 133.8 37.54 133.8 37.53 137.35 37.53 137.35 35.87 133.8 35.87 133.8 33.34 137.35 33.34 137.35 31.67 133.8 31.67 133.8 29.57 137.35 29.57"/></g></g></svg>