<svg xmlns="http://www.w3.org/2000/svg" viewBox="0 0 490.81 75.33"><defs><style>.cls-1{fill:#e12b34;}.cls-2{fill:#fff;}.cls-3{fill:none;stroke:#ea0029;stroke-miterlimit:10;}</style></defs><g id="Capa_2" data-name="Capa 2"><g id="Capa_1-2" data-name="Capa 1"><path class="cls-1" d="M55.08,23c.57,0,1.14,0,1.73.08s1.16.14,1.72.24a15.58,15.58,0,0,1,1.6.37,8.34,8.34,0,0,1,1.37.52l-.67,3.48A15.43,15.43,0,0,0,58.41,27a13.85,13.85,0,0,0-2.62-.26,8.1,8.1,0,0,0-5.93,2q-2.05,2-2.06,5.94t2.06,5.94a8.14,8.14,0,0,0,5.93,2,13.83,13.83,0,0,0,2.62-.25,15.43,15.43,0,0,0,2.42-.66l.67,3.48a8.34,8.34,0,0,1-1.37.52c-.51.14-1.05.27-1.6.37s-1.13.18-1.72.23a17,17,0,0,1-1.73.09,14,14,0,0,1-5.17-.89,10.73,10.73,0,0,1-3.77-2.44,10.3,10.3,0,0,1-2.31-3.71,14.32,14.32,0,0,1,0-9.38,10.21,10.21,0,0,1,2.31-3.71,10.75,10.75,0,0,1,3.77-2.45A14,14,0,0,1,55.08,23Z"/><path class="cls-1" d="M81.05,37.75a9.71,9.71,0,0,1-.56,3.36,7.65,7.65,0,0,1-4.31,4.58,10.45,10.45,0,0,1-7.31,0,7.63,7.63,0,0,1-4.32-4.58,10.39,10.39,0,0,1,0-6.73,7.88,7.88,0,0,1,1.65-2.74,7.78,7.78,0,0,1,2.67-1.85,10.16,10.16,0,0,1,7.31,0,7.7,7.7,0,0,1,4.31,4.59A9.77,9.77,0,0,1,81.05,37.75Zm-4.65,0a9,9,0,0,0-.21-2,4.84,4.84,0,0,0-.66-1.65A3.45,3.45,0,0,0,74.32,33a4,4,0,0,0-3.62,0,3.48,3.48,0,0,0-1.19,1.13,5.28,5.28,0,0,0-.66,1.65,9,9,0,0,0-.21,2,8.74,8.74,0,0,0,.21,1.94,5.26,5.26,0,0,0,.66,1.63,3.6,3.6,0,0,0,6,0,4.82,4.82,0,0,0,.66-1.63A8.74,8.74,0,0,0,76.4,37.75Z"/><path class="cls-1" d="M84.39,46V29.45h4.49V31.7a5,5,0,0,1,2.07-2,6.07,6.07,0,0,1,2.75-.63,5.28,5.28,0,0,1,2.74.68,5.46,5.46,0,0,1,1.85,1.82,8.41,8.41,0,0,1,1.06,2.65,14.76,14.76,0,0,1,.34,3.15V46H95V37.37a6.64,6.64,0,0,0-.7-3.4A2.46,2.46,0,0,0,92,32.82a3.29,3.29,0,0,0-1.77.47A4.62,4.62,0,0,0,89,34.42V46Z"/><path class="cls-1" d="M115.5,40.86a4.88,4.88,0,0,1-.55,2.35,5,5,0,0,1-1.49,1.73A6.67,6.67,0,0,1,111.21,46a10.47,10.47,0,0,1-2.82.36,15.14,15.14,0,0,1-2.8-.29A13.42,13.42,0,0,1,103,45.3l.68-3.3a14.29,14.29,0,0,0,2.25.69,10.83,10.83,0,0,0,2.34.26,4.68,4.68,0,0,0,1.92-.34,1.23,1.23,0,0,0,.77-1.22,1.17,1.17,0,0,0-.75-1.14c-.5-.24-1.16-.53-2-.87-.66-.27-1.3-.55-1.91-.83a7.37,7.37,0,0,1-1.61-1,4.59,4.59,0,0,1-1.12-1.4,4.1,4.1,0,0,1-.43-2,4.9,4.9,0,0,1,.49-2.24A4.36,4.36,0,0,1,105,30.34a6.15,6.15,0,0,1,2-.92,9.82,9.82,0,0,1,2.54-.31,14.21,14.21,0,0,1,2.73.26,8.89,8.89,0,0,1,2.54.91l-.72,3.32a13.83,13.83,0,0,0-2-.73,8.44,8.44,0,0,0-2.16-.29,4.54,4.54,0,0,0-1.58.22.9.9,0,0,0-.6.93,1.1,1.1,0,0,0,.71,1q.72.34,1.71.78l1.64.7a7.78,7.78,0,0,1,1.75,1,5.94,5.94,0,0,1,1.4,1.47A3.86,3.86,0,0,1,115.5,40.86Z"/><path class="cls-1" d="M117,29.45h2.68V25.17h4.66v4.28h5v3.64h-5V40.2a3.35,3.35,0,0,0,.43,1.83,1.81,1.81,0,0,0,1.68.68,8.4,8.4,0,0,0,2.52-.37l.34,3.3a10.3,10.3,0,0,1-1.87.51,13.16,13.16,0,0,1-2.25.2,6.18,6.18,0,0,1-2.53-.46,4.45,4.45,0,0,1-1.7-1.27,5.39,5.39,0,0,1-1-1.91,8.9,8.9,0,0,1-.31-2.38V33.09H117Z"/><path class="cls-1" d="M142.46,33.43h-.78a6.81,6.81,0,0,0-2.89.54A4.48,4.48,0,0,0,137,35.54V46h-4.66V29.45h4.49v2.93a4.62,4.62,0,0,1,1.51-2.28,4.33,4.33,0,0,1,2.77-.82,5.42,5.42,0,0,1,1.4.17Z"/><path class="cls-1" d="M160,29.45V46h-4.49V43.77a5.66,5.66,0,0,1-2.11,1.95,5.86,5.86,0,0,1-2.72.63,5.18,5.18,0,0,1-2.72-.68,5.37,5.37,0,0,1-1.82-1.82,8.12,8.12,0,0,1-1-2.65,15.44,15.44,0,0,1-.31-3.15v-8.6h4.66v8.64a7.29,7.29,0,0,0,.63,3.4,2.31,2.31,0,0,0,2.23,1.15,3.15,3.15,0,0,0,1.76-.47,4.59,4.59,0,0,0,1.23-1.12V29.45Z"/><path class="cls-1" d="M166.26,53l2.24-6.49-6.08-17.07h4.82l3.51,12.31,3.36-12.31h4.73L170.92,53Z"/><path class="cls-1" d="M188.29,29.11a7.79,7.79,0,0,1,2.91.51,5.61,5.61,0,0,1,2.12,1.45,6.13,6.13,0,0,1,1.29,2.24,9,9,0,0,1,.44,2.94,10.75,10.75,0,0,1-.08,1.38,7.49,7.49,0,0,1-.26,1.27h-9.82A4.19,4.19,0,0,0,186,41.8a4.53,4.53,0,0,0,3.37,1.08,13.76,13.76,0,0,0,2.58-.24,9.91,9.91,0,0,0,2.25-.71l.57,3.16A11.35,11.35,0,0,1,192,46a16.41,16.41,0,0,1-3.24.32,10.2,10.2,0,0,1-3.67-.61,7.57,7.57,0,0,1-2.7-1.74,7.27,7.27,0,0,1-1.68-2.7,9.93,9.93,0,0,1-.58-3.48,10.89,10.89,0,0,1,.56-3.56,7.75,7.75,0,0,1,1.61-2.75,7.29,7.29,0,0,1,2.57-1.77A8.83,8.83,0,0,1,188.29,29.11ZM188,32.24a2.6,2.6,0,0,0-2.2,1,4.8,4.8,0,0,0-.9,2.54h5.68a3.88,3.88,0,0,0-.47-2.57A2.36,2.36,0,0,0,188,32.24Z"/><path class="cls-2" d="M204.4,29.83h3V25.47h2.28v4.36h5.51v1.83h-5.51v9a11.3,11.3,0,0,0,.1,1.63,3.2,3.2,0,0,0,.41,1.21,1.86,1.86,0,0,0,.83.74,3.54,3.54,0,0,0,1.38.23,7.32,7.32,0,0,0,1.41-.13,9.87,9.87,0,0,0,1.28-.34l.2,1.71a7,7,0,0,1-1.46.42,10,10,0,0,1-1.84.18,4.81,4.81,0,0,1-2.16-.43,3.63,3.63,0,0,1-1.41-1.19,5,5,0,0,1-.78-1.81,10.36,10.36,0,0,1-.24-2.28v-9h-3Z"/><path class="cls-2" d="M231.94,29.79V46H229.8V43.66a6.78,6.78,0,0,1-2.33,2,6.43,6.43,0,0,1-3,.7,4.77,4.77,0,0,1-2.52-.65A5.06,5.06,0,0,1,220.2,44a8.3,8.3,0,0,1-1-2.53,14.33,14.33,0,0,1-.32-3v-8.6h2.28v8.43a16.89,16.89,0,0,0,.18,2.59,5.73,5.73,0,0,0,.65,1.95A3.21,3.21,0,0,0,223.21,44a3.61,3.61,0,0,0,1.9.45,4.66,4.66,0,0,0,2.6-.77,8.31,8.31,0,0,0,2-1.75V29.79Z"/><path class="cls-2" d="M244.69,29.79h2.14V32A8.29,8.29,0,0,1,249,30.22a6.19,6.19,0,0,1,3.2-.77,5.67,5.67,0,0,1,2.75.65,5.82,5.82,0,0,1,2,1.77,7.83,7.83,0,0,1,1.19,2.63,13.11,13.11,0,0,1,.39,3.28,10.23,10.23,0,0,1-.58,3.56A7.56,7.56,0,0,1,256.3,44a7.09,7.09,0,0,1-2.58,1.72,9.33,9.33,0,0,1-3.38.59,12.19,12.19,0,0,1-1.81-.12,10.93,10.93,0,0,1-1.56-.35V53h-2.28Zm7,1.5a4.62,4.62,0,0,0-2.7.84,10.2,10.2,0,0,0-2,1.75V44a6.69,6.69,0,0,0,1.48.39,11.26,11.26,0,0,0,1.68.12,5.81,5.81,0,0,0,4.56-1.74,7.23,7.23,0,0,0,1.56-5,11.94,11.94,0,0,0-.27-2.63,6.25,6.25,0,0,0-.83-2,4,4,0,0,0-1.43-1.33A4.18,4.18,0,0,0,251.66,31.29Z"/><path class="cls-2" d="M271.42,31.66h-.65a7.07,7.07,0,0,0-3.37.78,5.76,5.76,0,0,0-2.34,2.42V46h-2.28V29.79l2.14,0V33a5.36,5.36,0,0,1,2-2.45,5.94,5.94,0,0,1,3.33-.92,3.28,3.28,0,0,1,1.13.17Z"/><path class="cls-2" d="M288.65,37.92a10.28,10.28,0,0,1-.49,3.19,7.87,7.87,0,0,1-1.46,2.69A7.21,7.21,0,0,1,281,46.35a7.31,7.31,0,0,1-3.27-.7,7.08,7.08,0,0,1-2.39-1.85,7.7,7.7,0,0,1-1.46-2.69,10.29,10.29,0,0,1-.5-3.19,10.57,10.57,0,0,1,.5-3.22,7.66,7.66,0,0,1,1.46-2.7,7.08,7.08,0,0,1,2.39-1.85,8,8,0,0,1,6.53,0A7.22,7.22,0,0,1,286.7,32a7.82,7.82,0,0,1,1.46,2.7A10.56,10.56,0,0,1,288.65,37.92Zm-2.27,0a9.94,9.94,0,0,0-.34-2.59,6.21,6.21,0,0,0-1-2.1,5.2,5.2,0,0,0-6.32-1.42A5.1,5.1,0,0,0,277,33.23a6.39,6.39,0,0,0-1,2.1,9.53,9.53,0,0,0-.34,2.59A9.2,9.2,0,0,0,276,40.5a6.54,6.54,0,0,0,1,2.09A4.74,4.74,0,0,0,278.71,44a5.58,5.58,0,0,0,4.66,0A4.62,4.62,0,0,0,285,42.59a6.35,6.35,0,0,0,1-2.09A9.58,9.58,0,0,0,286.38,37.92Z"/><path class="cls-2" d="M292.9,29.79h2.15V32a8.24,8.24,0,0,1,2.17-1.82,6.19,6.19,0,0,1,3.2-.77,5.6,5.6,0,0,1,4.74,2.42,7.83,7.83,0,0,1,1.19,2.63,13.11,13.11,0,0,1,.39,3.28,10.47,10.47,0,0,1-.57,3.56,7.85,7.85,0,0,1-1.65,2.7,7.21,7.21,0,0,1-2.59,1.72,9.33,9.33,0,0,1-3.38.59,12,12,0,0,1-1.8-.12,10.76,10.76,0,0,1-1.57-.35V53H292.9Zm7,1.5a4.65,4.65,0,0,0-2.71.84,10.2,10.2,0,0,0-2,1.75V44a6.84,6.84,0,0,0,1.48.39,11.26,11.26,0,0,0,1.68.12,5.81,5.81,0,0,0,4.56-1.74,7.23,7.23,0,0,0,1.56-5,11.94,11.94,0,0,0-.27-2.63,6.25,6.25,0,0,0-.83-2,4,4,0,0,0-1.43-1.33A4.17,4.17,0,0,0,299.88,31.29Z"/><path class="cls-2" d="M310.55,24.86a1.61,1.61,0,0,1,.44-1.14,1.52,1.52,0,0,1,1.12-.46,1.55,1.55,0,0,1,1.16.46,1.61,1.61,0,0,1,.44,1.14,1.57,1.57,0,0,1-.44,1.11,1.55,1.55,0,0,1-1.16.46A1.52,1.52,0,0,1,311,26,1.57,1.57,0,0,1,310.55,24.86ZM311,46V29.79h2.28V46Z"/><path class="cls-2" d="M328,43.8a10.45,10.45,0,0,1-.94.87,8,8,0,0,1-1.27.83,8.23,8.23,0,0,1-1.58.61,6.83,6.83,0,0,1-1.82.24,4.47,4.47,0,0,1-4.1-6.39,3.82,3.82,0,0,1,1.17-1.41,5.43,5.43,0,0,1,1.79-.87,9.79,9.79,0,0,1,2.26-.37c.72-.05,1.46-.08,2.21-.11l2.24-.06V36.08a5.35,5.35,0,0,0-1-3.59,4,4,0,0,0-3.11-1.13,8.92,8.92,0,0,0-2.26.27,7.36,7.36,0,0,0-2,.88L319,30.78a9,9,0,0,1,2.24-1,10.49,10.49,0,0,1,2.92-.38,7.41,7.41,0,0,1,2.45.39,4.91,4.91,0,0,1,1.92,1.21,5.65,5.65,0,0,1,1.26,2,8.15,8.15,0,0,1,.46,2.89V46H328Zm-5.08.78a5.52,5.52,0,0,0,2.77-.75A8.5,8.5,0,0,0,328,42V38.77c-.74,0-1.47,0-2.18.1l-2,.14a6,6,0,0,0-2.63.83,2.35,2.35,0,0,0-1,2.12C320.17,43.71,321.1,44.58,323,44.58Z"/><path class="cls-2" d="M342.78,46V22h2.28V32a6.53,6.53,0,0,1,2.24-1.85,6.44,6.44,0,0,1,3-.7,4.87,4.87,0,0,1,2.56.65,5.32,5.32,0,0,1,1.77,1.73,8.09,8.09,0,0,1,1,2.53,13.71,13.71,0,0,1,.32,3V46H353.7V37.58a13.8,13.8,0,0,0-.21-2.5,5.87,5.87,0,0,0-.68-2,3.5,3.5,0,0,0-1.26-1.3,3.8,3.8,0,0,0-1.93-.45,4.69,4.69,0,0,0-2.61.76,8.07,8.07,0,0,0-1.95,1.75V46Z"/><path class="cls-2" d="M360.8,24.86a1.61,1.61,0,0,1,.44-1.14,1.64,1.64,0,0,1,2.28,0,1.57,1.57,0,0,1,.44,1.14A1.6,1.6,0,0,1,361.24,26,1.57,1.57,0,0,1,360.8,24.86ZM361.24,46V29.79h2.28V46Z"/><path class="cls-2" d="M379.09,41.59a4.15,4.15,0,0,1-.46,2,4.36,4.36,0,0,1-1.27,1.5,6.16,6.16,0,0,1-1.94.95,8.29,8.29,0,0,1-2.45.34,11,11,0,0,1-1.24-.07c-.44,0-.88-.11-1.31-.19a11.82,11.82,0,0,1-1.24-.3c-.39-.13-.74-.26-1-.39l.4-1.84a12.35,12.35,0,0,0,2,.68,9.76,9.76,0,0,0,2.37.27,5.23,5.23,0,0,0,2.76-.68,2.22,2.22,0,0,0,1.14-2,2.12,2.12,0,0,0-.31-1.15,3.21,3.21,0,0,0-.8-.85,5.33,5.33,0,0,0-1.13-.66l-1.32-.6c-.54-.23-1.1-.48-1.68-.77a8.85,8.85,0,0,1-1.57-1,5,5,0,0,1-1.17-1.31,3.38,3.38,0,0,1-.46-1.77,4.05,4.05,0,0,1,.43-1.89A3.86,3.86,0,0,1,370,30.49a5.47,5.47,0,0,1,1.75-.78,8.41,8.41,0,0,1,2.11-.26,9.75,9.75,0,0,1,2.51.31,9.47,9.47,0,0,1,2.11.78L378,32.38a10.4,10.4,0,0,0-2-.8,7.78,7.78,0,0,0-2.14-.29,4.64,4.64,0,0,0-2.32.51,1.81,1.81,0,0,0-.88,1.7,1.74,1.74,0,0,0,.31,1.07,3.27,3.27,0,0,0,.77.76,5.81,5.81,0,0,0,1.07.6c.4.17.8.36,1.2.56s1,.47,1.56.73a8,8,0,0,1,1.66,1,5.54,5.54,0,0,1,1.32,1.41A3.48,3.48,0,0,1,379.09,41.59Z"/><path class="cls-2" d="M381.51,29.83h2.95V25.47h2.28v4.36h5.51v1.83h-5.51v9a11.2,11.2,0,0,0,.11,1.63,3,3,0,0,0,.4,1.21,1.89,1.89,0,0,0,.84.74,3.52,3.52,0,0,0,1.37.23,7.32,7.32,0,0,0,1.41-.13,9.87,9.87,0,0,0,1.28-.34l.2,1.71a6.77,6.77,0,0,1-1.46.42,9.86,9.86,0,0,1-1.83.18,4.75,4.75,0,0,1-2.16-.43,3.63,3.63,0,0,1-1.41-1.19,4.89,4.89,0,0,1-.79-1.81,10.36,10.36,0,0,1-.24-2.28v-9h-2.95Z"/><path class="cls-2" d="M410.34,37.92a10.58,10.58,0,0,1-.49,3.19,7.89,7.89,0,0,1-1.47,2.69A7.08,7.08,0,0,1,406,45.65a7.47,7.47,0,0,1-8.93-1.85,8,8,0,0,1-1.46-2.69,10.28,10.28,0,0,1-.49-3.19,10.56,10.56,0,0,1,.49-3.22,8,8,0,0,1,1.46-2.7A7.7,7.7,0,0,1,406,30.15,7.08,7.08,0,0,1,408.38,32a7.84,7.84,0,0,1,1.47,2.7A10.88,10.88,0,0,1,410.34,37.92Zm-2.28,0a9.53,9.53,0,0,0-.34-2.59,6.39,6.39,0,0,0-1-2.1,5,5,0,0,0-1.67-1.42,5.48,5.48,0,0,0-4.66,0,5.06,5.06,0,0,0-1.66,1.42,6.2,6.2,0,0,0-1,2.1,9.53,9.53,0,0,0-.35,2.59,9.2,9.2,0,0,0,.35,2.58,6.33,6.33,0,0,0,1,2.09A4.71,4.71,0,0,0,400.39,44a5.58,5.58,0,0,0,4.66,0,4.65,4.65,0,0,0,1.67-1.41,6.54,6.54,0,0,0,1-2.09A9.2,9.2,0,0,0,408.06,37.92Z"/><path class="cls-2" d="M423.23,31.66h-.65a7.07,7.07,0,0,0-3.37.78,5.76,5.76,0,0,0-2.34,2.42V46h-2.28V29.79l2.14,0V33a5.36,5.36,0,0,1,2-2.45,5.94,5.94,0,0,1,3.33-.92,3.28,3.28,0,0,1,1.13.17Z"/><path class="cls-2" d="M426,24.86a1.61,1.61,0,0,1,.44-1.14,1.52,1.52,0,0,1,1.12-.46,1.57,1.57,0,0,1,1.16.46,1.61,1.61,0,0,1,.44,1.14,1.54,1.54,0,0,1-1.6,1.57,1.52,1.52,0,0,1-1.12-.46A1.57,1.57,0,0,1,426,24.86ZM426.42,46V29.79h2.28V46Z"/><path class="cls-2" d="M443.46,43.8a10.45,10.45,0,0,1-.94.87,8,8,0,0,1-1.27.83,8.08,8.08,0,0,1-1.59.61,6.72,6.72,0,0,1-1.82.24A4.12,4.12,0,0,1,433.32,42a4.31,4.31,0,0,1,.43-2,3.82,3.82,0,0,1,1.17-1.41,5.33,5.33,0,0,1,1.79-.87,9.79,9.79,0,0,1,2.26-.37c.72-.05,1.46-.08,2.21-.11l2.24-.06V36.08a5.35,5.35,0,0,0-1-3.59,4,4,0,0,0-3.11-1.13,8.92,8.92,0,0,0-2.26.27,7.23,7.23,0,0,0-2,.88l-.57-1.73a9,9,0,0,1,2.24-1,10.49,10.49,0,0,1,2.92-.38,7.41,7.41,0,0,1,2.45.39A4.91,4.91,0,0,1,444,31.05a5.79,5.79,0,0,1,1.26,2A8.15,8.15,0,0,1,445.7,36V46h-2.24Zm-5.08.78a5.52,5.52,0,0,0,2.77-.75A8.5,8.5,0,0,0,443.42,42V38.77c-.74,0-1.47,0-2.18.1l-2,.14a6,6,0,0,0-2.63.83,2.33,2.33,0,0,0-1,2.12C435.6,43.71,436.53,44.58,438.38,44.58Z"/><polyline class="cls-3" points="467.46 74.83 490.31 74.83 490.31 0.5 467.46 0.5"/><polyline class="cls-3" points="22.37 0.5 0.5 0.5 0.5 74.83 22.37 74.83"/></g></g></svg>