<?xml version="1.0" encoding="UTF-8"?>
<svg id="Capa_2" data-name="Capa 2" xmlns="http://www.w3.org/2000/svg" viewBox="0 0 125.87 64.66">
  <defs>
    <style>
      .cls-1 {
        fill: none;
        stroke-miterlimit: 10;
        stroke-width: .52px;
      }

      .cls-1, .cls-2 {
        stroke: #fff;
      }

      .cls-3, .cls-2 {
        fill: #fff;
      }

      .cls-2 {
        stroke-linecap: round;
        stroke-linejoin: round;
        stroke-width: .78px;
      }
    </style>
  </defs>
  <g id="Capa_1-2" data-name="Capa 1">
    <g>
      <g>
        <path class="cls-3" d="M11.54,61h.32v1.64h2.11v-1.64h.32v3.57h-.32v-1.64h-2.11v1.64h-.32v-3.57Z"/>
        <path class="cls-3" d="M19.83,64.42c-.25-.16-.45-.38-.59-.66-.14-.28-.21-.61-.21-.97s.07-.69,.21-.97c.14-.28,.34-.5,.59-.66,.25-.16,.54-.23,.87-.23s.61,.08,.87,.23c.25,.16,.45,.38,.59,.66,.14,.28,.21,.61,.21,.97s-.07,.69-.21,.97c-.14,.28-.34,.5-.59,.66-.25,.16-.54,.23-.87,.23s-.61-.08-.87-.23Zm1.39-.15c.16-.07,.31-.18,.43-.31,.12-.13,.22-.3,.29-.5s.11-.42,.11-.67-.04-.47-.11-.67-.17-.37-.29-.5c-.12-.13-.27-.24-.43-.31-.16-.07-.34-.11-.52-.11s-.36,.04-.52,.11c-.16,.07-.31,.18-.43,.31-.12,.13-.22,.3-.29,.5s-.11,.42-.11,.67,.04,.47,.11,.67,.17,.37,.29,.5c.12,.13,.26,.24,.43,.31,.16,.07,.34,.11,.52,.11s.36-.04,.52-.11Z"/>
        <path class="cls-3" d="M27.4,61.58v3h-.32v-3.57h.38l1.4,3.19,1.4-3.19h.38v3.57h-.32v-3l-1.31,3h-.31l-1.31-3Z"/>
        <path class="cls-3" d="M35.44,61h2.43v.29h-2.1v1.36h1.86v.29h-1.86v1.36h2.12v.29h-2.44v-3.57Z"/>
        <path class="cls-3" d="M49.83,61.94c-.02,.07-.05,.13-.08,.18-.03,.05-.08,.1-.14,.16-.06,.05-.11,.09-.16,.13-.05,.03-.11,.07-.19,.11-.08,.04-.14,.07-.19,.09-.05,.02-.11,.05-.19,.08l1.04,1.08c.12-.17,.21-.35,.28-.57,.07-.21,.11-.42,.13-.63h.3c-.02,.26-.07,.52-.15,.76-.08,.25-.2,.47-.34,.66l.55,.57h-.41l-.34-.35c-.31,.29-.69,.43-1.15,.43-.37,0-.66-.09-.88-.27-.22-.18-.33-.43-.33-.75,0-.14,.02-.27,.07-.38,.04-.12,.11-.21,.19-.29,.09-.08,.17-.15,.26-.2,.09-.05,.19-.11,.31-.16-.14-.16-.25-.31-.32-.44s-.11-.28-.11-.43c0-.24,.09-.44,.26-.59,.17-.15,.4-.23,.68-.23s.51,.08,.69,.23c.17,.15,.26,.34,.26,.57,0,.08-.01,.15-.03,.22Zm-.09,2.06l-1.13-1.19c-.11,.05-.2,.1-.28,.15-.08,.05-.15,.1-.22,.17-.07,.07-.12,.14-.15,.23-.03,.09-.05,.18-.05,.29,0,.24,.08,.42,.24,.54,.16,.13,.38,.19,.66,.19,.35,0,.66-.13,.92-.38Zm-1.35-1.92c.06,.12,.16,.25,.31,.41,.11-.05,.2-.08,.27-.11,.07-.03,.14-.06,.21-.1,.07-.04,.13-.08,.17-.11,.04-.03,.08-.07,.11-.11s.06-.09,.07-.14c.01-.05,.02-.1,.02-.17,0-.17-.05-.3-.16-.4-.11-.09-.26-.14-.46-.14s-.36,.05-.47,.14c-.11,.1-.16,.23-.16,.39,0,.11,.03,.23,.09,.34Z"/>
        <path class="cls-3" d="M62.36,61.44l-.95,3.14h-.37l-.9-3.57h.34l.75,3.14,.95-3.14h.35l.95,3.14,.76-3.14h.34l-.9,3.57h-.37l-.95-3.14Z"/>
        <path class="cls-3" d="M69.19,61h2.43v.29h-2.1v1.36h1.86v.29h-1.86v1.36h2.12v.29h-2.44v-3.57Z"/>
        <path class="cls-3" d="M76.37,61h.32v3.29h1.94v.29h-2.27v-3.57Z"/>
        <path class="cls-3" d="M83.34,61h.32v3.29h1.94v.29h-2.27v-3.57Z"/>
        <path class="cls-3" d="M90.63,61.56v3.01h-.32v-3.57h.3l2.09,3.01v-3.01h.32v3.57h-.3l-2.09-3.01Z"/>
        <path class="cls-3" d="M97.82,61h2.43v.29h-2.1v1.36h1.86v.29h-1.86v1.36h2.12v.29h-2.44v-3.57Z"/>
        <path class="cls-3" d="M105.52,64.54c-.2-.08-.36-.2-.48-.36-.12-.16-.18-.35-.18-.57h.35c0,.17,.05,.31,.14,.43,.09,.12,.21,.2,.36,.26,.15,.05,.32,.08,.5,.08,.13,0,.26-.01,.38-.04,.12-.03,.22-.07,.32-.13,.1-.06,.17-.14,.23-.24,.06-.1,.08-.22,.08-.35,0-.06,0-.11-.01-.16-.01-.05-.03-.09-.05-.13-.03-.04-.05-.07-.08-.1-.03-.03-.07-.06-.12-.09-.05-.03-.1-.05-.14-.07-.04-.02-.1-.04-.18-.06-.08-.02-.15-.04-.21-.05-.06-.01-.14-.03-.24-.06-.34-.08-.59-.15-.73-.22-.29-.13-.46-.32-.51-.56-.01-.06-.02-.13-.02-.19,0-.29,.12-.52,.36-.71,.24-.19,.54-.28,.9-.28s.69,.1,.94,.29c.25,.19,.37,.44,.37,.74h-.33c0-.22-.09-.4-.27-.54-.18-.14-.41-.21-.7-.21s-.5,.06-.68,.19c-.18,.12-.27,.3-.27,.52,0,.05,0,.1,.01,.15,.01,.04,.03,.08,.05,.12s.05,.07,.08,.1c.03,.03,.07,.06,.12,.08,.05,.03,.1,.05,.15,.07,.05,.02,.11,.04,.19,.07,.08,.02,.15,.04,.22,.06,.07,.02,.15,.04,.26,.06,.33,.08,.55,.15,.68,.2,.26,.12,.43,.28,.49,.5,.03,.09,.04,.18,.04,.28,0,.31-.12,.56-.36,.75-.24,.2-.56,.29-.96,.29-.26,0-.49-.04-.69-.12Z"/>
        <path class="cls-3" d="M112.8,64.54c-.2-.08-.36-.2-.48-.36-.12-.16-.18-.35-.18-.57h.35c0,.17,.05,.31,.14,.43,.09,.12,.21,.2,.36,.26,.15,.05,.32,.08,.5,.08,.13,0,.26-.01,.38-.04,.12-.03,.22-.07,.32-.13,.1-.06,.17-.14,.23-.24,.05-.1,.08-.22,.08-.35,0-.06,0-.11-.02-.16s-.03-.09-.05-.13c-.03-.04-.05-.07-.08-.1-.03-.03-.07-.06-.12-.09-.05-.03-.1-.05-.14-.07-.04-.02-.1-.04-.18-.06-.08-.02-.15-.04-.2-.05-.06-.01-.14-.03-.24-.06-.34-.08-.59-.15-.73-.22-.29-.13-.46-.32-.51-.56-.01-.06-.02-.13-.02-.19,0-.29,.12-.52,.36-.71,.24-.19,.54-.28,.91-.28s.69,.1,.94,.29c.25,.19,.37,.44,.37,.74h-.33c0-.22-.09-.4-.27-.54-.18-.14-.41-.21-.7-.21s-.5,.06-.68,.19c-.18,.12-.27,.3-.27,.52,0,.05,0,.1,.01,.15,.01,.04,.03,.08,.05,.12,.03,.04,.05,.07,.08,.1,.03,.03,.07,.06,.12,.08,.05,.03,.1,.05,.15,.07,.05,.02,.11,.04,.19,.07,.08,.02,.15,.04,.22,.06,.07,.02,.15,.04,.26,.06,.33,.08,.55,.15,.68,.2,.26,.12,.43,.28,.49,.5,.03,.09,.04,.18,.04,.28,0,.31-.12,.56-.36,.75-.24,.2-.56,.29-.96,.29-.26,0-.49-.04-.69-.12Z"/>
      </g>
      <line class="cls-1" y1="54.69" x2="125.87" y2="54.69"/>
      <g>
        <path class="cls-3" d="M11.58,42.65h2.83c.68,0,1.21,.17,1.59,.52,.38,.35,.58,.85,.58,1.51s-.19,1.16-.58,1.51c-.38,.35-.91,.52-1.59,.52h-2.61v3.21h-.22v-7.28Zm.22,.19v3.69h2.59c.28,0,.53-.03,.76-.1,.23-.07,.44-.17,.62-.31,.18-.14,.33-.33,.43-.58,.1-.24,.15-.53,.15-.86s-.05-.61-.15-.86c-.1-.24-.25-.43-.43-.58-.18-.14-.39-.25-.62-.31-.23-.07-.48-.1-.76-.1h-2.59Z"/>
        <path class="cls-3" d="M21.32,49.39c-.51-.5-.77-1.24-.77-2.23v-4.51h.22v4.51c0,.92,.23,1.61,.69,2.07,.23,.23,.5,.39,.82,.5,.32,.11,.63,.16,.95,.16s.63-.05,.95-.16c.32-.11,.59-.28,.82-.5,.46-.46,.69-1.15,.69-2.07v-4.51h.22v4.51c0,.99-.26,1.74-.77,2.23-.48,.46-1.12,.7-1.91,.7s-1.43-.23-1.91-.7Z"/>
        <path class="cls-3" d="M30.27,42.65h4.65v.19h-4.43v3.35h3.96v.19h-3.96v3.35h4.46v.19h-4.68v-7.28Z"/>
        <path class="cls-3" d="M43.74,43.18c.38,.36,.57,.87,.57,1.54,0,.54-.13,.98-.38,1.32-.25,.34-.61,.56-1.08,.68l1.79,3.2h-.25l-1.76-3.16c-.15,.02-.31,.04-.5,.04h-2.74v3.13h-.22v-7.28h2.96c.68,0,1.21,.18,1.59,.53Zm-4.33-.34v3.77h2.72c.28,0,.54-.04,.77-.11,.23-.07,.44-.18,.62-.32,.18-.14,.32-.34,.43-.59,.1-.25,.15-.54,.15-.87s-.05-.62-.15-.87c-.1-.25-.24-.45-.43-.59-.18-.14-.39-.25-.62-.32-.23-.07-.49-.1-.77-.1h-2.72Z"/>
        <path class="cls-3" d="M47.9,42.65h5.59v.19h-2.69v7.09h-.22v-7.09h-2.68v-.19Z"/>
        <path class="cls-3" d="M57.67,49.03c-.62-.7-.93-1.62-.93-2.75s.31-2.04,.93-2.75c.62-.7,1.42-1.06,2.41-1.06s1.79,.35,2.41,1.06c.62,.7,.93,1.62,.93,2.75s-.31,2.04-.93,2.75c-.62,.7-1.42,1.06-2.41,1.06s-1.79-.35-2.41-1.06Zm4.66-.13c.58-.66,.87-1.54,.87-2.62s-.29-1.95-.87-2.62c-.58-.66-1.33-1-2.25-1s-1.66,.33-2.24,1c-.58,.66-.87,1.54-.87,2.62s.29,1.95,.87,2.62c.58,.66,1.33,1,2.24,1s1.66-.33,2.25-1Z"/>
        <path class="cls-3" d="M77.61,49.22c.53-.45,.87-1.07,1.02-1.84h.22c-.15,.82-.51,1.48-1.08,1.97-.57,.49-1.25,.74-2.03,.74-.64,0-1.2-.16-1.7-.48-.5-.32-.89-.77-1.17-1.34-.28-.58-.42-1.24-.42-1.98s.14-1.41,.42-1.98c.28-.58,.67-1.03,1.17-1.34,.5-.32,1.07-.48,1.7-.48,.79,0,1.47,.25,2.03,.74,.57,.49,.93,1.15,1.08,1.97h-.22c-.15-.77-.49-1.38-1.02-1.84-.53-.46-1.16-.68-1.88-.68-.59,0-1.11,.15-1.58,.45-.46,.3-.83,.72-1.09,1.27-.26,.55-.39,1.18-.39,1.9s.13,1.35,.39,1.9c.26,.55,.63,.97,1.09,1.27,.46,.3,.99,.45,1.58,.45,.72,0,1.35-.23,1.88-.68Z"/>
        <path class="cls-3" d="M83.06,42.65h.22v3.54h4.85v-3.54h.21v7.28h-.21v-3.54h-4.85v3.54h-.22v-7.28Z"/>
        <path class="cls-3" d="M92.9,42.65h.22v7.28h-.22v-7.28Z"/>
        <path class="cls-3" d="M102.67,49.22c.53-.45,.87-1.07,1.02-1.84h.22c-.15,.82-.51,1.48-1.08,1.97-.57,.49-1.25,.74-2.03,.74-.64,0-1.2-.16-1.7-.48-.5-.32-.89-.77-1.17-1.34-.28-.58-.42-1.24-.42-1.98s.14-1.41,.42-1.98c.28-.58,.67-1.03,1.17-1.34,.5-.32,1.07-.48,1.7-.48,.79,0,1.47,.25,2.03,.74,.57,.49,.93,1.15,1.08,1.97h-.22c-.15-.77-.49-1.38-1.02-1.84-.53-.46-1.16-.68-1.88-.68-.59,0-1.11,.15-1.58,.45-.46,.3-.83,.72-1.09,1.27-.26,.55-.39,1.18-.39,1.9s.13,1.35,.39,1.9c.26,.55,.63,.97,1.09,1.27,.46,.3,.99,.45,1.58,.45,.72,0,1.35-.23,1.88-.68Z"/>
        <path class="cls-3" d="M108.89,49.03c-.62-.7-.93-1.62-.93-2.75s.31-2.04,.93-2.75c.62-.7,1.42-1.06,2.41-1.06s1.79,.35,2.41,1.06c.62,.7,.93,1.62,.93,2.75s-.31,2.04-.93,2.75c-.62,.7-1.42,1.06-2.41,1.06s-1.79-.35-2.41-1.06Zm4.66-.13c.58-.66,.87-1.54,.87-2.62s-.29-1.95-.87-2.62c-.58-.66-1.33-1-2.25-1s-1.66,.33-2.24,1c-.58,.66-.87,1.54-.87,2.62s.29,1.95,.87,2.62c.58,.66,1.33,1,2.24,1s1.66-.33,2.25-1Z"/>
      </g>
      <g>
        <path class="cls-2" d="M20.37,27.52h-1.06V.39h1.06V27.52Z"/>
        <path class="cls-2" d="M65.59,.39V27.52h-.45c-.16,0-.31-.07-.42-.23L46.11,2.12c.01,.12,.02,.24,.03,.36,0,.12,.01,.24,.01,.34V27.52h-.93V.39h.48c.1,0,.18,.02,.25,.05,.06,.03,.13,.1,.21,.2l18.54,25.06c-.01-.12-.02-.23-.03-.35,0-.12-.01-.22-.01-.33V.39h.93Z"/>
        <path class="cls-2" d="M106.56,.39V27.52h-.45c-.16,0-.31-.07-.42-.23L87.07,2.12c.01,.12,.02,.24,.03,.36,0,.12,.01,.24,.01,.34V27.52h-.93V.39h.48c.1,0,.19,.02,.25,.05,.06,.03,.13,.1,.21,.2l18.54,25.06c-.01-.12-.02-.23-.03-.35,0-.12-.01-.22-.01-.33V.39h.93Z"/>
      </g>
    </g>
  </g>
</svg>