<?xml version="1.0" encoding="UTF-8"?>
<svg id="Capa_2" data-name="Capa 2" xmlns="http://www.w3.org/2000/svg" viewBox="0 0 165.69 28.35">
  <defs>
    <style>
      .cls-1 {
        fill: #fff;
      }
    </style>
  </defs>
  <g id="Capa_1-2" data-name="Capa 1">
    <g>
      <g>
        <path class="cls-1" d="M2.75,.1h1.93c.46,0,.82,.12,1.08,.37,.26,.24,.4,.59,.4,1.03s-.13,.78-.39,1.03c-.26,.24-.62,.37-1.08,.37h-1.34v1.74h-.59V.1Zm.59,.53v1.75h1.28c.13,0,.25-.01,.36-.04,.11-.03,.21-.08,.3-.14,.09-.06,.16-.15,.22-.27,.05-.12,.08-.26,.08-.42s-.03-.3-.08-.42c-.05-.12-.12-.21-.22-.27-.09-.06-.19-.11-.3-.14-.11-.03-.23-.04-.36-.04h-1.28Z"/>
        <path class="cls-1" d="M11.89,.47c.26,.25,.4,.6,.4,1.05,0,.32-.07,.59-.2,.81-.14,.22-.33,.38-.58,.48l.99,1.82h-.65l-.89-1.7s-.08,0-.15,0h-1.39v1.69h-.59V.1h1.98c.46,0,.82,.12,1.09,.37Zm-2.47,.15v1.8h1.34c.29,0,.52-.07,.69-.22,.17-.14,.25-.37,.25-.68s-.09-.54-.25-.68c-.17-.15-.4-.22-.69-.22h-1.34Z"/>
        <path class="cls-1" d="M15.53,4.08c-.4-.44-.6-1.01-.6-1.71s.2-1.27,.6-1.71c.4-.44,.91-.65,1.55-.65,.42,0,.79,.1,1.12,.3,.33,.2,.58,.48,.76,.84,.18,.36,.27,.77,.27,1.23s-.09,.87-.27,1.23c-.18,.36-.43,.64-.76,.84-.33,.2-.7,.3-1.12,.3-.64,0-1.15-.22-1.55-.65Zm2.14,.02c.19-.08,.35-.2,.49-.35,.14-.15,.26-.35,.34-.58,.08-.24,.13-.5,.13-.8s-.04-.56-.13-.8c-.08-.24-.2-.43-.34-.59-.14-.15-.31-.27-.49-.35-.19-.08-.38-.12-.59-.12s-.4,.04-.59,.12c-.19,.08-.35,.2-.49,.35-.14,.15-.26,.35-.34,.59-.08,.24-.13,.5-.13,.8s.04,.56,.13,.8c.08,.24,.2,.43,.34,.58,.14,.15,.31,.27,.49,.35,.19,.08,.38,.12,.59,.12s.4-.04,.59-.12Z"/>
        <path class="cls-1" d="M21.44,.1h.62l1.29,3.84L24.62,.1h.61l-1.57,4.53h-.63L21.44,.1Z"/>
        <path class="cls-1" d="M27.87,.1h.59V4.63h-.59V.1Z"/>
        <path class="cls-1" d="M31.43,4.63V.1h1.53c.66,0,1.18,.2,1.57,.61,.39,.41,.58,.96,.58,1.66s-.19,1.25-.58,1.65c-.39,.41-.91,.61-1.57,.61h-1.53Zm.59-.52h.93c.22,0,.42-.04,.61-.11,.19-.07,.35-.18,.49-.32,.14-.14,.25-.32,.33-.55,.08-.23,.12-.48,.12-.77s-.04-.55-.12-.77c-.08-.23-.19-.41-.33-.55-.14-.14-.3-.25-.49-.32-.18-.07-.39-.11-.61-.11h-.93v3.5Z"/>
        <path class="cls-1" d="M37.9,.1h3.16V.63h-2.57v1.49h2.25v.5h-2.25v1.49h2.59v.52h-3.19V.1Z"/>
        <path class="cls-1" d="M44.48,1.12v3.52h-.59V.1h.54l2.4,3.51V.1h.6V4.63h-.55l-2.4-3.52Z"/>
        <path class="cls-1" d="M52.93,4.08c.19-.09,.36-.24,.51-.43,.15-.2,.24-.43,.29-.7h.6c-.08,.54-.3,.97-.67,1.3-.37,.33-.81,.49-1.34,.49-.41,0-.77-.1-1.09-.3-.32-.2-.57-.48-.75-.84-.18-.36-.27-.77-.27-1.23s.09-.87,.27-1.23c.18-.36,.43-.64,.75-.84,.32-.2,.68-.3,1.09-.3,.52,0,.97,.16,1.34,.49,.37,.33,.59,.76,.67,1.3h-.6c-.08-.41-.25-.72-.51-.94-.27-.22-.57-.33-.9-.33-.2,0-.39,.04-.57,.12-.18,.08-.34,.2-.48,.35-.14,.15-.25,.35-.33,.58-.08,.24-.12,.5-.12,.8s.04,.56,.12,.8c.08,.24,.19,.43,.33,.58,.14,.15,.3,.27,.48,.35,.18,.08,.37,.12,.57,.12,.22,0,.42-.05,.62-.14Z"/>
        <path class="cls-1" d="M57.19,.1h.59V4.63h-.59V.1Z"/>
        <path class="cls-1" d="M63.41,3.49h-2l-.42,1.14h-.62L62.11,.1h.59l1.74,4.53h-.61l-.42-1.14Zm-1.82-.49h1.64l-.82-2.23-.82,2.23Z"/>
      </g>
      <g>
        <path class="cls-1" d="M7.91,18.43c-4.38,0-6.98-.84-7.8-2.52-.08-.29-.12-.55-.12-.8,0-.9,.59-1.81,1.77-2.74,.76-.63,1.46-.94,2.09-.94,.69,0,1.15,.3,1.4,.91,.04,.15,.06,.3,.06,.43,0,.67-.41,1.25-1.23,1.74-.12,.08-.22,.11-.32,.11-.36,0-.54-.21-.54-.63,0-.17,.11-.35,.34-.54,.32-.19,.49-.35,.49-.49,0-.08,0-.14-.03-.2-.08-.13-.14-.2-.2-.2-.13,0-.31,.05-.51,.14-.46,.25-.87,.54-1.23,.89-.61,.54-.91,1.05-.91,1.54,0,.29,.15,.57,.46,.84,.3,.28,.67,.47,1.08,.59,1.51,.46,3.1,.69,4.8,.69,3.96,0,7.62-.9,10.97-2.71,.1-.06,.2-.09,.31-.09,.36,0,.54,.21,.54,.63,0,.17-.09,.31-.26,.43-3.56,1.94-7.29,2.91-11.17,2.91Z"/>
        <path class="cls-1" d="M18.94,17.86c-.99,0-1.52-.5-1.6-1.51,.02-.76,.33-1.32,.94-1.69,1.35-.8,2.66-1.2,3.91-1.2,.67,0,1.29,.2,1.89,.6,.1,.08,.21,.11,.34,.11,.38,0,.57,.24,.57,.72,0,1.05,.71,1.57,2.14,1.57,2.02,0,4.64-.59,7.86-1.77,.36-.13,.59-.2,.69-.2,.15,0,.28,.07,.39,.2,.1,.13,.16,.27,.16,.4,0,.27-.13,.45-.4,.54-2.48,.88-5.01,1.52-7.6,1.94-.34,.08-.69,.11-1.03,.11-.76,0-1.5-.2-2.2-.6-.57-.42-.91-.86-1.03-1.32-1.03,.78-2.24,1.39-3.63,1.83-.59,.17-1.06,.26-1.4,.26Zm.37-1.23c.34,0,.75-.09,1.23-.29,.95-.38,1.85-.87,2.69-1.46-.32-.21-.75-.31-1.29-.31-.5,0-1.19,.18-2.07,.54-.89,.36-1.33,.69-1.33,.97,0,.09,.04,.19,.12,.28,.13,.17,.35,.26,.66,.26Z"/>
        <path class="cls-1" d="M37.37,28.35h-.08c-.15,0-.29-.05-.42-.16-.12-.1-.19-.24-.19-.41v-.11c.61-2.42,1.36-4.78,2.26-7.08,.34-1.12,.68-2.26,1-3.4,.63-2.1,.95-3.22,.97-3.37,0-.06-.06-.09-.17-.09h-.09c-.13,0-.36,.07-.68,.2-.48,.12-1.31,.44-2.52,.97-1.16,.53-1.84,.8-2.03,.8-.15,0-.28-.06-.37-.18-.09-.13-.14-.26-.14-.41,0-.25,.13-.43,.4-.54,.57-.21,1.15-.45,1.74-.71,1.05-.51,2.13-.91,3.26-1.2,.29-.07,.59-.11,.91-.11,.36,0,.64,.16,.83,.49,.06,.13,.09,.27,.09,.4v.08l-.11,.54-.09,.37c.04-.08,.51-.49,1.43-1.23,.82-.71,1.77-1.06,2.86-1.06,1.16,0,1.74,.49,1.74,1.46,0,.57-.19,1.11-.57,1.6,1.1,.19,2.51,.29,4.2,.29,.4,0,1.1-.01,2.1-.04,1-.03,2.26-.33,3.79-.9l.17-.03c.17,0,.3,.07,.4,.2,.08,.11,.11,.24,.11,.37v.09c0,.21-.11,.37-.34,.49-1.94,.67-3.91,1-5.91,1-.91,0-2.72-.12-5.43-.37-.63,.61-1.2,.92-1.71,.92-.25,0-.47-.09-.67-.27-.2-.18-.3-.39-.3-.61,0-.19,.06-.38,.17-.57,.34-.48,.93-.72,1.77-.72l.31,.03c.27-.3,.5-.67,.69-1.09,.06-.13,.09-.23,.09-.29,0-.11-.07-.2-.2-.27-.13-.07-.26-.11-.37-.13-.15,0-.33,.03-.54,.09-1.05,.27-1.92,.81-2.63,1.63-1.01,1.24-1.97,3.11-2.89,5.63l-.17,.4c-1.47,4.84-2.35,7.29-2.66,7.34Z"/>
        <path class="cls-1" d="M64.12,17.46h-.26c-.93,0-1.88-.17-2.83-.51-1.05-.44-1.69-1.09-1.91-1.94-.3,.23-.73,.45-1.29,.66l-.17,.03c-.34,0-.52-.19-.52-.57,0-.27,.12-.46,.37-.57,.63-.21,1.14-.55,1.54-1.03,.13-.17,.3-.26,.52-.26,.36,0,.54,.18,.54,.54v.14c0,.78,.29,1.35,.87,1.71,.58,.36,1.18,.56,1.79,.6,.61,.04,1.09,.06,1.43,.06,.46,0,.87-.02,1.23-.06,2.44-.21,4.8-.79,7.09-1.74l.17-.03c.34,0,.51,.19,.51,.57,0,.25-.11,.44-.34,.57-2.8,1.16-5.71,1.77-8.74,1.83Zm-3.26-6.91c-.15,0-.31-.05-.46-.14-.38-.11-.57-.4-.57-.86,0-.25,.09-.44,.27-.57,.18-.13,.35-.2,.5-.2,.19,0,.37,.03,.54,.08,.34,.16,.51,.43,.51,.83,0,.13-.03,.28-.09,.43-.15,.29-.39,.43-.71,.43Z"/>
        <path class="cls-1" d="M77.75,19.32c-.78,0-1.61-.07-2.48-.2-1.2-.13-2.12-.74-2.74-1.83-.19-.42-.29-.85-.29-1.28,0-.51,.12-1.04,.37-1.57,.36-.93,1.15-2.37,2.37-4.32-.97-.06-1.95-.21-2.94-.46-.27-.08-.4-.24-.4-.49,0-.15,.05-.29,.14-.42,.1-.12,.23-.19,.4-.19h.14c1.12,.27,2.24,.42,3.34,.46,.51-.8,1.06-1.58,1.63-2.34v-.03c.71-.99,1.43-1.96,2.17-2.91,1.05-1.22,2.18-2.35,3.4-3.4,.15-.1,.31-.14,.49-.14,.19,0,.32,.09,.4,.29,.11,.27,.17,.54,.17,.83,0,.53-.3,1.29-.91,2.26l-.26,.43c-1.11,1.83-2.31,3.5-3.6,5l9.43-.23c.36,0,.54,.18,.54,.54,0,.53-3.24,.8-9.72,.8l-1.26,.03c-1.49,1.7-3.03,3.34-4.63,4.94-.11,.29-.15,.56-.11,.83,.04,.55,.24,1.02,.6,1.4,.4,.42,.91,.66,1.54,.71,.44,.06,.87,.09,1.29,.11h1.26c6.23-.04,12.73-1.21,19.52-3.51l.17-.03c.15,0,.28,.06,.37,.17,.1,.11,.14,.24,.14,.37,0,.29-.13,.48-.4,.57-5.54,1.98-11.27,3.13-17.17,3.46l-.8,.06c-.72,.04-1.45,.07-2.17,.09Zm-2.2-7.94l1.09-1.2h-.34l-.74,1.2Zm2.09-2.31c1.77-2.04,3.21-4.03,4.31-5.97l.23-.34c.15-.23,.27-.43,.34-.6-1.47,1.37-2.88,3.05-4.23,5.03l-1.29,1.89h.63Z"/>
        <path class="cls-1" d="M97.98,17.86c-.99,0-1.52-.5-1.6-1.51,.02-.76,.33-1.32,.94-1.69,1.35-.8,2.66-1.2,3.92-1.2,.67,0,1.29,.2,1.89,.6,.09,.08,.21,.11,.34,.11,.38,0,.57,.24,.57,.72,0,1.05,.71,1.57,2.14,1.57,2.02,0,4.64-.59,7.86-1.77,.36-.13,.59-.2,.69-.2,.15,0,.28,.07,.39,.2,.1,.13,.16,.27,.16,.4,0,.27-.13,.45-.4,.54-2.48,.88-5.01,1.52-7.6,1.94-.34,.08-.69,.11-1.03,.11-.76,0-1.5-.2-2.2-.6-.57-.42-.91-.86-1.03-1.32-1.03,.78-2.24,1.39-3.63,1.83-.59,.17-1.06,.26-1.4,.26Zm.37-1.23c.34,0,.75-.09,1.23-.29,.95-.38,1.85-.87,2.68-1.46-.32-.21-.75-.31-1.28-.31-.5,0-1.19,.18-2.07,.54-.89,.36-1.33,.69-1.33,.97,0,.09,.04,.19,.12,.28,.13,.17,.35,.26,.66,.26Z"/>
        <path class="cls-1" d="M114.86,18.55c-.15,0-.3-.03-.43-.09-.42-.25-.63-.74-.63-1.49,0-1.1,.31-2.08,.94-2.91,.13-.17,.29-.26,.46-.26,.23,0,.41,.09,.54,.29,.06,.08,.09,.16,.09,.26s-.04,.2-.12,.31c-.51,.69-.77,1.45-.77,2.29v.26c0,.08,.02,.11,.06,.11s.11-.06,.23-.17c.11-.11,.36-.29,.74-.54l1.28-.91c1.26-1.01,2.32-1.52,3.2-1.52,.76,0,1.36,.32,1.8,.97,.3,.38,.75,.57,1.34,.57,.53,0,2.01-.29,4.43-.86,1.16-.27,1.82-.4,1.97-.4s.28,.07,.38,.2c.11,.13,.16,.28,.16,.43,0,.23-.13,.4-.4,.51l-1.86,.37c-.49,.11-1,.22-1.51,.31l-.74,.17c-1.05,.29-1.9,.43-2.57,.43-.93,0-1.63-.35-2.09-1.03-.21-.38-.5-.57-.86-.57-.1,0-.25,.03-.46,.09-.44,.11-1.28,.63-2.54,1.54l-1.17,.83c-.61,.53-1.11,.8-1.49,.8Z"/>
        <path class="cls-1" d="M137.58,18.23c-1.12,0-2.25-.09-3.37-.26l-.17-.03c-2.55-.3-4.1-1.13-4.63-2.46-.04-.23-.06-.44-.06-.63,0-.95,.63-1.91,1.88-2.89,.71-.53,1.36-.8,1.97-.8,.75,0,1.21,.33,1.4,1l.03,.31c0,.61-.4,1.2-1.2,1.77-.93,.68-1.86,1.09-2.77,1.2l.14,.14c.3,.3,.66,.53,1.06,.66,.69,.23,1.13,.34,1.34,.34,1.45,.32,2.91,.49,4.37,.49,3.5,0,6.83-.85,9.97-2.54,.1-.06,.2-.09,.31-.09,.1,0,.21,.05,.34,.14,.13,.1,.2,.26,.2,.49,0,.19-.11,.33-.32,.43-3.24,1.81-6.74,2.71-10.51,2.71Zm-6.97-3.89c.25-.02,.59-.14,1.03-.37,.72-.36,1.28-.72,1.66-1.06,.13-.11,.2-.25,.2-.4,0-.13-.08-.2-.23-.2-.55,0-1.16,.34-1.83,1.03-.46,.36-.73,.7-.83,1Z"/>
        <path class="cls-1" d="M152.12,22.17c-.15,0-.32-.03-.51-.09-.55-.34-.83-.8-.83-1.37,0-.67,.2-1.29,.6-1.86,.65-.89,1.4-1.58,2.26-2.06-.27-.91-.91-1.87-1.94-2.86-1.18,.59-2.44,1.14-3.77,1.66l-.2,.03c-.32,0-.48-.18-.48-.54,0-.25,.12-.44,.37-.57,1.18-.46,2.28-.92,3.29-1.37-.53-.48-.82-.99-.86-1.54,.06-.88,.54-1.63,1.44-2.27,.9-.64,1.83-.96,2.79-.96s1.44,.55,1.51,1.66c-.1,1.3-1.1,2.42-3.03,3.37l.31,.37c.8,.84,1.33,1.67,1.6,2.49,1.07-.46,2.24-.77,3.51-.94,2.23-.29,3.77-.43,4.63-.43,.63-.04,1.39-.15,2.29-.34h.12c.25,0,.4,.16,.46,.48l.03,.49c-.44,.25-1.54,.43-3.31,.54-3.56,.19-6.05,.64-7.46,1.34,.04,.17,.06,.37,.06,.6,0,.67-.14,1.34-.43,2-.4,.89-.95,1.55-1.66,1.97-.25,.13-.51,.2-.77,.2Zm-.17-9.57c1.79-.95,2.69-1.79,2.69-2.52,0-.42-.25-.63-.74-.63-.46,0-1.01,.22-1.66,.67-.65,.45-.97,.93-.97,1.44,0,.27,.08,.47,.24,.61,.16,.14,.27,.24,.31,.29,.05,.05,.09,.09,.13,.13Zm1.89,5.43c-.7,.44-1.27,1.04-1.71,1.8-.15,.27-.23,.5-.23,.71,0,.11,.04,.21,.11,.3,.08,.09,.14,.13,.2,.13,.15,0,.36-.12,.63-.37,.69-.72,1.03-1.52,1.03-2.4l-.03-.17Z"/>
      </g>
    </g>
  </g>
</svg>