<?xml version="1.0" encoding="UTF-8"?>
<svg id="Capa_2" data-name="Capa 2" xmlns="http://www.w3.org/2000/svg" viewBox="0 0 99.32 89.88">
  <defs>
    <style>
      .cls-1 {
        fill: #fff;
      }

      .cls-2 {
        fill: #918669;
      }
    </style>
  </defs>
  <g id="Capa_1-2" data-name="Capa 1">
    <g>
      <g>
        <path class="cls-1" d="M18.72,86.72c.79,0,1.24,.39,1.24,1.07s-.45,1.12-1.24,1.12h-.72v.94h-.53v-3.13h1.25Zm-.72,1.71h.7c.48,0,.76-.21,.76-.63s-.27-.61-.76-.61h-.7v1.24Z"/>
        <path class="cls-1" d="M24.58,88.91s-.09,0-.14,0h-.74v.94h-.53v-3.13h1.27c.8,0,1.26,.39,1.26,1.07,0,.5-.23,.85-.65,1.01l.7,1.05h-.6l-.57-.95Zm-.14-.47c.48,0,.76-.21,.76-.63s-.28-.61-.76-.61h-.74v1.24h.74Z"/>
        <path class="cls-1" d="M32.13,88.29c0,.89-.72,1.59-1.66,1.59s-1.66-.69-1.66-1.59,.72-1.58,1.66-1.58,1.66,.68,1.66,1.58Zm-2.78,0c0,.62,.51,1.11,1.13,1.11s1.11-.49,1.11-1.11-.5-1.1-1.11-1.1-1.13,.48-1.13,1.1Z"/>
        <path class="cls-1" d="M36.18,89.85l-1.25-3.13h.57l.97,2.54,.97-2.54h.55l-1.26,3.13h-.55Z"/>
        <path class="cls-1" d="M41.1,89.85v-3.13h.53v3.13h-.53Z"/>
        <path class="cls-1" d="M46.41,86.72c.94,0,1.62,.66,1.62,1.56s-.68,1.56-1.63,1.56h-1.27v-3.13h1.28Zm-.76,2.66h.77c.61,0,1.07-.45,1.07-1.09s-.48-1.1-1.1-1.1h-.75v2.18Z"/>
        <path class="cls-1" d="M51.8,87.2v.84h1.53v.47h-1.53v.86h1.76v.47h-2.29v-3.13h2.23v.47h-1.71Z"/>
        <path class="cls-1" d="M59.08,89.85l-1.67-2.24v2.24h-.53v-3.13h.52l1.68,2.25v-2.25h.52v3.13h-.52Z"/>
        <path class="cls-1" d="M65.69,87.19l-.31,.38c-.23-.25-.55-.4-.87-.4-.63,0-1.12,.48-1.12,1.1s.49,1.1,1.12,1.1c.31,0,.63-.14,.87-.37l.31,.35c-.32,.31-.77,.51-1.21,.51-.92,0-1.63-.69-1.63-1.59s.72-1.57,1.64-1.57c.44,0,.88,.18,1.19,.48Z"/>
        <path class="cls-1" d="M68.91,89.85v-3.13h.53v3.13h-.53Z"/>
        <path class="cls-1" d="M73.38,89.15l-.3,.71h-.55l1.38-3.13h.54l1.37,3.13h-.56l-.3-.71h-1.58Zm.79-1.86l-.59,1.39h1.18l-.59-1.39Z"/>
      </g>
      <g>
        <path class="cls-1" d="M98.61,39.09c-2.43-.08-4.74-.07-6.74-.04h-1.59c-3.25,0-7.85,.07-13.81,.21h-.18l2.41-6.14v-.39c-.14,0-.32-.07-.54-.21-.29,0-.54,.07-.75,.21-.33,.31-1.58,2.97-3.01,6.25-.16,.31-.36,.46-1.83,.46h-4.33c0-.31,.82-2.06,2.46-5.23v-.75c-.14,0-.34-.06-.6-.18h-.34c-.55,0-1.68,2.12-3.39,6.37h-3.73c-.62,0-.98,.18-1.09,.54l.16,.54c1.9-.1,3.21-.16,3.94-.16h.18c-.78,1.91-1.43,3.58-1.97,5h-.09c-2.16,1.54-3.91,2.67-5.26,3.39h-.16c0-1.07,.74-3.32,2.23-6.74v-.18c0-.21-.12-.34-.36-.39h-.57c-.19,0-.75,.57-1.68,1.71-.33,0-.77-.07-1.32-.21-.57,0-1.19,.18-1.87,.54-1.87,1.17-2.8,2.49-2.8,3.94v.54c.1,.38,.48,.57,1.14,.57h.39c1.14,0,2.25-.75,3.34-2.25h.18v.21c-.26,.48-.39,1.17-.39,2.05v.21c0,.73,.38,1.09,1.14,1.09h.57c1.12,0,2.7-.8,4.74-2.39-.67,1.91-1,3.15-1,3.72,.09,.62,.27,.93,.54,.93h1.32c1.09,0,3.76-2.43,8.01-7.28l-5.14,12.34s0,.02,0,.03c.12,.51,.45,.6,.97,.57,.23-.02,.44-.11,.63-.23,2.06-4.86,4.55-10.71,7.48-17.56,7.57-.11,13.66-.18,18.29-.2,.51,.02,1.03,.04,1.57,.07,0,.36,.18,.54,.54,.54,.67,0,1.68-.12,3.01-.36v-.93c-.14,0-.45-.09-.71-.21Zm-44.77,8.35h-.16v-.18c.52-1.35,1.26-2.28,2.23-2.8h.39l.34,.18c0,.29-.93,1.23-2.8,2.8Zm19.65-6.87c-2.73,3.68-5.91,7.15-9.54,10.42h-.18c.74-2.78,1.99-6.07,3.73-9.87,0-.5,1.12-.75,3.37-.75h2.62v.21Z"/>
        <path class="cls-1" d="M82.81,45.8h-.6c-2.59,2.26-4.64,3.45-6.14,3.55h-.18c0-.4,.31-1.27,.93-2.62,2.75-.79,4.12-1.53,4.12-2.2,0-.78-.51-1.22-1.53-1.32h-.34l-1.32,.39c-1.61,1.73-2.54,2.59-2.8,2.59v.36l.18,.39c-.62,.83-.93,1.58-.93,2.25,0,.73,.44,1.09,1.32,1.09h1.09c1.87,0,4.04-1.24,6.53-3.73v-.36c0-.22-.11-.35-.34-.39Zm-3.55-1.48l-.78,.75h-.16c.05-.26,.36-.51,.93-.75Z"/>
      </g>
      <g>
        <path class="cls-1" d="M14.32,7.62v1.09h1.97v.61h-1.97v1.11h2.27v.61h-2.94V7.02h2.88v.61h-2.2Z"/>
        <path class="cls-1" d="M20.28,7.02c1.21,0,2.08,.85,2.08,2.01s-.88,2.01-2.1,2.01h-1.63V7.02h1.65Zm-.97,3.42h.99c.78,0,1.38-.58,1.38-1.4s-.62-1.41-1.41-1.41h-.96v2.81Z"/>
        <path class="cls-1" d="M24.31,11.04V7.02h.68v4.03h-.68Z"/>
        <path class="cls-1" d="M27.94,7.62v1.16h1.83v.6h-1.83v1.65h-.68V7.02h2.7v.61h-2.02Z"/>
        <path class="cls-1" d="M31.78,11.04V7.02h.68v4.03h-.68Z"/>
        <path class="cls-1" d="M38.05,7.62l-.4,.49c-.29-.32-.71-.51-1.12-.51-.81,0-1.44,.62-1.44,1.41s.63,1.42,1.44,1.42c.4,0,.82-.18,1.12-.48l.4,.45c-.41,.4-.99,.66-1.56,.66-1.18,0-2.09-.89-2.09-2.05s.93-2.02,2.12-2.02c.57,0,1.14,.24,1.53,.62Z"/>
        <path class="cls-1" d="M39.96,11.04V7.02h.68v4.03h-.68Z"/>
        <path class="cls-1" d="M46.84,9.03c0,1.15-.93,2.04-2.13,2.04s-2.13-.89-2.13-2.04,.93-2.03,2.13-2.03,2.13,.88,2.13,2.03Zm-3.58,0c0,.8,.66,1.43,1.45,1.43s1.43-.63,1.43-1.43-.64-1.42-1.43-1.42-1.45,.62-1.45,1.42Z"/>
      </g>
      <polygon class="cls-2" points="85.57 55.64 85.57 78.67 7.72 78.67 7.72 .82 85.57 .82 85.57 23.85 86.4 23.85 86.4 0 6.9 0 6.9 79.5 86.4 79.5 86.4 55.64 85.57 55.64"/>
      <path class="cls-1" d="M45.98,56.63c-.07-.09-.12-.19-.15-.31h0c-.07,.03-.21,0-.22-.23,0-.09,.04-.26,.1-.43,1.82-4.64,4.07-9.83,6.78-15.56,7.32-15.37,10.99-24.96,10.99-28.76v-.54c0-1.09-.62-1.71-1.87-1.87h-.18c-2.57,0-5.86,2.49-9.87,7.46-1.61,1.87-4.09,5.04-7.46,9.51-7.19,10.35-12.03,16.95-14.54,19.8,0-.31,.05-.82,.16-1.53,1.87-10.16,2.93-16.62,3.19-19.38,0-1.74-.56-2.62-1.68-2.62h-.39c-.47,0-1.15,.38-2.05,1.14-3.11,4.66-17.24,32.26-17.24,32.26-.9,1.5-1.62,3.14-2.42,4.7-1.54,3-3.08,6-4.62,8.99-.68,1.32-1.35,2.63-2.03,3.95-.56,1.08-.97,2.25-1.67,3.24-.35,.5-.72,1.02-.77,1.63-.03,.27,.04,.59,.27,.73,.14,.08,.32,.08,.47,.03,.15-.05,.29-.14,.42-.24,.61-.44,.95-1.19,1.31-1.83,.58-1.02,15.82-30.28,17.67-33.95,1.39-2.76,2.77-5.53,4.13-8.31,2.78-5.58,4.96-9.2,6.53-10.86,0,.14,.07,.34,.21,.6,0,.62-.07,1.55-.21,2.8-2.09,11.61-3.14,18.01-3.14,19.2,0,.78,.49,1.22,1.48,1.32h.18c.71,0,1.71-.82,3.01-2.46l15.26-21.25c5.94-7.96,10.42-12.63,13.45-13.99,.31,0,.56,.55,.75,1.66-.36,2.47-.92,4.59-1.68,6.35-1.19,3.32-3.12,8.04-5.78,14.17-4.16,8.39-7.5,15.79-10.04,22.24,0,0,0,0,0,0,0,0,0,.02-.02,.05,0,.01-.01,.03-.02,.04,0,0,0,0,0,0-.09,.29-.34,1.09-.34,1.42,0,.93,.48,1.87,1.55,1.87,.19,0,.36-.02,.52-.04,.02-.04,.04-.08,.06-.12,.02-.11,.04-.21,.06-.32,0-.06,.02-.05-.02-.17-.04-.14-.09-.27-.12-.4Z"/>
    </g>
  </g>
</svg>