<?xml version="1.0" encoding="UTF-8"?>
<svg id="Capa_2" data-name="Capa 2" xmlns="http://www.w3.org/2000/svg" viewBox="0 0 85.99 85.99">
  <defs>
    <style>
      .cls-1 {
        fill: #de292c;
      }

      .cls-2 {
        fill: #fff;
      }

      .cls-3, .cls-4 {
        font-family: UniviaPro-Regular, 'Univia Pro';
        font-size: 3.38px;
      }

      .cls-3, .cls-4, .cls-5 {
        fill: #142344;
      }

      .cls-4 {
        letter-spacing: .21em;
      }

      .cls-6 {
        letter-spacing: .22em;
      }

      .cls-7 {
        letter-spacing: .17em;
      }

      .cls-8 {
        letter-spacing: .16em;
      }
    </style>
  </defs>
  <g id="Capa_1-2" data-name="Capa 1">
    <rect class="cls-2" width="85.99" height="85.99"/>
    <g>
      <g>
        <circle class="cls-5" cx="28.99" cy="24.14" r="7.3"/>
        <path class="cls-1" d="M28.99,24.14l-5.21,5.11c1.33,1.35,3.17,2.19,5.21,2.19s3.9-.84,5.22-2.2h0l-5.22-5.1Z"/>
        <path class="cls-5" d="M37.31,17.31s.07,14.2,0,14.2,14.2,0,14.2,0l-14.2-14.2Z"/>
        <polygon class="cls-1" points="37.31 17.31 51.36 17.31 44.34 24.41 37.31 17.31"/>
        <rect class="cls-1" x="52.44" y="24.41" width="6.33" height="7.1"/>
        <rect class="cls-5" x="52.44" y="17.31" width="6.33" height="7.1"/>
        <rect class="cls-1" x="33.54" y="34.41" width="6.22" height="14.12"/>
        <polygon class="cls-5" points="25.63 33.84 25.63 48.54 39.76 48.54 25.63 33.84"/>
        <polygon class="cls-1" points="49.47 45.85 51.11 48.54 58.16 48.54 52.21 38.8 48.88 44.3 49.47 45.85"/>
        <polygon class="cls-5" points="49.49 34.41 40.83 48.54 47.84 48.54 52.98 40.06 49.49 34.41"/>
        <polygon class="cls-1" points="50.11 64.39 51.75 67.08 58.8 67.08 52.85 57.35 49.52 62.84 50.11 64.39"/>
        <polygon class="cls-5" points="50.13 52.96 41.47 67.08 48.48 67.08 53.62 58.6 50.13 52.96"/>
        <path class="cls-1" d="M31.71,52.42c.11,0,8.59,14.66,8.59,14.66l8.59-14.66H31.71Z"/>
        <path class="cls-5" d="M25.63,52.42c.11,0,8.59,14.66,8.59,14.66l8.59-14.66H25.63Z"/>
        <rect class="cls-1" x="61" y="63.78" width="3.31" height="3.31"/>
      </g>
      <text class="cls-4" transform="translate(33.19 12.89)"><tspan x="0" y="0">EDIFICIO</tspan></text>
      <text class="cls-3" transform="translate(32.56 75.14)"><tspan class="cls-6" x="0" y="0">OKIN</tspan><tspan class="cls-8" x="10.95" y="0">AW</tspan><tspan class="cls-7" x="18.02" y="0">A</tspan></text>
    </g>
  </g>
</svg>