<?xml version="1.0" encoding="UTF-8"?>
<svg id="Capa_2" data-name="Capa 2" xmlns="http://www.w3.org/2000/svg" xmlns:xlink="http://www.w3.org/1999/xlink" viewBox="0 0 138.37 60.4">
  <defs>
    <style>
      .cls-1 {
        fill: #fff;
      }

      .cls-2 {
        clip-path: url(#clippath-2);
      }

      .cls-3 {
        opacity: .6;
      }

      .cls-4 {
        clip-path: url(#clippath-1);
      }

      .cls-5 {
        clip-path: url(#clippath);
      }

      .cls-6 {
        fill: none;
      }

      .cls-7 {
        clip-path: url(#clippath-3);
      }
    </style>
    <clipPath id="clippath">
      <rect class="cls-6" x="1.68" y=".72" width="28.3" height="4.66"/>
    </clipPath>
    <clipPath id="clippath-1">
      <rect class="cls-6" x="1.68" y=".72" width="28.3" height="4.66"/>
    </clipPath>
    <clipPath id="clippath-2">
      <rect class="cls-6" x="30.15" y="52.35" width="70.45" height="8.06"/>
    </clipPath>
    <clipPath id="clippath-3">
      <rect class="cls-6" x="30.15" y="52.35" width="70.45" height="8.06"/>
    </clipPath>
  </defs>
  <g id="Capa_1-2" data-name="Capa 1">
    <g>
      <g class="cls-3">
        <g class="cls-5">
          <polygon class="cls-1" points="1.68 .78 1.68 5.33 4.55 5.33 4.55 4.65 2.53 4.65 2.53 3.37 4.12 3.37 4.12 2.71 2.53 2.71 2.53 1.45 4.55 1.45 4.55 .78 1.68 .78"/>
          <g class="cls-4">
            <path class="cls-1" d="M9.66,3.05c0,.34-.06,.64-.17,.92-.11,.28-.27,.52-.47,.72-.2,.2-.44,.36-.73,.47-.28,.11-.6,.17-.94,.17h-1.74V.78h1.74c.35,0,.66,.05,.94,.17,.28,.11,.53,.27,.73,.47,.2,.2,.36,.44,.47,.72,.11,.28,.17,.59,.17,.92m-.87,0c0-.25-.03-.47-.1-.67-.07-.2-.16-.37-.29-.5-.12-.14-.28-.24-.45-.32-.18-.08-.38-.11-.6-.11h-.88v3.21h.88c.22,0,.42-.04,.6-.11,.18-.07,.33-.18,.45-.32,.13-.14,.22-.3,.29-.5,.07-.2,.1-.42,.1-.67"/>
            <rect class="cls-1" x="10.72" y=".78" width=".85" height="4.55"/>
            <polygon class="cls-1" points="13.76 1.45 13.76 2.8 15.46 2.8 15.46 3.48 13.76 3.48 13.76 5.33 12.91 5.33 12.91 .78 15.78 .78 15.78 1.45 13.76 1.45"/>
            <rect class="cls-1" x="16.79" y=".78" width=".85" height="4.55"/>
            <path class="cls-1" d="M22.1,4.26s.09,.02,.12,.05l.33,.36c-.18,.23-.41,.41-.68,.53-.27,.12-.6,.18-.97,.18-.34,0-.64-.06-.91-.17-.27-.12-.5-.28-.69-.48-.19-.21-.34-.45-.44-.74-.1-.28-.15-.6-.15-.94s.05-.65,.16-.94c.11-.28,.26-.53,.46-.74,.2-.21,.44-.37,.71-.48,.28-.12,.58-.17,.91-.17s.63,.06,.88,.17c.26,.11,.48,.25,.66,.43l-.28,.39s-.04,.05-.06,.07c-.03,.02-.06,.03-.11,.03-.03,0-.06,0-.1-.03-.04-.02-.07-.04-.11-.07-.04-.03-.09-.05-.14-.09-.05-.03-.11-.06-.18-.09-.07-.03-.15-.05-.24-.06-.09-.02-.2-.03-.32-.03-.2,0-.39,.04-.56,.11-.17,.07-.31,.18-.44,.31-.12,.14-.22,.31-.28,.5-.07,.2-.1,.42-.1,.68s.04,.48,.11,.68c.07,.2,.17,.37,.29,.5,.12,.14,.27,.24,.44,.31,.17,.07,.35,.11,.54,.11,.12,0,.22,0,.31-.02,.09-.01,.18-.03,.26-.06,.08-.03,.15-.06,.22-.11,.07-.04,.14-.1,.21-.16,.02-.02,.04-.03,.07-.04,.02-.01,.05-.02,.07-.02"/>
            <rect class="cls-1" x="23.45" y=".78" width=".85" height="4.55"/>
            <path class="cls-1" d="M29.98,3.05c0,.34-.05,.64-.17,.93-.11,.28-.27,.53-.47,.74-.2,.21-.44,.37-.73,.49-.28,.12-.6,.17-.94,.17s-.66-.06-.94-.17c-.28-.12-.53-.28-.73-.49-.2-.21-.36-.46-.47-.74-.11-.28-.17-.59-.17-.93s.05-.64,.17-.93c.11-.28,.27-.53,.47-.74,.2-.21,.44-.37,.73-.49,.28-.12,.6-.18,.94-.18,.23,0,.45,.03,.65,.08,.21,.05,.39,.13,.56,.23,.17,.1,.32,.22,.46,.36,.14,.14,.25,.3,.35,.47,.09,.17,.16,.36,.21,.56,.05,.2,.07,.41,.07,.64m-.87,0c0-.25-.03-.47-.1-.67-.07-.2-.16-.37-.29-.51-.12-.14-.27-.24-.45-.32-.18-.07-.38-.11-.6-.11s-.42,.04-.6,.11c-.18,.07-.33,.18-.45,.32-.13,.14-.22,.31-.29,.51-.07,.2-.1,.42-.1,.67s.03,.47,.1,.67c.07,.2,.16,.37,.29,.5,.12,.14,.28,.24,.45,.32,.18,.07,.38,.11,.6,.11s.42-.04,.6-.11c.18-.07,.33-.18,.45-.32,.13-.14,.22-.3,.29-.5,.07-.2,.1-.42,.1-.67"/>
          </g>
        </g>
      </g>
      <g class="cls-3">
        <g class="cls-2">
          <g class="cls-7">
            <path class="cls-1" d="M30.9,55.08c.19-.23,.41-.42,.66-.56,.25-.14,.53-.21,.85-.21,.26,0,.49,.05,.71,.15,.21,.1,.39,.24,.54,.44,.15,.2,.26,.44,.34,.72,.08,.29,.12,.62,.12,.99,0,.33-.04,.64-.13,.92-.09,.28-.22,.53-.38,.74-.17,.21-.37,.37-.61,.49-.24,.12-.51,.18-.81,.18-.27,0-.51-.05-.71-.14-.2-.09-.37-.22-.52-.39v1.99h-.79v-6.02h.47c.11,0,.18,.05,.21,.16l.07,.53Zm.04,2.72c.15,.2,.3,.33,.47,.41,.17,.08,.36,.12,.58,.12,.42,0,.74-.15,.97-.45,.22-.3,.34-.72,.34-1.28,0-.29-.03-.55-.08-.75-.05-.21-.13-.38-.22-.52-.1-.13-.22-.23-.36-.29-.14-.06-.3-.09-.48-.09-.26,0-.48,.06-.68,.18-.19,.12-.37,.28-.53,.5v2.18Z"/>
            <path class="cls-1" d="M38.53,55.29c.14-.31,.32-.55,.52-.72,.21-.17,.46-.26,.76-.26,.09,0,.18,.01,.27,.03,.09,.02,.16,.05,.23,.1l-.06,.59c-.02,.07-.06,.11-.13,.11-.04,0-.1,0-.18-.03-.08-.02-.17-.03-.27-.03-.14,0-.27,.02-.38,.06-.11,.04-.21,.1-.3,.18-.09,.08-.17,.18-.24,.3-.07,.12-.13,.26-.19,.41v2.84h-.79v-4.49h.45c.09,0,.15,.02,.18,.05,.03,.03,.05,.09,.07,.17l.05,.68Z"/>
            <path class="cls-1" d="M45.39,54.32c.33,0,.62,.05,.89,.16,.26,.11,.49,.26,.67,.47,.19,.2,.33,.44,.43,.73,.1,.29,.15,.6,.15,.96s-.05,.67-.15,.96c-.1,.28-.24,.53-.43,.73-.19,.2-.41,.35-.67,.46-.26,.11-.56,.16-.89,.16s-.63-.05-.89-.16c-.26-.11-.49-.26-.68-.46-.19-.2-.33-.44-.43-.73-.1-.29-.15-.61-.15-.96s.05-.67,.15-.96c.1-.28,.24-.53,.43-.73,.19-.2,.41-.36,.68-.47,.26-.11,.56-.16,.89-.16m0,4.01c.44,0,.77-.15,.99-.44,.22-.3,.33-.71,.33-1.25s-.11-.95-.33-1.25c-.22-.3-.55-.45-.99-.45-.23,0-.42,.04-.59,.12-.17,.08-.3,.19-.42,.33-.11,.15-.19,.32-.25,.53-.05,.21-.08,.45-.08,.72,0,.53,.11,.95,.33,1.25,.22,.3,.56,.44,1.01,.44"/>
            <path class="cls-1" d="M54.92,54.39l-1.83,4.5h-.71l-1.83-4.5h.64c.06,0,.12,.02,.16,.05,.04,.03,.07,.07,.08,.11l1.14,2.89c.04,.11,.07,.22,.09,.32,.03,.1,.05,.21,.08,.31,.02-.1,.05-.21,.07-.31,.03-.1,.06-.21,.1-.32l1.15-2.89s.05-.09,.09-.12c.04-.03,.09-.05,.15-.05h.62Z"/>
            <path class="cls-1" d="M59.31,52.98c0,.08-.02,.15-.05,.22-.03,.06-.07,.12-.12,.18-.05,.05-.11,.09-.18,.12-.07,.03-.14,.04-.22,.04s-.15-.01-.21-.04c-.07-.03-.12-.07-.18-.12-.05-.05-.09-.11-.12-.18-.03-.07-.04-.14-.04-.22s.02-.15,.04-.22c.03-.07,.07-.13,.12-.18,.05-.05,.11-.09,.18-.12,.07-.03,.14-.04,.21-.04s.15,.01,.22,.04c.07,.03,.13,.07,.18,.12,.05,.05,.09,.11,.12,.18,.03,.07,.05,.14,.05,.22m-.17,5.91h-.79v-4.5h.79v4.5Z"/>
            <path class="cls-1" d="M66.82,52.35v6.54h-.47c-.11,0-.18-.05-.21-.16l-.07-.55c-.19,.23-.41,.42-.66,.56-.25,.14-.53,.21-.85,.21-.26,0-.49-.05-.7-.15-.21-.1-.39-.24-.54-.44-.15-.19-.26-.43-.34-.72-.08-.29-.12-.61-.12-.99,0-.33,.04-.64,.13-.93,.09-.29,.22-.53,.38-.75,.16-.21,.37-.37,.61-.5,.24-.12,.51-.18,.81-.18,.28,0,.51,.05,.71,.14,.2,.09,.37,.23,.53,.39v-2.49h.79Zm-.79,3.11c-.15-.2-.31-.33-.48-.41-.17-.08-.36-.12-.58-.12-.42,0-.74,.15-.96,.45-.22,.3-.34,.72-.34,1.28,0,.29,.02,.54,.07,.75,.05,.21,.12,.38,.22,.51,.1,.14,.22,.23,.36,.3,.14,.06,.3,.09,.48,.09,.26,0,.49-.06,.68-.18,.19-.12,.37-.29,.54-.5v-2.17Z"/>
            <path class="cls-1" d="M74.38,58.25c-.1,.12-.22,.22-.35,.31-.14,.09-.28,.16-.44,.22-.15,.06-.32,.1-.48,.13-.17,.03-.33,.04-.49,.04-.31,0-.6-.05-.86-.16-.26-.11-.49-.26-.68-.46-.19-.2-.34-.45-.44-.75-.11-.3-.16-.64-.16-1.03,0-.31,.05-.61,.14-.88,.1-.27,.24-.51,.41-.71,.18-.2,.4-.36,.66-.47,.26-.11,.55-.17,.88-.17,.27,0,.52,.04,.75,.14,.23,.09,.43,.22,.6,.39,.17,.17,.3,.38,.39,.63,.09,.25,.14,.54,.14,.86,0,.12-.01,.21-.04,.25-.02,.04-.08,.06-.15,.06h-3c0,.29,.05,.53,.12,.74,.07,.21,.17,.39,.29,.52,.13,.14,.27,.25,.44,.32,.17,.07,.36,.11,.58,.11,.2,0,.37-.02,.51-.07,.14-.05,.27-.09,.37-.15,.1-.06,.19-.1,.26-.15,.07-.05,.13-.07,.18-.07,.07,0,.12,.02,.15,.07l.22,.29Zm-.64-2.11c0-.18-.03-.35-.08-.5-.05-.15-.13-.28-.22-.4-.1-.11-.22-.2-.36-.26-.14-.06-.3-.09-.48-.09-.38,0-.68,.11-.9,.33-.22,.22-.36,.53-.41,.92h2.46Z"/>
            <path class="cls-1" d="M78.82,55.04c.1-.11,.2-.21,.31-.3,.11-.09,.23-.17,.35-.23,.12-.06,.25-.11,.39-.15,.14-.03,.29-.05,.45-.05,.25,0,.46,.04,.65,.12,.19,.08,.34,.2,.47,.35,.13,.15,.22,.33,.29,.54,.06,.21,.1,.44,.1,.7v2.86h-.8v-2.86c0-.34-.08-.61-.23-.79-.16-.19-.39-.28-.71-.28-.23,0-.45,.06-.66,.17-.2,.11-.39,.27-.56,.46v3.31h-.79v-4.5h.47c.11,0,.18,.05,.21,.16l.06,.49Z"/>
            <path class="cls-1" d="M88.82,55.19s-.05,.06-.07,.08c-.02,.01-.06,.02-.1,.02-.04,0-.09-.02-.15-.06-.05-.04-.12-.08-.2-.12-.08-.04-.18-.08-.29-.12-.11-.04-.25-.05-.42-.05-.22,0-.42,.04-.59,.12-.17,.08-.31,.19-.42,.34-.11,.15-.2,.33-.26,.54-.06,.21-.09,.45-.09,.71,0,.27,.03,.52,.09,.73,.06,.21,.15,.39,.26,.53,.11,.15,.25,.26,.41,.33,.16,.07,.34,.11,.54,.11s.35-.02,.47-.07c.13-.04,.23-.1,.31-.15,.08-.06,.15-.11,.2-.15,.06-.05,.11-.07,.16-.07,.07,0,.12,.02,.15,.07l.22,.29c-.1,.12-.21,.22-.33,.31-.13,.08-.26,.16-.4,.21-.14,.06-.29,.1-.45,.13-.16,.03-.31,.04-.48,.04-.28,0-.54-.05-.78-.16-.24-.1-.45-.25-.63-.45-.18-.2-.32-.44-.42-.72-.1-.29-.15-.61-.15-.98,0-.33,.05-.64,.14-.93,.09-.28,.23-.53,.41-.73,.18-.21,.4-.37,.66-.48,.26-.11,.56-.17,.9-.17,.32,0,.6,.05,.84,.15,.24,.1,.45,.24,.64,.43l-.21,.28Z"/>
            <path class="cls-1" d="M93.6,52.98c0,.08-.02,.15-.05,.22-.03,.06-.07,.12-.13,.18-.05,.05-.11,.09-.18,.12-.07,.03-.14,.04-.22,.04s-.15-.01-.21-.04c-.07-.03-.13-.07-.18-.12-.05-.05-.09-.11-.12-.18-.03-.07-.05-.14-.05-.22s.02-.15,.05-.22c.03-.07,.07-.13,.12-.18,.05-.05,.11-.09,.18-.12,.07-.03,.14-.04,.21-.04s.15,.01,.22,.04c.07,.03,.13,.07,.18,.12,.05,.05,.09,.11,.13,.18,.03,.07,.05,.14,.05,.22m-.17,5.91h-.79v-4.5h.79v4.5Z"/>
            <path class="cls-1" d="M97.27,55.02c.25-.24,.52-.42,.8-.54,.29-.12,.61-.18,.96-.18,.25,0,.47,.04,.67,.12,.19,.08,.36,.2,.49,.35,.14,.15,.24,.33,.3,.54,.07,.21,.1,.44,.1,.69v2.87h-.35c-.08,0-.13-.01-.18-.04-.04-.02-.07-.07-.1-.15l-.09-.43c-.12,.11-.23,.21-.35,.29-.11,.08-.23,.16-.35,.21-.13,.06-.26,.1-.4,.13-.14,.03-.3,.05-.47,.05s-.34-.02-.49-.07c-.15-.05-.29-.12-.4-.22-.11-.1-.2-.22-.27-.37-.07-.15-.1-.33-.1-.53,0-.18,.05-.35,.14-.51,.1-.16,.26-.31,.47-.44,.22-.13,.51-.23,.86-.31,.35-.08,.78-.13,1.3-.14v-.35c0-.35-.08-.61-.23-.79-.15-.18-.37-.27-.66-.27-.2,0-.36,.02-.49,.07-.13,.05-.25,.1-.34,.16-.09,.06-.18,.12-.25,.17-.07,.05-.14,.07-.21,.07-.05,0-.1-.01-.14-.04-.04-.03-.07-.06-.1-.1l-.14-.25Zm2.55,1.84c-.36,.01-.67,.04-.93,.09-.26,.04-.46,.1-.63,.18-.16,.08-.28,.16-.35,.26-.07,.1-.11,.21-.11,.34s.02,.22,.06,.31c.04,.08,.09,.16,.16,.21,.07,.06,.15,.1,.24,.12,.09,.02,.19,.04,.29,.04,.14,0,.26-.01,.38-.04,.11-.03,.22-.07,.33-.12,.1-.05,.2-.11,.29-.19,.09-.08,.18-.16,.27-.25v-.93Z"/>
          </g>
        </g>
      </g>
      <path class="cls-1" d="M8.29,42.71c-.96,0-1.84-.09-2.61-.25-.78-.17-1.51-.42-2.17-.74-.66-.32-1.27-.72-1.82-1.18-.55-.46-1.07-.98-1.57-1.56l-.12-.14,.37-.57,.02-.02c.07-.08,.14-.14,.2-.18,.09-.06,.21-.09,.35-.09,.16,0,.34,.1,.56,.32,.17,.16,.37,.36,.64,.61,.26,.24,.57,.5,.94,.78,.36,.27,.79,.53,1.28,.77,.49,.24,1.07,.44,1.73,.6,.65,.16,1.39,.24,2.22,.24,1.17,0,2.24-.19,3.16-.55,.92-.37,1.71-.87,2.34-1.5,.63-.63,1.12-1.38,1.45-2.22,.33-.84,.5-1.76,.5-2.72,0-1.01-.2-1.86-.58-2.5-.39-.66-.91-1.22-1.55-1.66-.65-.45-1.41-.83-2.25-1.14-.86-.31-1.74-.61-2.63-.89-.9-.28-1.79-.6-2.66-.94-.88-.35-1.68-.79-2.36-1.33-.7-.54-1.26-1.23-1.69-2.03-.43-.81-.65-1.83-.65-3.03,0-.95,.18-1.86,.54-2.72,.36-.86,.88-1.64,1.56-2.3,.68-.66,1.52-1.2,2.51-1.6,.99-.39,2.14-.6,3.41-.6,1.43,0,2.72,.23,3.83,.7,1.11,.46,2.16,1.19,3.12,2.17l.13,.13-.33,.6c-.13,.21-.32,.33-.55,.33s-.47-.15-.78-.46c-.25-.25-.6-.53-1.05-.84-.45-.3-1.03-.59-1.74-.84-.7-.25-1.59-.37-2.63-.37s-2,.16-2.81,.47c-.81,.31-1.5,.74-2.04,1.27-.54,.53-.96,1.15-1.24,1.84-.28,.69-.42,1.43-.42,2.19,0,.97,.2,1.79,.58,2.44,.39,.65,.92,1.2,1.56,1.65,.66,.45,1.41,.84,2.25,1.15,.85,.32,1.74,.63,2.63,.92,.91,.3,1.8,.62,2.65,.96,.87,.34,1.67,.79,2.36,1.32,.7,.54,1.27,1.21,1.7,2,.43,.8,.65,1.79,.65,2.95s-.21,2.31-.61,3.35c-.4,1.04-1,1.96-1.77,2.74-.77,.77-1.72,1.39-2.83,1.83-1.11,.44-2.38,.67-3.79,.67"/>
      <path class="cls-1" d="M34.37,42.75c-1.62,0-3.1-.29-4.4-.87-1.3-.58-2.42-1.38-3.33-2.38-.91-1-1.61-2.19-2.1-3.54-.48-1.34-.73-2.8-.73-4.34V13.89h1.58V31.59c0,1.35,.21,2.63,.61,3.81,.41,1.17,1,2.21,1.77,3.08,.76,.87,1.71,1.55,2.82,2.05,1.11,.49,2.38,.75,3.79,.75s2.68-.25,3.78-.75c1.1-.49,2.04-1.18,2.81-2.04,.77-.86,1.36-1.89,1.77-3.06,.41-1.17,.61-2.45,.61-3.79V0h1.6V31.63c0,1.54-.25,3-.73,4.34-.49,1.35-1.2,2.54-2.11,3.54-.92,1-2.04,1.81-3.33,2.38-1.29,.58-2.77,.87-4.39,.87"/>
      <polygon class="cls-1" points="53.49 42.39 53.49 13.89 70.52 13.89 70.52 15.31 55.08 15.31 55.08 40.97 70.57 40.97 70.51 42.39 53.49 42.39"/>
      <path class="cls-1" d="M88.82,42.71c-1.92,0-3.72-.35-5.34-1.03-1.63-.68-3.05-1.67-4.22-2.93-1.17-1.26-2.1-2.81-2.76-4.59-.66-1.79-.99-3.81-.99-6.02s.33-4.16,.99-5.93c.66-1.78,1.61-3.33,2.81-4.61,1.21-1.28,2.67-2.28,4.35-2.98,1.68-.7,3.55-1.06,5.56-1.06,1.89,0,3.6,.29,5.07,.87,1.47,.58,2.85,1.42,4.12,2.51l.16,.14-.42,.62c-.06,.1-.21,.25-.52,.25-.14,0-.31-.08-.56-.27-.19-.15-.44-.33-.75-.54-.31-.21-.68-.45-1.12-.71-.43-.25-.94-.49-1.53-.7-.58-.21-1.25-.39-1.99-.54-.74-.14-1.57-.22-2.46-.22-1.77,0-3.41,.31-4.89,.92-1.48,.61-2.76,1.49-3.82,2.61-1.06,1.12-1.9,2.51-2.49,4.13-.59,1.62-.89,3.47-.89,5.49s.3,3.93,.89,5.55c.59,1.62,1.42,3,2.47,4.12,1.05,1.12,2.3,1.99,3.72,2.58,1.43,.6,3,.9,4.67,.9,1.06,0,2.02-.07,2.85-.21,.83-.14,1.6-.36,2.29-.64,.69-.28,1.34-.64,1.93-1.05,.59-.42,1.19-.9,1.78-1.44,.13-.13,.28-.2,.42-.2,.11,0,.22,.05,.36,.15h.02s.6,.64,.6,.64l-.17,.17c-.59,.59-1.24,1.14-1.92,1.63-.69,.49-1.45,.92-2.28,1.27-.82,.35-1.73,.63-2.71,.82-.98,.19-2.06,.29-3.23,.29"/>
      <rect class="cls-1" x="105.88" y="13.89" width="1.58" height="45.21"/>
      <path class="cls-1" d="M137.15,42.39c-.17,0-.49-.06-.66-.49l-3.65-8.87-.36-.83-6.42-15.61c-.06-.16-.13-.32-.19-.49-.06,.18-.13,.34-.2,.5l-6.41,15.6-.36,.84-3.64,8.85c-.1,.32-.34,.5-.69,.5h-1.18l11.8-28.51h1.38l11.8,28.51h-1.22Z"/>
    </g>
  </g>
</svg>