<?xml version="1.0" encoding="UTF-8"?>
<svg id="Capa_2" data-name="Capa 2" xmlns="http://www.w3.org/2000/svg" viewBox="0 0 116.91 64.76">
  <defs>
    <style>
      .cls-1 {
        fill: #fff;
      }

      .cls-2 {
        fill: #8c1728;
      }

      .cls-3 {
        fill: #c3116e;
      }

      .cls-4 {
        fill: #b91719;
      }
    </style>
  </defs>
  <g id="Capa_1-2" data-name="Capa 1">
    <g>
      <path class="cls-3" d="M13.71,15.45V47.93H.92V15.45H13.71Z"/>
      <path class="cls-3" d="M2.02,2C3.36,.79,5.15,.18,7.37,.18s3.95,.6,5.3,1.81c1.34,1.21,2.02,2.74,2.02,4.58s-.67,3.3-2.02,4.49c-1.34,1.19-3.11,1.79-5.3,1.79s-4.01-.6-5.36-1.79C.67,9.88,0,8.38,0,6.58S.67,3.21,2.02,2Z"/>
      <path class="cls-3" d="M52.5,18.96c2.09,2.5,3.14,5.88,3.14,10.14v18.83h-12.73V30.71c0-1.54-.41-2.76-1.24-3.66-.83-.9-1.93-1.35-3.31-1.35s-2.53,.45-3.34,1.35c-.81,.9-1.21,2.12-1.21,3.66v17.22h-12.79V15.45h12.79v4.95c1-1.54,2.33-2.78,4-3.74,1.67-.96,3.66-1.44,5.96-1.44,3.73,0,6.63,1.25,8.73,3.74Z"/>
      <path class="cls-3" d="M34.04,15.54V47.93h-13.15V15.54h13.15Z"/>
      <path class="cls-2" d="M79.41,16.34c1.52,.86,2.68,2.04,3.48,3.54V5.31h12.79V47.93h-12.79v-4.44c-.81,1.5-1.97,2.68-3.48,3.54-1.52,.86-3.33,1.3-5.44,1.3-2.53,0-4.82-.66-6.85-1.99-2.04-1.33-3.64-3.24-4.81-5.76-1.17-2.52-1.76-5.48-1.76-8.9s.59-6.38,1.76-8.9c1.17-2.52,2.77-4.44,4.81-5.76,2.03-1.32,4.32-1.99,6.85-1.99,2.11,0,3.93,.43,5.44,1.3Zm-4.58,11.32c-.88,.96-1.32,2.3-1.32,4.03s.44,3.07,1.32,4.03c.88,.96,2.02,1.44,3.4,1.44s2.51-.48,3.4-1.44c.88-.96,1.32-2.3,1.32-4.03s-.44-3.07-1.32-4.03c-.88-.96-2.02-1.44-3.4-1.44s-2.52,.48-3.4,1.44Z"/>
      <path class="cls-4" d="M115.93,15.45V47.93h-12.79V15.45h12.79Z"/>
      <path class="cls-4" d="M115.64,15.22V47.77h-12.26V15.22h12.26Z"/>
      <path class="cls-4" d="M104.24,2c1.34-1.21,3.13-1.81,5.36-1.81s3.95,.6,5.3,1.81c1.34,1.21,2.02,2.74,2.02,4.58s-.67,3.3-2.02,4.49c-1.34,1.19-3.11,1.79-5.3,1.79s-4.01-.6-5.36-1.79c-1.34-1.19-2.02-2.69-2.02-4.49s.67-3.37,2.02-4.58Z"/>
      <path class="cls-1" d="M50.01,61.92h-.59v-4.15h-4.93v4.15h-.59v-8.44h.59v3.75h4.93v-3.75h.59v8.44Z"/>
      <path class="cls-1" d="M53.73,53.9c0-.37,.12-.56,.36-.56,.12,0,.21,.05,.28,.15,.07,.1,.1,.23,.1,.41s-.03,.31-.1,.41c-.07,.1-.16,.15-.28,.15-.24,0-.36-.19-.36-.56Zm.65,8.02h-.57v-6.28h.57v6.28Z"/>
      <path class="cls-1" d="M60.72,62.04c-.97,0-1.67-.36-2.12-1.09h-.04l.02,.49c.01,.29,.02,.6,.02,.94v2.39h-.57v-9.12h.49l.11,.89h.03c.43-.68,1.12-1.02,2.07-1.02,.85,0,1.49,.28,1.94,.83,.44,.56,.67,1.37,.67,2.43s-.23,1.83-.7,2.4c-.47,.57-1.11,.85-1.92,.85Zm-.01-.51c.64,0,1.14-.24,1.49-.72,.35-.48,.53-1.15,.53-2,0-1.85-.67-2.77-2-2.77-.73,0-1.27,.2-1.61,.6-.34,.4-.52,1.06-.52,1.97v.19c0,.98,.17,1.68,.5,2.1,.33,.42,.87,.63,1.61,.63Z"/>
      <path class="cls-1" d="M71.82,58.77c0,1.02-.25,1.82-.75,2.4-.5,.57-1.18,.86-2.06,.86-.55,0-1.04-.13-1.46-.4-.42-.27-.74-.65-.96-1.14-.22-.5-.33-1.07-.33-1.72,0-1.02,.25-1.82,.74-2.39,.5-.57,1.18-.86,2.04-.86s1.54,.29,2.03,.87c.49,.58,.74,1.37,.74,2.38Zm-4.96,0c0,.86,.19,1.54,.57,2.02,.38,.48,.92,.73,1.61,.73s1.23-.24,1.61-.73c.38-.48,.57-1.16,.57-2.02s-.19-1.54-.57-2.02c-.38-.48-.92-.72-1.61-.72s-1.23,.24-1.6,.71c-.38,.48-.56,1.15-.56,2.02Zm1.59-4.11c.28-.3,.56-.64,.83-.99,.27-.36,.46-.63,.56-.81h.81v.1c-.14,.2-.37,.47-.71,.8-.33,.33-.7,.66-1.1,1h-.4v-.09Z"/>
      <path class="cls-1" d="M77.41,55.52c.45,0,.85,.08,1.18,.25,.33,.17,.63,.45,.89,.85h.03c-.02-.48-.03-.96-.03-1.43v-2.26h.57v8.99h-.37l-.15-.96h-.05c-.48,.72-1.16,1.08-2.06,1.08s-1.53-.27-1.99-.81c-.46-.54-.69-1.32-.69-2.36,0-1.09,.23-1.92,.68-2.49,.45-.57,1.11-.86,1.98-.86Zm0,.52c-.69,0-1.2,.24-1.54,.72-.34,.48-.52,1.18-.52,2.1,0,1.78,.69,2.67,2.07,2.67,.71,0,1.23-.21,1.56-.62,.33-.41,.5-1.09,.5-2.04v-.1c0-.97-.16-1.67-.49-2.09-.33-.42-.85-.64-1.58-.64Z"/>
      <path class="cls-1" d="M86.17,55.52c.27,0,.55,.03,.86,.08l-.11,.55c-.26-.06-.53-.1-.81-.1-.54,0-.97,.23-1.32,.68-.34,.46-.51,1.03-.51,1.72v3.47h-.57v-6.28h.49l.06,1.13h.04c.26-.46,.53-.79,.83-.97,.29-.19,.65-.28,1.06-.28Z"/>
      <path class="cls-1" d="M95.05,58.77c0,1.02-.25,1.82-.74,2.4-.5,.57-1.18,.86-2.06,.86-.55,0-1.04-.13-1.46-.4-.42-.27-.74-.65-.96-1.14-.22-.5-.33-1.07-.33-1.72,0-1.02,.25-1.82,.74-2.39,.5-.57,1.18-.86,2.05-.86s1.54,.29,2.03,.87c.49,.58,.74,1.37,.74,2.38Zm-4.96,0c0,.86,.19,1.54,.57,2.02,.38,.48,.92,.73,1.61,.73s1.23-.24,1.61-.73c.38-.48,.57-1.16,.57-2.02s-.19-1.54-.58-2.02c-.38-.48-.92-.72-1.61-.72s-1.23,.24-1.6,.71c-.38,.48-.56,1.15-.56,2.02Z"/>
      <path class="cls-1" d="M106.18,61.92v-4.12c0-.61-.12-1.06-.36-1.34-.24-.28-.6-.42-1.1-.42-.64,0-1.12,.18-1.43,.53-.31,.35-.46,.91-.46,1.67v3.68h-.58v-4.29c0-1.06-.49-1.59-1.46-1.59-.66,0-1.14,.19-1.44,.58-.3,.38-.45,1-.45,1.84v3.47h-.57v-6.28h.47l.12,.86h.03c.17-.31,.42-.55,.74-.72,.32-.17,.67-.26,1.06-.26,.99,0,1.63,.37,1.91,1.11h.02c.2-.36,.48-.63,.82-.83,.34-.19,.74-.29,1.18-.29,.69,0,1.2,.18,1.54,.55,.34,.37,.51,.95,.51,1.74v4.11h-.57Z"/>
      <path class="cls-1" d="M115.52,58.77c0,1.02-.25,1.82-.75,2.4-.5,.57-1.18,.86-2.06,.86-.55,0-1.04-.13-1.46-.4-.42-.27-.74-.65-.96-1.14-.22-.5-.33-1.07-.33-1.72,0-1.02,.25-1.82,.74-2.39,.5-.57,1.18-.86,2.04-.86s1.54,.29,2.03,.87c.49,.58,.74,1.37,.74,2.38Zm-4.96,0c0,.86,.19,1.54,.57,2.02,.38,.48,.92,.73,1.61,.73s1.23-.24,1.61-.73c.38-.48,.57-1.16,.57-2.02s-.19-1.54-.58-2.02c-.38-.48-.92-.72-1.61-.72s-1.23,.24-1.6,.71c-.38,.48-.56,1.15-.56,2.02Z"/>
      <path class="cls-1" d="M31.18,9.05h-4.61V.61h4.61v.54h-4.03v3.19h3.8v.54h-3.8v3.62h4.03v.54Z"/>
      <path class="cls-1" d="M36.8,2.65c.45,0,.85,.08,1.18,.25,.33,.17,.63,.45,.89,.85h.03c-.02-.49-.03-.96-.03-1.43V.06h.57V9.05h-.38l-.15-.96h-.05c-.48,.72-1.16,1.07-2.06,1.07s-1.53-.27-1.99-.81c-.46-.54-.69-1.32-.69-2.36,0-1.09,.23-1.92,.68-2.49,.45-.57,1.11-.86,1.98-.86Zm0,.52c-.68,0-1.2,.24-1.55,.72-.34,.48-.52,1.18-.52,2.1,0,1.78,.69,2.67,2.07,2.67,.71,0,1.23-.21,1.56-.62,.33-.41,.5-1.09,.5-2.04v-.1c0-.97-.16-1.67-.49-2.09-.33-.43-.85-.64-1.58-.64Z"/>
      <path class="cls-1" d="M43.01,1.03c0-.37,.12-.55,.36-.55,.12,0,.21,.05,.28,.14,.07,.1,.1,.23,.1,.41s-.03,.31-.1,.41c-.07,.1-.16,.15-.28,.15-.24,0-.36-.19-.36-.56Zm.65,8.02h-.57V2.77h.57v6.28Z"/>
      <path class="cls-1" d="M49.65,3.27h-1.48v5.78h-.57V3.27h-1.17v-.33l1.17-.21v-.49c0-.77,.14-1.34,.42-1.7,.28-.36,.75-.54,1.39-.54,.35,0,.69,.05,1.04,.16l-.13,.5c-.31-.1-.61-.14-.92-.14-.45,0-.76,.13-.95,.4-.19,.26-.28,.69-.28,1.29v.58h1.48v.5Zm1.13-2.24c0-.37,.12-.55,.36-.55,.12,0,.21,.05,.28,.14,.07,.1,.1,.23,.1,.41s-.03,.31-.1,.41c-.07,.1-.16,.15-.28,.15-.24,0-.36-.19-.36-.56Zm.65,8.02h-.57V2.77h.57v6.28Z"/>
      <path class="cls-1" d="M57.59,9.17c-.9,0-1.6-.28-2.11-.85-.51-.57-.76-1.36-.76-2.37s.26-1.85,.79-2.43c.53-.58,1.25-.87,2.17-.87,.54,0,1.06,.09,1.56,.28l-.16,.51c-.54-.18-1.01-.27-1.42-.27-.77,0-1.35,.24-1.75,.71-.4,.48-.59,1.16-.59,2.05,0,.85,.2,1.51,.59,1.99,.4,.48,.95,.72,1.66,.72,.57,0,1.1-.1,1.59-.31v.53c-.4,.2-.93,.3-1.58,.3Z"/>
      <path class="cls-1" d="M62.17,1.03c0-.37,.12-.55,.36-.55,.12,0,.21,.05,.28,.14,.07,.1,.1,.23,.1,.41s-.03,.31-.1,.41c-.07,.1-.16,.15-.28,.15-.24,0-.36-.19-.36-.56Zm.65,8.02h-.57V2.77h.57v6.28Z"/>
      <path class="cls-1" d="M71.67,5.9c0,1.02-.25,1.82-.74,2.4-.5,.58-1.18,.86-2.06,.86-.55,0-1.04-.13-1.46-.4-.42-.27-.74-.65-.96-1.14-.22-.5-.33-1.07-.33-1.72,0-1.02,.25-1.82,.74-2.39,.5-.57,1.18-.86,2.05-.86s1.54,.29,2.03,.87c.49,.58,.74,1.37,.74,2.38Zm-4.96,0c0,.86,.19,1.54,.57,2.02,.38,.48,.92,.72,1.61,.72s1.23-.24,1.61-.72c.38-.48,.57-1.16,.57-2.02s-.19-1.54-.57-2.02c-.38-.48-.92-.72-1.61-.72s-1.23,.24-1.6,.71c-.37,.48-.56,1.15-.56,2.02Z"/>
    </g>
  </g>
</svg>