<?xml version="1.0" encoding="UTF-8"?>
<svg id="Capa_2" data-name="Capa 2" xmlns="http://www.w3.org/2000/svg" viewBox="0 0 114.69 59.19">
  <defs>
    <style>
      .cls-1 {
        fill: #bea26b;
      }

      .cls-2 {
        fill: #b9a380;
      }

      .cls-3 {
        fill: #ccc1b0;
      }

      .cls-4 {
        fill: #c4b3a1;
      }
    </style>
  </defs>
  <g id="Capa_1-2" data-name="Capa 1">
    <g>
      <path class="cls-1" d="M25.21,16.43c2.51,1.32,4.49,3.23,5.92,5.72,1.44,2.49,2.16,5.4,2.16,8.74s-.72,6.25-2.16,8.74c-1.44,2.49-3.41,4.4-5.92,5.72-2.51,1.32-5.36,1.98-8.54,1.98s-6.04-.66-8.57-1.98c-2.53-1.32-4.51-3.23-5.95-5.72-1.44-2.49-2.16-5.41-2.16-8.74s.72-6.25,2.16-8.74c1.44-2.49,3.42-4.4,5.95-5.72s5.39-1.98,8.57-1.98,6.03,.66,8.54,1.98Zm-13.28,8.57c-1.28,1.36-1.93,3.33-1.93,5.89s.64,4.52,1.93,5.87c1.28,1.34,2.87,2.01,4.74,2.01s3.45-.67,4.72-2.01c1.26-1.34,1.9-3.3,1.9-5.87s-.63-4.53-1.9-5.89c-1.26-1.36-2.84-2.04-4.72-2.04s-3.46,.68-4.74,2.04Z"/>
      <path class="cls-2" d="M82.07,14.84l-8.22,32.09h-10.98l-5.81-21.51-5.87,21.51h-10.98L31.98,14.84h9.83l4.26,23.12,5.98-23.12h10.47l6.15,23.17,4.25-23.17h9.14Z"/>
      <path class="cls-4" d="M111.44,18.18c2.17,2.45,3.25,5.83,3.25,10.12v18.63h-9.83V29.45c0-2.15-.57-3.82-1.7-5.03-1.13-1.21-2.64-1.81-4.51-1.81-1.99,0-3.57,.63-4.74,1.9-1.17,1.27-1.75,3.07-1.75,5.41v17.02h-9.83V14.84h9.83v5.87c.92-1.92,2.29-3.43,4.11-4.54,1.82-1.11,3.96-1.67,6.41-1.67,3.68,0,6.6,1.23,8.77,3.68Z"/>
      <g>
        <path class="cls-3" d="M46.39,59.1v-3.06c0-.39-.1-.67-.29-.86-.19-.19-.49-.29-.9-.29-.54,0-.94,.13-1.19,.4-.25,.27-.38,.71-.38,1.33v2.48h-.78v-4.74h.64l.13,.65h.04c.16-.23,.38-.41,.67-.54s.61-.19,.97-.19c.62,0,1.09,.14,1.4,.41s.47,.72,.47,1.32v3.09h-.78Zm-.58-5.37c-.14,0-.27-.03-.4-.08-.13-.05-.26-.11-.38-.18-.12-.06-.24-.12-.36-.18-.11-.05-.23-.08-.33-.08-.16,0-.28,.04-.36,.13s-.14,.22-.19,.39h-.46c.04-.35,.15-.62,.33-.82s.41-.3,.7-.3c.14,0,.28,.03,.42,.08s.26,.11,.39,.18c.12,.07,.24,.12,.35,.18,.11,.05,.22,.08,.32,.08,.15,0,.27-.04,.34-.13,.08-.08,.14-.22,.18-.4h.47c-.04,.35-.15,.62-.33,.82-.18,.2-.41,.3-.71,.3Z"/>
        <path class="cls-3" d="M50.33,54.36v3.07c0,.39,.1,.67,.29,.86,.19,.19,.49,.29,.9,.29,.54,0,.93-.14,1.18-.41,.25-.27,.37-.71,.37-1.33v-2.49h.78v4.74h-.65l-.11-.64h-.04c-.16,.23-.38,.41-.67,.54-.28,.12-.61,.19-.97,.19-.63,0-1.1-.14-1.41-.41-.31-.27-.47-.71-.47-1.31v-3.1h.79Z"/>
        <path class="cls-3" d="M59.87,59.1v-3.06c0-.39-.1-.67-.29-.86-.19-.19-.49-.29-.9-.29-.54,0-.94,.13-1.19,.4-.25,.27-.38,.71-.38,1.33v2.48h-.78v-4.74h.64l.13,.65h.04c.16-.23,.38-.41,.67-.54s.61-.19,.97-.19c.62,0,1.09,.14,1.4,.41s.47,.72,.47,1.32v3.09h-.78Zm-.58-5.37c-.14,0-.27-.03-.4-.08-.13-.05-.26-.11-.38-.18-.12-.06-.24-.12-.36-.18-.11-.05-.23-.08-.33-.08-.16,0-.28,.04-.36,.13s-.14,.22-.19,.39h-.46c.04-.35,.15-.62,.33-.82s.41-.3,.7-.3c.14,0,.28,.03,.42,.08s.26,.11,.39,.18c.12,.07,.24,.12,.35,.18,.11,.05,.22,.08,.32,.08,.15,0,.27-.04,.34-.13,.08-.08,.14-.22,.18-.4h.47c-.04,.35-.15,.62-.33,.82-.18,.2-.41,.3-.71,.3Z"/>
        <path class="cls-3" d="M67.53,56.73c0,.77-.21,1.37-.64,1.81s-1.01,.65-1.76,.65c-.46,0-.87-.1-1.23-.3-.36-.2-.63-.48-.83-.86-.19-.37-.29-.81-.29-1.3,0-.77,.21-1.37,.63-1.8,.42-.43,1-.65,1.75-.65s1.3,.22,1.72,.66c.43,.44,.64,1.04,.64,1.79Zm-3.93,0c0,.61,.13,1.07,.4,1.38,.26,.32,.65,.48,1.16,.48s.9-.16,1.17-.47,.4-.78,.4-1.38-.13-1.06-.4-1.37c-.27-.31-.66-.47-1.18-.47s-.9,.15-1.16,.46c-.26,.31-.39,.77-.39,1.38Z"/>
        <path class="cls-3" d="M72.9,59.1l-.16-.67h-.04c-.26,.3-.51,.5-.77,.6-.26,.11-.58,.16-.96,.16-.51,0-.91-.12-1.2-.36-.29-.24-.44-.59-.44-1.03,0-.96,.83-1.46,2.5-1.5l.88-.03v-.29c0-.37-.09-.65-.26-.82-.17-.18-.45-.27-.84-.27-.43,0-.92,.12-1.46,.36l-.24-.55c.25-.13,.53-.23,.84-.3s.61-.11,.91-.11c.62,0,1.07,.13,1.37,.38,.3,.25,.45,.65,.45,1.21v3.23h-.58Zm-1.77-.51c.49,0,.87-.12,1.15-.37s.42-.59,.42-1.03v-.43l-.78,.03c-.62,.02-1.07,.11-1.35,.27-.27,.16-.41,.4-.41,.73,0,.26,.09,.46,.26,.59,.17,.14,.41,.2,.72,.2Z"/>
      </g>
      <g>
        <path class="cls-4" d="M43.54,6.3c-.7,0-1.25-.2-1.66-.59-.41-.39-.61-.93-.61-1.63s.19-1.26,.56-1.67c.38-.41,.88-.62,1.52-.62,.59,0,1.06,.18,1.41,.54,.35,.36,.52,.83,.52,1.42v.42h-3.26c.01,.51,.15,.9,.42,1.16,.27,.26,.64,.4,1.13,.4,.51,0,1.02-.1,1.51-.29v.59c-.25,.1-.49,.17-.72,.22-.23,.04-.5,.07-.82,.07Zm-.19-3.96c-.38,0-.68,.11-.91,.34-.23,.23-.36,.54-.4,.94h2.48c0-.42-.1-.73-.3-.95-.2-.22-.49-.33-.86-.33Z"/>
        <path class="cls-4" d="M50.49,5.63h-.04c-.33,.44-.83,.66-1.49,.66-.62,0-1.1-.19-1.45-.58-.34-.39-.52-.94-.52-1.66s.17-1.27,.52-1.67c.35-.4,.83-.6,1.44-.6s1.14,.21,1.48,.64h.06l-.03-.31-.02-.31V.04h.72V6.22h-.58l-.1-.58Zm-1.44,.11c.49,0,.85-.12,1.07-.37,.22-.24,.33-.64,.33-1.18v-.14c0-.62-.11-1.06-.34-1.32-.22-.26-.58-.39-1.07-.39-.42,0-.74,.15-.97,.45-.22,.3-.34,.72-.34,1.27s.11,.97,.33,1.26c.22,.28,.55,.42,.98,.42Z"/>
        <path class="cls-4" d="M53.38,.69c0-.15,.04-.26,.12-.33s.18-.11,.3-.11,.21,.04,.3,.11,.13,.18,.13,.33-.04,.26-.13,.33c-.08,.07-.18,.11-.3,.11-.12,0-.22-.04-.3-.11-.08-.07-.12-.18-.12-.33Zm.78,5.53h-.72V1.87h.72V6.22Z"/>
        <path class="cls-4" d="M58.57,2.38h-1.21v3.84h-.72V2.38h-.85v-.3l.85-.24v-.24c0-1.07,.51-1.6,1.53-1.6,.25,0,.54,.05,.88,.14l-.19,.53c-.28-.08-.51-.12-.71-.12-.27,0-.47,.08-.6,.25-.13,.17-.19,.43-.19,.8v.28h1.21v.51Zm1.62-1.69c0-.15,.04-.26,.12-.33,.08-.07,.18-.11,.3-.11s.21,.04,.3,.11,.13,.18,.13,.33-.04,.26-.13,.33c-.08,.07-.18,.11-.3,.11-.12,0-.22-.04-.3-.11-.08-.07-.12-.18-.12-.33Zm.78,5.53h-.72V1.87h.72V6.22Z"/>
        <path class="cls-4" d="M64.56,6.3c-.69,0-1.22-.19-1.59-.58-.38-.39-.56-.94-.56-1.65s.19-1.29,.57-1.69c.38-.4,.93-.6,1.63-.6,.23,0,.46,.02,.68,.07,.23,.05,.41,.1,.54,.16l-.22,.56c-.16-.06-.33-.11-.52-.14-.19-.04-.35-.06-.5-.06-.96,0-1.44,.56-1.44,1.69,0,.53,.12,.94,.35,1.23,.24,.29,.58,.43,1.04,.43,.39,0,.8-.08,1.21-.23v.58c-.32,.15-.72,.23-1.2,.23Z"/>
        <path class="cls-4" d="M67.25,.69c0-.15,.04-.26,.12-.33s.18-.11,.3-.11,.21,.04,.3,.11,.13,.18,.13,.33-.04,.26-.13,.33c-.08,.07-.18,.11-.3,.11-.12,0-.22-.04-.3-.11-.08-.07-.12-.18-.12-.33Zm.78,5.53h-.72V1.87h.72V6.22Z"/>
        <path class="cls-4" d="M73.81,4.04c0,.71-.19,1.26-.58,1.66s-.93,.6-1.61,.6c-.42,0-.8-.09-1.13-.27s-.58-.44-.76-.79c-.18-.34-.27-.74-.27-1.2,0-.71,.19-1.26,.58-1.66,.39-.4,.92-.59,1.61-.59s1.19,.2,1.58,.61c.39,.4,.59,.95,.59,1.64Zm-3.61,0c0,.56,.12,.98,.36,1.27,.24,.29,.6,.44,1.07,.44s.83-.14,1.07-.43,.37-.71,.37-1.27-.12-.97-.37-1.26-.6-.43-1.08-.43-.82,.14-1.06,.42c-.24,.28-.36,.71-.36,1.27Z"/>
      </g>
    </g>
  </g>
</svg>