<?xml version="1.0" encoding="UTF-8"?>
<!-- Generator: Adobe Illustrator 27.9.0, SVG Export Plug-In . SVG Version: 6.00 Build 0)  -->
<svg xmlns="http://www.w3.org/2000/svg" xmlns:xlink="http://www.w3.org/1999/xlink" version="1.1" id="Capa_2_00000124864904125811305290000000753356750636418742_" x="0px" y="0px" viewBox="0 0 189.2 48.9" style="enable-background:new 0 0 189.2 48.9;" xml:space="preserve">
<style type="text/css">
	.st0{enable-background:new    ;}
	.st1{fill:#FFFFFF;}
	.st2{fill:#086D6A;}
</style>
<g>
	<g class="st0">
		<path class="st1" d="M33.5,35.4h3.9c2.3,0,3.9,1.2,3.9,3.3l0,0c0,2.2-1.9,3.4-4.1,3.4h-2.5v3.6h-1.2V35.4z M37.2,41.1    c1.7,0,2.8-0.9,2.8-2.2l0,0c0-1.5-1.1-2.2-2.8-2.2h-2.6v4.6L37.2,41.1L37.2,41.1z"></path>
		<path class="st1" d="M43.3,41.5v-6.1h1.2v6c0,2.2,1.2,3.5,3.2,3.5c1.9,0,3.1-1.1,3.1-3.5v-6.1H52v6c0,3-1.8,4.6-4.3,4.6    C45,46,43.3,44.4,43.3,41.5z"></path>
		<path class="st1" d="M54.7,35.4h7.5v1h-6.4V40h5.7v1h-5.7v3.6h6.4v1h-7.6C54.7,45.7,54.7,35.4,54.7,35.4z"></path>
		<path class="st1" d="M64.6,35.4h4.5c1.3,0,2.3,0.4,3,1c0.5,0.5,0.8,1.2,0.8,2.1l0,0c0,1.7-1.2,2.7-2.8,3l3.2,4.2h-1.4l-3-4h-3v4    h-1.2L64.6,35.4L64.6,35.4z M69,40.8c1.6,0,2.7-0.8,2.7-2.1l0,0c0-1.3-0.9-2.1-2.6-2.1h-3.2v4.2H69z"></path>
		<path class="st1" d="M78,36.6h-3.5v-1.1h8.1v1.1h-3.5v9.3H78V36.6z"></path>
		<path class="st1" d="M83.7,40.7L83.7,40.7c0-2.9,2.1-5.4,5.3-5.4s5.2,2.4,5.2,5.3l0,0c0,2.9-2.1,5.3-5.3,5.3    C85.8,46,83.7,43.6,83.7,40.7z M93,40.7L93,40.7c0-2.4-1.7-4.3-4.1-4.3s-4,1.9-4,4.3l0,0c0,2.3,1.7,4.3,4.1,4.3    C91.4,45,93,43,93,40.7z"></path>
		<path class="st1" d="M101.1,35.4h1.2l3.7,5.7l3.7-5.7h1.2v10.4h-1.2v-8.4l-3.7,5.5H106l-3.7-5.5v8.4h-1.1    C101.1,45.8,101.1,35.4,101.1,35.4z"></path>
		<path class="st1" d="M113.6,40.7L113.6,40.7c0-2.9,2.1-5.4,5.3-5.4c3.2,0,5.2,2.4,5.2,5.3l0,0c0,2.9-2.1,5.3-5.3,5.3    C115.7,46,113.6,43.6,113.6,40.7z M122.9,40.7L122.9,40.7c0-2.4-1.7-4.3-4.1-4.3s-4,1.9-4,4.3l0,0c0,2.3,1.7,4.3,4.1,4.3    C121.2,45,122.9,43,122.9,40.7z"></path>
		<path class="st1" d="M126.6,35.4h1.1l6.5,8.3v-8.3h1.1v10.4h-0.9l-6.7-8.5v8.5h-1.1V35.4z"></path>
		<path class="st1" d="M141.1,36.6h-3.5v-1.1h8.1v1.1h-3.5v9.3h-1.2V36.6z"></path>
		<path class="st1" d="M150.6,36.6h-3.5v-1.1h8.1v1.1h-3.5v9.3h-1.2V36.6z"></path>
	</g>
</g>
<g>
	<g>
		<path class="st1" d="M6.2,6.1H1.9c-0.3,0-0.5,0.2-0.5,0.5v9.3c0.2,0,0.5-0.1,0.7-0.1c0.3,0,0.5,0,0.7,0.1C3,15.4,3.5,15.1,4,15.1    h2.2c2.7,0,4.8-2,4.8-4.6C11,8.1,9,6.1,6.2,6.1z M6.2,13.7H2.7V8.2c0-0.5,0.4-0.8,0.8-0.8h2.6c2,0,3.5,1.4,3.5,3.1    C9.7,12.2,8.1,13.7,6.2,13.7z"></path>
		<path class="st1" d="M12.4,18.7l5.9-12.4c0.1-0.2,0.3-0.4,0.6-0.4s0.5,0.2,0.6,0.4l5.8,12.4c0.2,0.3,0,0.7-0.4,0.8    c-0.2,0.1-0.4,0.1-0.6,0l0,0c-0.1-0.1-0.3-0.2-0.3-0.3l-1.5-3.1h-6c-0.9,0-1.8,0.5-2.1,1.2l-0.7,1.8c-0.1,0.1-0.2,0.2-0.3,0.3l0,0    c-0.2,0.1-0.4,0.1-0.6,0C12.4,19.5,12.2,19.1,12.4,18.7z M22,15l-3.2-7.1L15.6,15H22z"></path>
		<path class="st1" d="M26.9,6.6c0-0.3,0.2-0.5,0.5-0.5h5c2.6,0,4.8,1.8,4.8,4.3c0,1.9-1.3,3.4-3.1,4.1l2.5,4.3    c0.2,0.3,0.1,0.7-0.3,0.9c-0.2,0.1-0.4,0.1-0.7,0l0,0c-0.1-0.1-0.3-0.2-0.3-0.3l-2.8-4.7c-0.2,0-0.4,0-0.7,0h-2.4    c-0.6,0-1,0.5-1,1v3.5c0,0.3-0.3,0.5-0.6,0.5c-0.5,0-0.8-0.4-0.8-0.7V6.6H26.9z M32.4,13.5c1.9,0,3.4-1.3,3.4-3    c0-1.6-1.5-2.9-3.4-2.9h-3c-0.6,0-1.1,0.5-1.1,1v5L32.4,13.5L32.4,13.5z"></path>
		<path class="st1" d="M46.5,5.7c4.2,0,7.5,3.1,7.5,7c0,2.9-1.7,5.3-4.4,6.4l2,3c0.2,0.3,0.1,0.7-0.3,0.9c-0.2,0.1-0.6,0.1-0.7-0.1    l0,0c-0.1-0.1-0.1-0.1-0.2-0.2l-2.1-3.3c-0.6,0.1-1.1,0.2-1.7,0.2c-4.2,0-7.4-3-7.4-6.9C39.1,8.8,42.3,5.7,46.5,5.7z M46.5,18.2    c3.4,0,6-2.4,6-5.7c0-3.2-2.4-5.7-6-5.7c-3.4,0-5.9,2.5-5.9,5.7C40.7,15.8,43.1,18.2,46.5,18.2z"></path>
		<path class="st1" d="M55.9,6.6c0-0.4,0.3-0.7,0.7-0.7s0.7,0.3,0.7,0.7v7.8c0,2.2,1.5,3.7,4.2,3.7c2.6,0,4.2-1.4,4.2-3.7V6.6    c0-0.2,0.1-0.4,0.2-0.5c0.3-0.3,0.7-0.3,0.9,0c0.1,0.1,0.2,0.3,0.2,0.5v7.9c0,2.9-2.1,5.2-5.5,5.2c-3.4,0-5.5-2.1-5.5-5.2    L55.9,6.6L55.9,6.6z"></path>
		<path class="st1" d="M68.9,6.6c0-0.3,0.2-0.5,0.5-0.5h8c0.4,0,0.7,0.3,0.7,0.7c0,0.4-0.3,0.7-0.7,0.7h-6.3c-0.5,0-0.8,0.4-0.8,0.7    V12h6.2c0.4,0,0.7,0.3,0.7,0.7c0,0.4-0.3,0.7-0.7,0.7h-5.2c-0.6,0-0.9,0.4-0.9,0.9v3.6c0,0.3,0.3,0.6,0.6,0.6h6.5    c0.4,0,0.7,0.3,0.7,0.7s-0.3,0.7-0.7,0.7h-8c-0.3,0-0.5-0.2-0.5-0.5V6.6z"></path>
		<path class="st1" d="M94.4,5.8c2.1,0,3.6,0.7,4.9,1.7c0.2,0.1,0.2,0.3,0.2,0.5c0,0.4-0.3,0.7-0.7,0.7c-0.2,0-0.4,0-0.5-0.2    c-1-0.9-2.3-1.4-4-1.4c-3.4,0-5.9,2.5-5.9,5.7c0,3.1,2.4,5.7,5.9,5.7c1.4,0,2.4-0.3,3.1-0.6c0.5-0.2,0.7-0.7,0.7-1.1v-2.3h-3    c-0.2,0-0.4-0.1-0.5-0.2c-0.1-0.1-0.2-0.3-0.2-0.5l0,0c0-0.2,0.1-0.4,0.2-0.5c0.1-0.1,0.3-0.2,0.5-0.2H99c0.3,0,0.5,0.2,0.5,0.5    V18c0,0.3-0.1,0.5-0.3,0.6c-0.1,0-0.1,0.1-0.2,0.1c-0.5,0.3-2.1,1.1-4.9,1.2c-4.3,0-7.6-3.1-7.6-6.9C86.9,8.8,90.1,5.8,94.4,5.8z"></path>
		<path class="st1" d="M101.7,6.6c0-0.3,0.2-0.5,0.5-0.5h8c0.4,0,0.7,0.3,0.7,0.7c0,0.4-0.3,0.7-0.7,0.7h-6.3    c-0.5,0-0.8,0.4-0.8,0.7V12h6.2c0.4,0,0.7,0.3,0.7,0.7c0,0.4-0.3,0.7-0.7,0.7H104c-0.6,0-0.9,0.4-0.9,0.9v3.6    c0,0.3,0.3,0.6,0.6,0.6h6.5c0.4,0,0.7,0.3,0.7,0.7s-0.3,0.7-0.7,0.7h-8c-0.3,0-0.5-0.2-0.5-0.5V6.6z"></path>
		<path class="st1" d="M112.9,6.6c0-0.3,0.2-0.5,0.5-0.5h5c2.6,0,4.8,1.8,4.8,4.3c0,1.9-1.3,3.4-3.1,4.1l2.5,4.3    c0.2,0.3,0.1,0.7-0.3,0.9c-0.2,0.1-0.4,0.1-0.7,0l0,0c-0.1-0.1-0.3-0.2-0.3-0.3l-2.8-4.7c-0.2,0-0.4,0-0.7,0h-2.4    c-0.6,0-1,0.5-1,1v3.5c0,0.3-0.3,0.5-0.6,0.5c-0.5,0-0.8-0.4-0.8-0.7V6.6H112.9z M118.3,13.5c1.9,0,3.4-1.3,3.4-3    c0-1.6-1.5-2.9-3.4-2.9h-3c-0.6,0-1.1,0.5-1.1,1v5L118.3,13.5L118.3,13.5z"></path>
		<path class="st1" d="M128,6.1c0.1-0.1,0.2-0.1,0.4-0.1c0.1,0,0.2,0,0.3,0.1l0,0c0.1,0.1,0.2,0.2,0.2,0.3l4,11.2l4-11.2    c0-0.1,0.1-0.2,0.2-0.3l0,0c0.1-0.1,0.2-0.1,0.3-0.1s0.3,0,0.4,0.1c0.1,0.1,0.2,0.2,0.2,0.3l2.6,12.6c0.1,0.2,0,0.5-0.3,0.7    c-0.2,0.2-0.5,0.2-0.7,0h-0.1c-0.2-0.1-0.3-0.3-0.3-0.4l-1.6-9.4c0-0.1-0.1-0.2-0.2-0.2c-0.2,0-0.3,0-0.4,0.2l-3.5,9.5    c0,0.1-0.1,0.2-0.2,0.3c-0.2,0.1-0.5,0.1-0.7,0c-0.1-0.1-0.2-0.2-0.2-0.3L129,9.7c0-0.1-0.1-0.2-0.2-0.2c-0.2,0-0.3,0-0.4,0.2    l-1.9,9.3c0,0.2-0.2,0.4-0.3,0.5c-0.2,0.1-0.4,0.1-0.6,0l0,0c-0.3-0.1-0.5-0.4-0.4-0.7l2.6-12.5C127.8,6.3,127.9,6.2,128,6.1z"></path>
		<path class="st1" d="M142.2,18.7l5.9-12.4c0.1-0.2,0.4-0.4,0.6-0.4c0.3,0,0.5,0.2,0.6,0.4l5.8,12.4c0.2,0.3,0,0.7-0.4,0.8    c-0.2,0.1-0.4,0.1-0.6,0l0,0c-0.1-0.1-0.3-0.2-0.3-0.3l-1.4-3.1h-6c-0.9,0-1.8,0.5-2.1,1.2l-0.8,1.8c-0.1,0.1-0.2,0.2-0.3,0.3l0,0    c-0.2,0.1-0.4,0.1-0.6,0C142.2,19.5,142.1,19.1,142.2,18.7z M151.9,15l-3.2-7.1l-3.2,7.1H151.9z"></path>
		<path class="st1" d="M157,6.3c0-0.3,0.2-0.5,0.5-0.5h0.1c0.2,0,0.4,0.1,0.6,0.3l9.2,11.4V6.7c0-0.4,0.3-0.7,0.7-0.7    s0.7,0.3,0.7,0.7v12.6c0,0.4-0.3,0.5-0.6,0.5l0,0c-0.2,0-0.4-0.1-0.5-0.3c-0.9-1.2-6.7-8.3-8.9-10.9c-0.1-0.1-0.1-0.1-0.2-0.1    c-0.1,0-0.2,0.1-0.2,0.2v10.3c0,0.4-0.3,0.7-0.7,0.7s-0.7-0.3-0.7-0.7C157,14.7,157,10.5,157,6.3z"></path>
		<path class="st1" d="M171.6,6.4c0.3-0.4,0.7-0.4,1,0c0.1,0.1,0.2,0.3,0.2,0.4v12.5c0,0.3-0.3,0.5-0.5,0.5c-0.5,0-0.8-0.4-0.8-0.8    V6.7C171.5,6.7,171.5,6.5,171.6,6.4z"></path>
		<path class="st1" d="M174.9,18.7l5.9-12.4c0.1-0.2,0.4-0.4,0.6-0.4c0.3,0,0.5,0.2,0.6,0.4l5.8,12.4c0.2,0.3,0,0.7-0.4,0.8    c-0.2,0.1-0.4,0.1-0.6,0l0,0c-0.1-0.1-0.3-0.2-0.3-0.3l-1.4-3.1h-6c-0.9,0-1.8,0.5-2.1,1.2l-0.8,1.8c-0.1,0.1-0.2,0.2-0.3,0.3l0,0    c-0.2,0.1-0.4,0.1-0.6,0C174.9,19.5,174.8,19.1,174.9,18.7z M184.5,15l-3.1-7.1l-3.2,7.1H184.5z"></path>
	</g>
	<path class="st2" d="M2.1,17.2c0.9,0,1.7,0.7,1.7,1.7c0,0.9-0.7,1.7-1.7,1.7s-1.8-0.7-1.8-1.7C0.3,18,1.1,17.2,2.1,17.2z"></path>
</g>
</svg>
