<?xml version="1.0" encoding="UTF-8"?>
<svg id="Capa_2" data-name="Capa 2" xmlns="http://www.w3.org/2000/svg" viewBox="0 0 113.18 70.5">
  <defs>
    <style>
      .cls-1 {
        fill: #fff;
      }

      .cls-2 {
        fill: #15616d;
      }
    </style>
  </defs>
  <g id="Capa_1-2" data-name="Capa 1">
    <g>
      <g>
        <path class="cls-2" d="M9.24,45.66c-3.25,0-5.2-.05-5.25-.05l.03-1.24c.5,.01,50.02,1.1,68.38-8.53C90.66,26.27,98.32,.26,98.39,0l1.19,.34c-.08,.27-7.88,26.78-26.61,36.6-7.84,4.11-21.84,6.82-41.61,8.05-8.93,.56-17.08,.67-22.12,.67Z"/>
        <path class="cls-2" d="M7.81,54.63l-.72-1.01c.25-.18,25.15-17.87,40.61-26.36C63.16,18.76,102.8,3.5,103.19,3.34l.44,1.16c-.4,.15-39.95,15.38-55.34,23.84-15.39,8.46-40.24,26.11-40.49,26.29Z"/>
        <rect class="cls-2" x="87.9" y="4.4" width="1.24" height="16.19" transform="translate(50.81 93.55) rotate(-73.08)"/>
        <rect class="cls-2" x="79.69" y="7.91" width="1.24" height="25.46" transform="translate(29.07 85.84) rotate(-66.25)"/>
        <rect class="cls-2" x="67.91" y="12.43" width="1.24" height="32.53" transform="translate(14.51 79.7) rotate(-66.07)"/>
        <rect class="cls-2" x="53.64" y="19.73" width="1.24" height="28.46" transform="translate(-1.39 65.59) rotate(-61.65)"/>
        <rect class="cls-2" x="37.28" y="30.09" width="1.24" height="20.18" transform="translate(-15.2 55.38) rotate(-62.65)"/>
      </g>
      <path class="cls-2" d="M27.17,51.39c-2.31,0-3.69-.07-3.75-.08l.07-1.24c.26,.02,26.55,1.39,44.69-8.29,24.86-13.26,30.17-34.43,30.22-34.65l1.21,.29c-.05,.22-5.47,21.91-30.84,35.45-14.32,7.64-33.58,8.51-41.6,8.51Z"/>
      <g>
        <g>
          <path class="cls-1" d="M.82,39.33V20.22h1.24v19.11H.82Z"/>
          <path class="cls-1" d="M2.15,39.42H.72V20.13h1.43v19.3Zm-1.24-.19H1.97V20.31H.91v18.93Z"/>
        </g>
        <g>
          <path class="cls-1" d="M25.43,39.33L13.65,22.17v17.16h-1.19V20.22h1.19l11.79,17.13V20.22h1.19v19.11h-1.19Z"/>
          <path class="cls-1" d="M26.71,39.42h-1.33l-.03-.04L13.74,22.47v16.95h-1.37V20.13h1.33l.03,.04,11.62,16.89V20.13h1.37v19.3Zm-1.23-.19h1.05V20.31h-1v17.34L13.6,20.31h-1.04v18.93h1V21.87l.17,.25,11.76,17.12Z"/>
        </g>
        <g>
          <path class="cls-1" d="M51.66,29.78c0,1.38-.26,2.65-.79,3.83-.53,1.18-1.26,2.19-2.2,3.03-.94,.84-2.07,1.5-3.38,1.98-1.31,.48-2.75,.72-4.31,.72h-4.1V20.22h4.1c1.56,0,3,.24,4.31,.72,1.31,.48,2.43,1.14,3.38,1.98,.94,.84,1.68,1.85,2.2,3.03,.53,1.18,.79,2.45,.79,3.83Zm-1.24,0c0-1.34-.26-2.53-.78-3.57-.52-1.04-1.21-1.93-2.06-2.65-.86-.73-1.85-1.28-2.98-1.66-1.13-.38-2.32-.57-3.56-.57h-2.91v16.93h2.91c1.24,0,2.43-.19,3.56-.57,1.13-.38,2.12-.94,2.98-1.66,.86-.73,1.54-1.61,2.06-2.65,.52-1.04,.78-2.23,.78-3.57Z"/>
          <path class="cls-1" d="M40.98,39.42h-4.19V20.13h4.19c1.57,0,3.03,.24,4.34,.72,1.31,.48,2.46,1.15,3.41,2,.95,.85,1.7,1.88,2.23,3.06,.53,1.18,.8,2.49,.8,3.87s-.27,2.68-.8,3.87c-.53,1.18-1.28,2.21-2.23,3.06-.95,.85-2.09,1.52-3.41,2-1.31,.48-2.78,.72-4.34,.72Zm-4.01-.19h4.01c1.55,0,2.98-.24,4.28-.71,1.29-.47,2.42-1.13,3.35-1.96,.93-.83,1.66-1.84,2.18-3,.52-1.16,.78-2.44,.78-3.79s-.26-2.63-.78-3.79c-.52-1.16-1.25-2.17-2.18-3-.93-.83-2.06-1.49-3.35-1.96-1.3-.47-2.73-.71-4.28-.71h-4.01v18.93Zm4.06-.9h-3V21.22h3c1.25,0,2.46,.19,3.59,.58,1.14,.38,2.15,.95,3.01,1.68,.86,.73,1.57,1.64,2.09,2.68,.52,1.05,.79,2.27,.79,3.61s-.26,2.56-.79,3.61c-.52,1.05-1.22,1.95-2.09,2.68s-1.88,1.3-3.01,1.68c-1.14,.38-2.34,.58-3.59,.58Zm-2.82-.19h2.82c1.23,0,2.42-.19,3.53-.57,1.11-.38,2.11-.93,2.95-1.65,.84-.71,1.53-1.6,2.04-2.63,.51-1.03,.77-2.21,.77-3.53s-.26-2.51-.77-3.53c-.51-1.03-1.2-1.91-2.04-2.62-.85-.72-1.84-1.27-2.95-1.65-1.12-.38-2.3-.57-3.53-.57h-2.82v16.74Z"/>
        </g>
        <g>
          <path class="cls-1" d="M60.65,39.33V20.22h1.24v19.11h-1.24Z"/>
          <path class="cls-1" d="M61.99,39.42h-1.43V20.13h1.43v19.3Zm-1.24-.19h1.06V20.31h-1.06v18.93Z"/>
        </g>
        <g>
          <path class="cls-1" d="M86.01,21.91c-.73-.31-1.52-.54-2.35-.7-.83-.16-1.7-.24-2.6-.24-1.28,0-2.46,.21-3.52,.65-1.06,.43-1.98,1.04-2.74,1.82-.76,.78-1.36,1.73-1.78,2.83-.42,1.1-.64,2.33-.64,3.69s.2,2.54,.59,3.62c.4,1.07,.97,1.98,1.72,2.73,.75,.75,1.67,1.32,2.74,1.71,1.07,.39,2.28,.59,3.62,.59,.3,0,.65-.01,1.05-.04s.79-.07,1.19-.11,.78-.1,1.15-.17c.37-.07,.69-.15,.97-.24v-6.77h1.19v7.55c-.81,.31-1.73,.53-2.76,.67-1.03,.14-2,.21-2.93,.21-1.51,0-2.86-.23-4.07-.7-1.21-.47-2.23-1.13-3.08-1.98-.85-.85-1.5-1.87-1.95-3.07-.45-1.2-.68-2.52-.68-3.97s.24-2.83,.71-4.06c.47-1.23,1.14-2.3,2.01-3.19,.87-.89,1.91-1.58,3.12-2.08,1.22-.5,2.57-.75,4.06-.75,.96,0,1.9,.08,2.83,.24,.92,.16,1.71,.41,2.37,.73l-.23,1.06Z"/>
          <path class="cls-1" d="M80.92,39.77c-1.51,0-2.89-.24-4.1-.71-1.21-.47-2.26-1.14-3.11-2-.85-.86-1.52-1.9-1.97-3.1-.45-1.2-.68-2.55-.68-4.01s.24-2.85,.71-4.09,1.16-2.32,2.03-3.22c.87-.89,1.93-1.6,3.15-2.1,1.22-.5,2.6-.75,4.09-.75,.96,0,1.91,.08,2.84,.25,.93,.16,1.74,.41,2.4,.74l.07,.03-.27,1.24-.1-.04c-.72-.3-1.51-.54-2.33-.7-.82-.16-1.69-.24-2.58-.24-1.27,0-2.44,.21-3.48,.64-1.05,.42-1.96,1.03-2.71,1.8-.75,.77-1.34,1.71-1.76,2.79-.42,1.08-.63,2.31-.63,3.65s.2,2.53,.59,3.58c.39,1.05,.96,1.96,1.7,2.69,.74,.73,1.65,1.3,2.71,1.69,1.06,.39,2.27,.58,3.59,.58,.3,0,.65-.01,1.04-.04,.4-.03,.8-.07,1.18-.11,.41-.05,.78-.11,1.14-.17,.33-.06,.63-.13,.9-.22v-6.8h1.37v7.7l-.06,.02c-.81,.31-1.75,.54-2.78,.68-1.03,.14-2.01,.22-2.94,.22Zm.11-19.8c-1.47,0-2.82,.25-4.02,.74-1.2,.49-2.24,1.18-3.09,2.06-.86,.88-1.52,1.94-1.99,3.15-.47,1.22-.7,2.57-.7,4.03s.23,2.76,.67,3.94c.45,1.18,1.1,2.2,1.93,3.04,.84,.84,1.86,1.5,3.05,1.96,1.19,.46,2.55,.7,4.04,.7,.92,0,1.9-.07,2.91-.21,.99-.14,1.89-.36,2.68-.65v-7.39h-1v6.75l-.06,.02c-.29,.1-.62,.18-.99,.25-.36,.07-.74,.12-1.15,.17-.39,.05-.79,.09-1.19,.11-.39,.03-.75,.04-1.05,.04-1.34,0-2.57-.2-3.65-.59-1.08-.4-2.02-.98-2.77-1.73-.76-.75-1.35-1.68-1.75-2.76-.4-1.08-.6-2.3-.6-3.65s.22-2.62,.64-3.72c.43-1.11,1.03-2.07,1.8-2.86,.77-.79,1.7-1.41,2.77-1.84,1.07-.43,2.27-.65,3.55-.65,.9,0,1.78,.08,2.62,.25,.79,.16,1.55,.38,2.26,.67l.19-.88c-.64-.3-1.4-.54-2.28-.69-.92-.16-1.86-.24-2.81-.24Z"/>
        </g>
        <g>
          <path class="cls-1" d="M113.08,29.78c0,1.3-.2,2.55-.59,3.74-.4,1.2-.97,2.25-1.74,3.16-.76,.91-1.69,1.64-2.78,2.18-1.09,.55-2.34,.82-3.73,.82s-2.64-.27-3.73-.82c-1.09-.55-2.02-1.27-2.78-2.18-.76-.91-1.34-1.96-1.74-3.16-.4-1.2-.59-2.44-.59-3.74s.2-2.55,.59-3.75c.4-1.2,.98-2.25,1.74-3.16,.76-.91,1.69-1.64,2.78-2.18,1.09-.55,2.34-.82,3.73-.82s2.64,.27,3.73,.82c1.09,.55,2.02,1.27,2.78,2.18,.76,.91,1.34,1.96,1.74,3.16,.4,1.2,.59,2.44,.59,3.75Zm-1.24,0c0-1.21-.17-2.34-.52-3.4-.35-1.06-.85-1.99-1.51-2.8s-1.46-1.44-2.4-1.91c-.94-.47-2-.7-3.17-.7s-2.22,.23-3.17,.7c-.94,.47-1.74,1.1-2.4,1.91-.66,.8-1.16,1.74-1.51,2.8-.35,1.06-.52,2.2-.52,3.4s.17,2.34,.52,3.4c.35,1.06,.85,1.99,1.51,2.8s1.46,1.44,2.4,1.91c.94,.47,2,.7,3.17,.7s2.22-.23,3.17-.7c.94-.47,1.74-1.1,2.4-1.91,.66-.8,1.16-1.74,1.51-2.8,.35-1.06,.52-2.2,.52-3.4Z"/>
          <path class="cls-1" d="M104.24,39.77c-1.4,0-2.67-.28-3.77-.83-1.1-.55-2.05-1.29-2.81-2.2-.77-.91-1.36-1.99-1.76-3.19-.4-1.2-.6-2.47-.6-3.77s.2-2.57,.6-3.77c.4-1.2,.99-2.27,1.76-3.19,.77-.91,1.71-1.66,2.81-2.2,1.1-.55,2.37-.83,3.77-.83s2.67,.28,3.77,.83c1.1,.55,2.05,1.29,2.81,2.2,.77,.91,1.36,1.99,1.76,3.19,.4,1.2,.6,2.47,.6,3.77s-.2,2.57-.6,3.77c-.4,1.2-.99,2.27-1.76,3.19-.77,.91-1.71,1.66-2.81,2.2-1.1,.55-2.37,.83-3.77,.83Zm0-19.8c-1.37,0-2.62,.27-3.69,.81-1.08,.54-2,1.26-2.75,2.16-.75,.9-1.33,1.95-1.72,3.13-.39,1.18-.59,2.43-.59,3.72s.2,2.54,.59,3.72c.39,1.18,.97,2.23,1.72,3.13,.75,.89,1.68,1.62,2.75,2.16,1.07,.54,2.32,.81,3.69,.81s2.61-.27,3.69-.81c1.08-.54,2-1.26,2.75-2.16,.75-.9,1.33-1.95,1.72-3.13,.39-1.18,.59-2.43,.59-3.72s-.2-2.53-.59-3.72c-.39-1.18-.97-2.23-1.72-3.13-.75-.89-1.68-1.62-2.75-2.16-1.07-.54-2.32-.81-3.69-.81Zm0,18.71c-1.18,0-2.26-.24-3.21-.71-.95-.47-1.77-1.12-2.43-1.93-.66-.81-1.18-1.76-1.53-2.83-.35-1.07-.53-2.22-.53-3.43s.18-2.37,.53-3.43c.35-1.07,.86-2.02,1.53-2.83,.66-.81,1.48-1.46,2.43-1.93,.95-.47,2.03-.71,3.21-.71s2.26,.24,3.21,.71c.95,.47,1.77,1.12,2.43,1.93,.66,.81,1.18,1.76,1.53,2.83,.35,1.07,.53,2.22,.53,3.43s-.18,2.36-.53,3.43c-.35,1.07-.87,2.02-1.53,2.83-.67,.81-1.49,1.46-2.43,1.93-.95,.47-2.03,.71-3.21,.71Zm0-17.62c-1.15,0-2.2,.23-3.12,.69-.93,.46-1.72,1.09-2.37,1.88-.65,.79-1.15,1.72-1.5,2.77-.34,1.05-.52,2.18-.52,3.37s.17,2.33,.52,3.37c.34,1.04,.85,1.98,1.5,2.77,.65,.79,1.45,1.42,2.37,1.88,.92,.46,1.97,.69,3.12,.69s2.2-.23,3.12-.69c.92-.46,1.72-1.09,2.37-1.88,.65-.79,1.15-1.72,1.5-2.77,.34-1.05,.52-2.18,.52-3.37s-.17-2.32-.52-3.37c-.34-1.05-.85-1.98-1.5-2.77-.65-.79-1.45-1.42-2.37-1.88-.92-.46-1.98-.69-3.12-.69Z"/>
        </g>
      </g>
      <g>
        <path class="cls-1" d="M0,9.58H2.22v.35H.42v1.53h1.72v.35H.42v1.63h1.82v.35H0v-4.22Z"/>
        <path class="cls-1" d="M5.62,9.58h1.03c.35,0,.67,.05,.96,.15,.29,.1,.54,.25,.75,.43,.21,.19,.37,.41,.48,.67,.11,.26,.17,.54,.17,.85s-.06,.6-.17,.86c-.11,.26-.28,.48-.48,.67-.21,.19-.46,.33-.75,.43s-.61,.16-.96,.16h-1.03v-4.22Zm1.04,3.86c.27,0,.52-.04,.75-.11,.23-.08,.44-.19,.61-.34,.17-.15,.31-.33,.41-.55s.15-.47,.15-.75-.05-.53-.15-.75-.24-.4-.41-.55c-.18-.15-.38-.26-.61-.34-.24-.08-.49-.12-.75-.12h-.61v3.51h.61Z"/>
        <path class="cls-1" d="M12.76,13.8h-.42v-4.22h.42v4.22Z"/>
        <path class="cls-1" d="M16.34,13.8v-4.22h2.23v.35h-1.81v1.62h1.73v.35h-1.73v1.89h-.42Z"/>
        <path class="cls-1" d="M22.29,13.8h-.42v-4.22h.42v4.22Z"/>
        <path class="cls-1" d="M27.74,9.51c.19,0,.38,.02,.57,.05,.19,.03,.36,.08,.49,.14l-.07,.34c-.15-.06-.3-.1-.46-.13-.16-.03-.32-.04-.48-.04-.57,0-1,.16-1.29,.49-.3,.32-.45,.77-.45,1.34s.15,1.02,.45,1.34c.3,.32,.73,.49,1.29,.49,.16,0,.32-.01,.48-.04,.16-.03,.32-.07,.46-.13l.07,.34c-.14,.06-.3,.1-.49,.14-.19,.03-.38,.05-.57,.05-.33,0-.63-.05-.9-.16-.26-.11-.49-.26-.67-.46-.18-.2-.32-.43-.42-.69-.1-.27-.14-.56-.14-.87s.05-.6,.14-.87c.1-.27,.23-.5,.42-.69,.18-.2,.4-.35,.67-.46,.26-.11,.56-.17,.9-.17Z"/>
        <path class="cls-1" d="M32.57,13.8h-.42v-4.22h.42v4.22Z"/>
        <path class="cls-1" d="M37.91,13.88c-.32,0-.6-.06-.85-.18-.25-.12-.46-.28-.62-.48-.17-.2-.3-.43-.39-.7s-.13-.54-.13-.83,.04-.57,.13-.83c.09-.26,.22-.5,.39-.7,.17-.2,.38-.36,.62-.48,.25-.12,.53-.18,.85-.18s.6,.06,.85,.18c.25,.12,.46,.28,.62,.48,.17,.2,.3,.43,.39,.7,.09,.26,.13,.54,.13,.83s-.04,.57-.13,.83c-.09,.26-.22,.5-.39,.7-.17,.2-.38,.36-.62,.48-.25,.12-.53,.18-.85,.18Zm0-.35c.25,0,.47-.05,.66-.15,.19-.1,.36-.23,.49-.39,.13-.16,.24-.36,.31-.58,.07-.22,.1-.46,.1-.71s-.03-.48-.1-.71c-.07-.22-.17-.42-.31-.58-.14-.17-.3-.3-.49-.4-.19-.1-.42-.15-.66-.15s-.47,.05-.66,.15c-.19,.1-.36,.23-.49,.4-.13,.17-.24,.36-.31,.58-.07,.22-.11,.46-.11,.71s.04,.49,.11,.71c.07,.22,.17,.41,.31,.58,.13,.17,.3,.3,.49,.39,.19,.1,.41,.15,.66,.15Z"/>
      </g>
      <g>
        <path class="cls-1" d="M44.72,47.9c0,.2-.04,.38-.12,.55s-.2,.3-.35,.41c-.15,.11-.32,.19-.52,.25-.2,.06-.42,.09-.66,.09h-.36v1.72h-.42v-4.22h.93c.21,0,.4,.03,.59,.08,.19,.05,.35,.13,.48,.23,.14,.1,.25,.23,.32,.38,.08,.15,.12,.32,.12,.52Zm-.42,0c0-.15-.03-.28-.09-.39-.06-.11-.14-.2-.25-.26-.1-.07-.22-.12-.36-.15-.13-.03-.27-.05-.42-.05h-.49v1.79h.38c.17,0,.34-.02,.49-.06,.15-.04,.28-.1,.39-.18s.19-.18,.25-.29c.06-.12,.09-.25,.09-.4Z"/>
        <path class="cls-1" d="M50.59,46.7h.42v2.76c0,.21-.03,.41-.1,.6-.07,.19-.17,.35-.3,.49-.13,.14-.3,.25-.5,.33-.2,.08-.43,.12-.69,.12s-.49-.04-.69-.12c-.2-.08-.36-.19-.5-.33-.13-.14-.23-.3-.3-.49s-.1-.38-.1-.6v-2.76h.42v2.78c0,.35,.1,.63,.3,.84,.2,.21,.49,.32,.86,.32s.67-.11,.86-.32c.2-.21,.3-.49,.3-.84v-2.78Z"/>
        <path class="cls-1" d="M54.56,46.7h2.22v.35h-1.8v1.53h1.72v.35h-1.72v1.63h1.82v.35h-2.24v-4.22Z"/>
        <path class="cls-1" d="M62.7,47.86c0,.17-.03,.32-.09,.45-.06,.13-.14,.25-.24,.35-.1,.1-.22,.18-.36,.25-.14,.07-.28,.12-.43,.16l1.49,1.84h-.52l-1.41-1.77s-.07,0-.12,0c-.04,0-.08,0-.12,0h-.3v1.76h-.42v-4.22h1c.2,0,.4,.02,.58,.07s.35,.12,.49,.22c.14,.1,.25,.22,.33,.36,.08,.15,.12,.32,.12,.51Zm-.42,.01c0-.15-.03-.27-.09-.38-.06-.1-.15-.19-.25-.25s-.22-.11-.36-.14c-.13-.03-.27-.04-.41-.04h-.56v1.75h.34c.18,0,.35-.02,.51-.06,.16-.04,.3-.1,.43-.17,.12-.08,.22-.17,.29-.29,.07-.12,.11-.25,.11-.42Z"/>
        <path class="cls-1" d="M68.62,46.7v.35h-1.25v3.86h-.42v-3.86h-1.25v-.35h2.93Z"/>
        <path class="cls-1" d="M73.43,51c-.32,0-.6-.06-.85-.18-.25-.12-.46-.28-.62-.48-.17-.2-.3-.43-.39-.7s-.13-.54-.13-.83,.04-.57,.13-.83c.09-.26,.22-.5,.39-.7,.17-.2,.38-.36,.62-.48,.25-.12,.53-.18,.85-.18s.6,.06,.85,.18c.25,.12,.46,.28,.62,.48,.17,.2,.3,.43,.39,.7,.09,.26,.13,.54,.13,.83s-.04,.57-.13,.83c-.09,.26-.22,.5-.39,.7-.17,.2-.38,.36-.62,.48-.25,.12-.53,.18-.85,.18Zm0-.35c.25,0,.47-.05,.66-.15,.19-.1,.36-.23,.49-.39,.13-.16,.24-.36,.31-.58,.07-.22,.1-.46,.1-.71s-.03-.48-.1-.71c-.07-.22-.17-.42-.31-.58-.14-.17-.3-.3-.49-.4-.19-.1-.42-.15-.66-.15s-.47,.05-.66,.15c-.19,.1-.36,.23-.49,.4-.13,.17-.24,.36-.31,.58-.07,.22-.11,.46-.11,.71s.04,.49,.11,.71c.07,.22,.17,.41,.31,.58,.13,.17,.3,.3,.49,.39,.19,.1,.41,.15,.66,.15Z"/>
      </g>
      <path class="cls-1" d="M84.97,46.7h.42l-1.49,4.22h-.42l-1.49-4.22h.42l1.29,3.69,1.29-3.69Z"/>
      <path class="cls-1" d="M91.49,50.92h-.44l-.41-1.08h-2.01l-.41,1.08h-.44l1.65-4.22h.41l1.65,4.22Zm-1.85-3.78l-.87,2.34h1.75l-.87-2.34Z"/>
      <path class="cls-1" d="M97.22,47.86c0,.17-.03,.32-.09,.45-.06,.13-.14,.25-.24,.35-.1,.1-.22,.18-.36,.25s-.28,.12-.43,.16l1.49,1.84h-.52l-1.41-1.77s-.07,0-.12,0c-.04,0-.08,0-.12,0h-.3v1.76h-.42v-4.22h1c.2,0,.4,.02,.58,.07,.18,.05,.35,.12,.49,.22,.14,.1,.25,.22,.33,.36,.08,.15,.12,.32,.12,.51Zm-.42,.01c0-.15-.03-.27-.09-.38-.06-.1-.15-.19-.25-.25-.1-.07-.22-.11-.36-.14-.13-.03-.27-.04-.41-.04h-.56v1.75h.34c.18,0,.35-.02,.51-.06,.16-.04,.3-.1,.43-.17,.12-.08,.22-.17,.29-.29,.07-.12,.11-.25,.11-.42Z"/>
      <path class="cls-1" d="M104.12,50.92h-.44l-.41-1.08h-2.01l-.41,1.08h-.44l1.65-4.22h.41l1.65,4.22Zm-1.85-3.78l-.87,2.34h1.75l-.87-2.34Z"/>
      <path class="cls-1" d="M109.65,49.84c0,.17-.03,.33-.1,.47-.07,.14-.16,.26-.29,.36-.12,.1-.27,.18-.44,.23-.17,.06-.36,.08-.56,.08s-.4-.02-.61-.07c-.21-.04-.39-.1-.55-.18l.09-.35c.17,.08,.34,.14,.51,.18s.35,.06,.54,.06c.3,0,.54-.07,.72-.21,.18-.14,.27-.33,.27-.57,0-.13-.03-.24-.08-.34-.05-.1-.12-.18-.21-.26-.09-.08-.19-.14-.31-.21-.12-.06-.24-.12-.36-.18-.14-.07-.27-.14-.4-.21-.13-.07-.25-.16-.35-.25-.1-.09-.18-.2-.25-.32-.06-.12-.09-.26-.09-.41,0-.17,.03-.33,.1-.46,.07-.13,.16-.24,.27-.33,.11-.09,.24-.15,.4-.2s.32-.07,.49-.07c.19,0,.38,.02,.56,.06,.18,.04,.34,.09,.49,.17l-.09,.36c-.15-.07-.3-.13-.46-.17-.16-.04-.33-.06-.48-.06-.26,0-.46,.06-.61,.17-.15,.11-.23,.28-.23,.51,0,.11,.02,.2,.05,.28,.03,.08,.08,.14,.15,.2,.07,.06,.15,.12,.25,.17s.22,.12,.37,.19c.14,.07,.28,.15,.43,.23,.15,.08,.28,.17,.4,.27s.22,.22,.3,.36c.08,.14,.12,.3,.12,.49Z"/>
      <rect class="cls-2" x="39.51" y="67.4" width="31.47" height="3.1"/>
    </g>
  </g>
</svg>