<?xml version="1.0" encoding="UTF-8"?>
<svg id="Capa_2" data-name="Capa 2" xmlns="http://www.w3.org/2000/svg" viewBox="0 0 111.55 54.4">
  <defs>
    <style>
      .cls-1 {
        fill: #fff;
      }

      .cls-2 {
        fill: #ec7700;
      }
    </style>
  </defs>
  <g id="Capa_1-2" data-name="Capa 1">
    <g>
      <g>
        <path class="cls-1" d="M5.83,46.79h1.05s-2.82,7.6-2.82,7.6h-1.14S0,46.83,0,46.83H1.06s2.42,6.52,2.42,6.52l2.35-6.56Z"/>
        <path class="cls-1" d="M21.76,52.6l-3.31,.02-.6,1.69h-1.05s2.7-7.56,2.7-7.56h1.14s2.78,7.52,2.78,7.52h-1.05s-.62-1.68-.62-1.68Zm-1.68-4.63l-1.35,3.84,2.74-.02-1.39-3.82Z"/>
        <path class="cls-1" d="M34.85,46.62l.04,6.78,2.66-.02v.81s-3.64,.02-3.64,.02l-.04-7.59h.99Z"/>
        <path class="cls-1" d="M54.25,50.32c.01,2.35-1.51,3.79-4.01,3.8h-2.36s-.04-7.58-.04-7.58h2.36c2.49-.03,4.04,1.42,4.05,3.77Zm-4.01,2.99c1.98-.01,3.01-1.13,3-2.98-.01-1.85-1.05-3-3.03-2.99h-1.37s.03,5.97,.03,5.97h1.37Z"/>
        <path class="cls-1" d="M64.81,46.45h.99s.04,7.58,.04,7.58h-.99s-.04-7.58-.04-7.58Z"/>
        <path class="cls-1" d="M81.99,46.35h1.05s-2.82,7.6-2.82,7.6h-1.14s-2.91-7.57-2.91-7.57h1.06s2.42,6.52,2.42,6.52l2.35-6.56Z"/>
        <path class="cls-1" d="M93.4,46.28h.99s.04,7.58,.04,7.58h-.99s-.04-7.58-.04-7.58Z"/>
        <path class="cls-1" d="M109.88,52.08l-3.31,.02-.6,1.69h-1.05s2.7-7.56,2.7-7.56h1.14s2.78,7.52,2.78,7.52h-1.05s-.62-1.68-.62-1.68Zm-1.68-4.63l-1.35,3.84,2.74-.02-1.39-3.82Z"/>
      </g>
      <path class="cls-2" d="M77.14,40.62h-8.25V0h8.25V40.62Z"/>
      <path class="cls-2" d="M79.24,24.5c0-2.23,.42-4.33,1.26-6.29,.84-1.96,1.99-3.66,3.45-5.13,1.46-1.46,3.17-2.61,5.13-3.45,1.96-.84,4.05-1.26,6.29-1.26,1.42,0,2.79,.18,4.13,.55,1.33,.37,2.58,.87,3.74,1.51V0h8.25V24.5c0,2.24-.42,4.33-1.26,6.29-.84,1.96-1.99,3.66-3.45,5.13-1.46,1.46-3.17,2.61-5.13,3.45-1.96,.84-4.05,1.26-6.29,1.26s-4.33-.42-6.29-1.26c-1.96-.84-3.66-1.99-5.13-3.45-1.46-1.46-2.61-3.17-3.45-5.13-.84-1.96-1.26-4.05-1.26-6.29Zm8.25,0c0,1.07,.2,2.1,.61,3.06,.41,.97,.97,1.81,1.68,2.51,.71,.71,1.55,1.27,2.51,1.68,.97,.41,1.99,.61,3.06,.61s2.1-.2,3.06-.61c.97-.41,1.81-.97,2.51-1.68,.71-.71,1.27-1.55,1.68-2.51,.41-.97,.61-1.99,.61-3.06s-.2-2.1-.61-3.06c-.41-.97-.97-1.81-1.68-2.51s-1.55-1.27-2.51-1.68c-.97-.41-1.99-.61-3.06-.61s-2.1,.2-3.06,.61c-.97,.41-1.81,.97-2.51,1.68s-1.27,1.55-1.68,2.51c-.41,.97-.61,1.99-.61,3.06Z"/>
      <path class="cls-2" d="M65.49,18.92c-.84-1.96-1.99-3.66-3.45-5.13-1.46-1.46-3.17-2.61-5.13-3.45-1.96-.84-4.05-1.26-6.29-1.26-.01,0-.03,0-.04,0-.01,0-.02,0-.04,0-8.9,0-16.12,7.22-16.12,16.12s7.22,16.12,16.12,16.12c.02,0,.03,0,.05,0,0,0,.02,0,.02,0,2.23,0,4.33-.42,6.29-1.26,1.96-.84,3.66-1.99,5.13-3.45,1.46-1.46,2.61-3.17,3.45-5.13,.84-1.96,1.26-4.05,1.26-6.29s-.42-4.33-1.26-6.29Z"/>
      <path class="cls-2" d="M32.25,24.49c0-3.76-1.29-7.22-3.44-9.96-.03-.03-.05-.07-.08-.1-.16-.2-.32-.39-.48-.58-.03-.04-.07-.08-.1-.12-2.95-3.29-7.23-5.37-11.99-5.37l.02,.02s-.03,0-.04,0c-1.42,0-2.79,.18-4.13,.55-1.33,.37-2.58,.87-3.74,1.52V0H0V24.5c0,2.24,.42,4.33,1.26,6.29,.84,1.96,1.99,3.66,3.45,5.13,1.46,1.46,3.17,2.61,5.13,3.45,1.96,.84,4.05,1.26,6.29,1.26s4.33-.42,6.29-1.26c1.96-.84,3.66-1.99,5.13-3.45,.88-.88,1.64-1.85,2.29-2.9,0,0,0,0,0,0,1.54-2.47,2.43-5.39,2.43-8.51Zm-16.09,7.9c-.85,0-1.66-.14-2.43-.38-.23-.07-.45-.15-.67-.25-.97-.41-1.81-.97-2.51-1.68-.71-.71-1.27-1.55-1.68-2.51-.41-.97-.61-1.99-.61-3.06v-.32c.04-1.03,.27-2.01,.68-2.93,.41-.92,.97-1.72,1.68-2.39,.71-.67,1.54-1.2,2.48-1.61,.94-.41,1.96-.61,3.03-.61,0,0,.01,0,.02,0,0,0,.01,0,.02,0,4.35,0,7.87,3.53,7.87,7.87s-3.53,7.87-7.87,7.87Z"/>
    </g>
  </g>
</svg>