<?xml version="1.0" encoding="UTF-8"?>
<svg id="Capa_2" data-name="Capa 2" xmlns="http://www.w3.org/2000/svg" viewBox="0 0 111.3 61.66">
  <defs>
    <style>
      .cls-1 {
        fill: #fff;
      }

      .cls-2 {
        fill: #e10029;
      }
    </style>
  </defs>
  <g id="Capa_1-2" data-name="Capa 1">
    <g>
      <rect class="cls-2" width="1.97" height="18.51"/>
      <path class="cls-1" d="M8.74,.13h3.91V.75h-3.17V3.4h3.03v.62h-3.03v2.82h3.2v.62h-3.95V.13Z"/>
      <path class="cls-1" d="M15.34,.13h1.81c.62,0,1.18,.09,1.69,.27,.51,.18,.95,.43,1.32,.75,.37,.32,.65,.71,.85,1.16,.2,.45,.3,.94,.3,1.48s-.1,1.04-.3,1.48c-.2,.45-.49,.83-.85,1.15-.37,.32-.81,.57-1.32,.75-.51,.18-1.08,.27-1.69,.27h-1.81V.13Zm1.82,6.7c.47,0,.91-.07,1.32-.2,.41-.13,.78-.33,1.08-.59s.55-.58,.73-.96c.18-.38,.27-.81,.27-1.3s-.09-.92-.27-1.3c-.18-.38-.42-.69-.73-.95s-.67-.45-1.08-.59c-.41-.14-.86-.2-1.32-.2h-1.08V6.84h1.08Z"/>
      <path class="cls-1" d="M24.61,7.45h-.75V.13h.75V7.45Z"/>
      <path class="cls-1" d="M27.64,7.45V.13h3.93V.75h-3.19V3.56h3.06v.62h-3.06v3.28h-.75Z"/>
      <path class="cls-1" d="M34.81,7.45h-.75V.13h.75V7.45Z"/>
      <path class="cls-1" d="M41.12,0c.33,0,.66,.03,1,.09,.34,.06,.63,.14,.87,.24l-.13,.59c-.26-.09-.53-.17-.81-.22-.29-.05-.57-.08-.85-.08-1,0-1.76,.28-2.28,.84-.52,.56-.79,1.34-.79,2.33s.26,1.77,.79,2.33c.52,.56,1.28,.84,2.28,.84,.28,0,.56-.03,.85-.08s.56-.12,.81-.22l.13,.59c-.24,.1-.53,.18-.87,.24-.34,.06-.67,.09-1,.09-.59,0-1.11-.09-1.58-.29-.47-.19-.86-.46-1.18-.8s-.56-.74-.73-1.2c-.17-.46-.25-.96-.25-1.51s.08-1.04,.25-1.51c.17-.46,.41-.86,.73-1.2s.71-.61,1.18-.8c.47-.19,.99-.29,1.58-.29Z"/>
      <path class="cls-1" d="M46.33,7.45h-.75V.13h.75V7.45Z"/>
      <path class="cls-1" d="M52.43,7.58c-.56,0-1.05-.1-1.49-.31s-.8-.48-1.1-.83c-.3-.35-.52-.75-.68-1.21-.16-.46-.24-.94-.24-1.45s.08-.99,.24-1.45c.16-.46,.38-.86,.68-1.21,.3-.35,.66-.62,1.1-.83,.44-.21,.93-.31,1.49-.31s1.05,.1,1.49,.31c.44,.2,.8,.48,1.1,.83,.3,.35,.52,.75,.68,1.21,.16,.46,.24,.94,.24,1.45s-.08,.99-.24,1.45c-.16,.46-.39,.86-.68,1.21-.3,.35-.66,.63-1.1,.83-.44,.2-.93,.31-1.49,.31Zm0-.62c.44,0,.83-.08,1.17-.25,.34-.17,.63-.4,.87-.68,.24-.29,.42-.62,.54-1.01,.12-.38,.18-.8,.18-1.24s-.06-.84-.18-1.23c-.12-.38-.3-.72-.54-1.01-.24-.29-.53-.52-.87-.69-.34-.17-.73-.25-1.17-.25s-.83,.08-1.17,.25c-.34,.17-.63,.4-.86,.69-.23,.29-.41,.63-.54,1.01-.12,.38-.19,.79-.19,1.23s.06,.85,.19,1.24c.12,.38,.3,.72,.54,1.01,.23,.29,.52,.51,.86,.68,.34,.17,.73,.25,1.17,.25Z"/>
      <polygon class="cls-2" points="19.85 12.75 17.53 12.75 8.74 34.61 10.95 34.61 18.6 14.84 26.19 34.61 28.42 34.61 19.85 12.75"/>
      <path class="cls-1" d="M44.09,12.75c.9,0,1.75,.11,2.56,.34,.81,.22,1.51,.57,2.11,1.03,.6,.46,1.08,1.05,1.44,1.78,.36,.72,.54,1.58,.54,2.56,0,1.39-.36,2.59-1.07,3.61-.71,1.02-1.78,1.67-3.18,1.96v.06c.71,.1,1.31,.29,1.78,.57,.47,.28,.85,.63,1.15,1.06,.3,.43,.51,.92,.64,1.48,.13,.56,.22,1.17,.26,1.82,.02,.37,.04,.82,.06,1.35,.02,.53,.06,1.07,.12,1.61s.16,1.05,.29,1.53c.13,.48,.31,.85,.54,1.12h-2.3c-.12-.2-.22-.45-.29-.75-.07-.3-.12-.6-.15-.92-.03-.32-.06-.63-.08-.93-.02-.31-.04-.57-.06-.8-.04-.78-.11-1.55-.2-2.31-.09-.77-.29-1.45-.58-2.05-.3-.6-.72-1.09-1.29-1.45-.56-.37-1.33-.53-2.31-.49h-7.9v9.7h-2.08V12.75h10.01Zm-.15,10.38c.63,0,1.23-.1,1.81-.29,.57-.19,1.07-.47,1.5-.84,.43-.37,.77-.81,1.03-1.33,.25-.52,.38-1.12,.38-1.79,0-1.35-.39-2.41-1.16-3.18-.78-.78-1.96-1.16-3.55-1.16h-7.77v8.6h7.77Z"/>
      <path class="cls-1" d="M75.34,34.61l-.28-3.98h-.06c-.37,.78-.82,1.44-1.36,2-.54,.56-1.14,1.02-1.79,1.38-.65,.36-1.35,.62-2.1,.78-.75,.16-1.51,.24-2.31,.24-1.71,0-3.22-.31-4.51-.93-1.3-.62-2.37-1.45-3.23-2.49-.86-1.04-1.5-2.24-1.93-3.61-.43-1.37-.64-2.81-.64-4.32s.21-2.95,.64-4.32c.43-1.37,1.07-2.58,1.93-3.63,.86-1.05,1.93-1.89,3.23-2.51,1.3-.62,2.8-.93,4.51-.93,1.14,0,2.22,.15,3.24,.46,1.02,.31,1.93,.77,2.72,1.38,.8,.61,1.47,1.37,2.02,2.26,.55,.9,.93,1.95,1.13,3.15h-2.08c-.06-.63-.27-1.27-.63-1.91-.36-.64-.84-1.23-1.44-1.76-.6-.53-1.32-.96-2.16-1.3-.84-.34-1.78-.51-2.82-.51-1.45,0-2.69,.28-3.73,.83-1.04,.55-1.89,1.28-2.56,2.19-.66,.91-1.15,1.93-1.47,3.08-.32,1.14-.47,2.32-.47,3.52s.16,2.35,.47,3.5c.32,1.15,.81,2.18,1.47,3.09,.66,.91,1.52,1.64,2.56,2.19,1.04,.55,2.28,.83,3.73,.83,1.2,0,2.28-.2,3.23-.6,.95-.4,1.75-.95,2.4-1.67,.65-.71,1.14-1.56,1.47-2.54,.33-.98,.48-2.05,.46-3.21h-7.44v-1.78h9.27v11.11h-1.5Z"/>
      <path class="cls-1" d="M84,19.37c.43-1.37,1.07-2.58,1.93-3.63,.86-1.05,1.93-1.89,3.23-2.51,1.3-.62,2.8-.93,4.51-.93s3.21,.31,4.5,.93c1.29,.62,2.36,1.46,3.21,2.51,.86,1.05,1.5,2.26,1.93,3.63,.43,1.37,.64,2.81,.64,4.32s-.21,2.95-.64,4.32c-.43,1.37-1.07,2.57-1.93,3.61-.86,1.04-1.93,1.87-3.21,2.49-1.29,.62-2.79,.93-4.5,.93s-3.22-.31-4.51-.93c-1.3-.62-2.37-1.45-3.23-2.49-.86-1.04-1.5-2.24-1.93-3.61-.43-1.37-.64-2.81-.64-4.32s.21-2.95,.64-4.32Zm1.91,7.82c.32,1.15,.81,2.18,1.47,3.09,.66,.91,1.52,1.64,2.56,2.19,1.04,.55,2.28,.83,3.73,.83s2.69-.28,3.72-.83c1.03-.55,1.88-1.28,2.54-2.19,.66-.91,1.15-1.94,1.47-3.09,.32-1.15,.47-2.32,.47-3.5s-.16-2.38-.47-3.52c-.32-1.14-.81-2.17-1.47-3.08-.66-.91-1.51-1.64-2.54-2.19-1.03-.55-2.27-.83-3.72-.83s-2.69,.28-3.73,.83c-1.04,.55-1.89,1.28-2.56,2.19-.66,.91-1.15,1.93-1.47,3.08-.32,1.14-.47,2.32-.47,3.52s.16,2.35,.47,3.5Z"/>
      <path class="cls-1" d="M14.13,39.28l7.25,19.16,7.53-19.16h3.06v21.85h-2.08v-18.88h-.06l-7.47,18.88h-1.96l-7.19-18.88h-.06v18.88h-2.08v-21.85h3.06Z"/>
      <polygon class="cls-1" points="55.02 41.06 55.02 39.28 39.93 39.28 39.93 41.06 42.01 41.06 55.02 41.06"/>
      <polygon class="cls-1" points="39.93 61.13 55.17 61.13 55.17 59.36 42.01 59.36 39.93 59.36 39.93 61.13"/>
      <rect class="cls-1" x="39.93" y="50.73" width="2.08" height="8.63"/>
      <polygon class="cls-1" points="42.01 48.95 39.93 48.95 39.93 50.73 42.01 50.73 54.19 50.73 54.19 48.95 42.01 48.95"/>
      <path class="cls-1" d="M69.31,39.28c3.33,.08,5.83,1.02,7.51,2.8,1.68,1.79,2.52,4.49,2.52,8.13s-.84,6.34-2.52,8.13c-1.68,1.79-4.19,2.72-7.51,2.8h-7.56v-21.85h7.56Zm-1.04,20.08c1.57,0,2.92-.17,4.06-.5s2.07-.87,2.8-1.61c.73-.73,1.27-1.68,1.62-2.85,.35-1.16,.52-2.56,.52-4.19s-.17-3.03-.52-4.19c-.35-1.16-.89-2.11-1.62-2.85-.73-.73-1.67-1.27-2.8-1.61-1.13-.34-2.48-.5-4.06-.5h-4.44v18.3h4.44Z"/>
      <path class="cls-1" d="M106.81,50.21c0,1.57-.26,3.05-.76,4.43-.51,1.38-1.24,2.59-2.21,3.63-.96,1.04-2.14,1.86-3.53,2.47-1.39,.61-2.99,.91-4.78,.91s-3.39-.3-4.8-.91c-1.41-.61-2.59-1.43-3.55-2.47-.96-1.04-1.69-2.25-2.19-3.63-.5-1.38-.75-2.86-.75-4.43s.25-3.05,.75-4.43c.5-1.38,1.23-2.59,2.19-3.63s2.15-1.86,3.55-2.47c1.4-.61,3-.91,4.8-.91s3.38,.3,4.78,.91c1.39,.61,2.57,1.43,3.53,2.47s1.7,2.25,2.21,3.63c.51,1.38,.76,2.86,.76,4.43Zm-11.28,7.13c.95,0,1.79-.18,2.52-.53,.73-.35,1.34-.85,1.84-1.48,.5-.63,.87-1.38,1.11-2.26,.24-.87,.37-1.83,.37-2.87s-.12-2-.37-2.87c-.24-.87-.61-1.63-1.11-2.26-.5-.63-1.11-1.12-1.84-1.48-.73-.35-1.57-.53-2.52-.53s-1.82,.18-2.54,.53c-.72,.35-1.33,.85-1.83,1.48-.5,.63-.87,1.38-1.11,2.26-.24,.87-.37,1.83-.37,2.87s.12,2,.37,2.87c.24,.87,.61,1.63,1.11,2.26,.5,.63,1.11,1.12,1.83,1.48,.72,.35,1.56,.53,2.54,.53Z"/>
      <polygon class="cls-2" points="108.56 38.32 105.83 38.32 105.83 41.06 108.56 41.06 108.56 43.79 111.3 43.79 111.3 41.06 111.3 38.32 108.56 38.32"/>
    </g>
  </g>
</svg>