<?xml version="1.0" encoding="UTF-8"?>
<svg id="Capa_2" data-name="Capa 2" xmlns="http://www.w3.org/2000/svg" viewBox="0 0 135.52 48.51">
  <defs>
    <style>
      .cls-1 {
        fill: #fff;
      }

      .cls-2 {
        fill: #da0a2e;
      }
    </style>
  </defs>
  <g id="Capa_1-2" data-name="Capa 1">
    <g>
      <rect class="cls-2" x="34.53" y="15.43" width="4.47" height="1.88" transform="translate(73.53 32.74) rotate(180)"/>
      <path class="cls-2" d="M36.81,24.84l-10.55,23h-2.09l12.79-27.49,12.07,27.49h-2.05l-10.17-23Z"/>
      <path class="cls-1" d="M19.22,37.54c.71,1.04,1.07,2.17,1.07,3.36,0,1.03-.25,2.01-.75,2.95-.5,.93-1.23,1.75-2.17,2.44-1.95,1.39-4.22,2.09-6.81,2.09-1.28,0-2.51-.18-3.68-.54-1.17-.36-2.21-.88-3.13-1.55-1.59-1.17-2.55-2.6-2.88-4.3l1.8-1c.08,1.53,.84,2.79,2.26,3.76,.72,.56,1.57,.98,2.55,1.27,.97,.29,2.01,.44,3.09,.44,2.23,0,4.11-.57,5.64-1.71,1.48-1.09,2.21-2.37,2.21-3.84,0-.86-.27-1.67-.81-2.42-.54-.75-1.3-1.39-2.28-1.92-.92-.47-2.56-.85-4.93-1.13-.2-.03-.9-.14-2.11-.33-1.21-.19-2.25-.5-3.11-.92-1.36-.67-2.44-1.55-3.22-2.65-.78-1.1-1.17-2.29-1.17-3.57,0-1.03,.26-2,.77-2.9,.52-.9,1.25-1.71,2.19-2.4,.92-.67,1.96-1.18,3.13-1.55,1.17-.36,2.4-.54,3.68-.54,2.59,0,4.86,.7,6.81,2.09,1.62,1.23,2.56,2.65,2.84,4.26l-1.8,1c-.03-.7-.23-1.36-.61-2.01-.38-.64-.91-1.23-1.61-1.75-.75-.56-1.62-.98-2.59-1.27-.98-.29-1.99-.44-3.05-.44s-2.08,.15-3.07,.44c-.99,.29-1.85,.72-2.57,1.27-.72,.53-1.28,1.12-1.67,1.78-.39,.65-.58,1.33-.58,2.03,0,.86,.32,1.72,.96,2.57,.64,.85,1.43,1.51,2.38,1.98,.58,.28,1.23,.48,1.94,.61,.71,.13,1.62,.26,2.74,.4,.19,.03,.68,.1,1.46,.21,.78,.11,1.53,.26,2.26,.46,.72,.2,1.34,.43,1.84,.71,1.28,.72,2.28,1.61,2.99,2.65Z"/>
      <path class="cls-1" d="M56.84,25.99v22.06h-1.88V20.56l18.8,22.48V20.89h1.88v27.62l-18.8-22.52Z"/>
      <path class="cls-1" d="M104.94,20.89v1.92h-10.74v25.24h-1.92V22.82h-10.78v-1.92h23.44Z"/>
      <path class="cls-1" d="M121.77,48.34c-2.48,0-4.78-.62-6.89-1.86-2.12-1.24-3.79-2.92-5.01-5.06-1.23-2.13-1.84-4.45-1.84-6.96s.61-4.83,1.84-6.96c1.23-2.13,2.9-3.82,5.01-5.06,2.12-1.24,4.41-1.86,6.89-1.86s4.78,.62,6.89,1.86c2.12,1.24,3.79,2.92,5.01,5.06,1.23,2.13,1.84,4.45,1.84,6.96s-.61,4.83-1.84,6.96c-1.23,2.13-2.9,3.82-5.01,5.06-2.12,1.24-4.41,1.86-6.89,1.86Zm0-25.82c-2.15,0-4.12,.54-5.93,1.61-1.81,1.07-3.25,2.52-4.32,4.35-1.07,1.82-1.61,3.82-1.61,6s.54,4.17,1.61,6c1.07,1.82,2.51,3.27,4.32,4.35,1.81,1.07,3.79,1.61,5.93,1.61s4.12-.54,5.93-1.61c1.81-1.07,3.24-2.52,4.3-4.35,1.06-1.82,1.59-3.82,1.59-6s-.53-4.17-1.59-6c-1.06-1.82-2.49-3.27-4.3-4.35-1.81-1.07-3.79-1.61-5.93-1.61Z"/>
      <g>
        <g>
          <path class="cls-1" d="M.14,9.65V.25H6.22V.92H.79v3.7H5.02v.67H.79v3.69H6.22v.68H.14Z"/>
          <path class="cls-1" d="M6.36,9.78H0V.12H6.36v.94H.92v3.43H5.16v.94H.92v3.42H6.36v.95Zm-6.09-.27H6.09v-.41H.65v-3.96H4.89v-.39H.65V.78H6.09V.39H.27V9.51Z"/>
        </g>
        <g>
          <path class="cls-1" d="M11.4,9.65h-2.7V.25h2.7c.67,0,1.28,.12,1.85,.37,.57,.25,1.06,.6,1.47,1.05,.4,.43,.7,.93,.91,1.49,.21,.56,.32,1.15,.32,1.78s-.11,1.22-.32,1.78c-.21,.56-.52,1.06-.91,1.5-.41,.46-.91,.82-1.47,1.06-.57,.25-1.19,.37-1.85,.37Zm-2.05-.65h2.05c1.17,0,2.12-.41,2.85-1.23,.34-.37,.59-.79,.77-1.28,.18-.49,.27-1,.27-1.55s-.09-1.05-.27-1.54c-.18-.49-.44-.91-.77-1.28-.74-.8-1.69-1.2-2.85-1.2h-2.05V9Z"/>
          <path class="cls-1" d="M11.4,9.78h-2.84V.12h2.84c.68,0,1.32,.13,1.9,.38,.58,.25,1.1,.62,1.52,1.08,.41,.44,.72,.96,.94,1.53,.22,.57,.33,1.19,.33,1.83s-.11,1.25-.33,1.83c-.22,.57-.53,1.09-.94,1.55-.43,.48-.94,.84-1.52,1.1-.58,.25-1.22,.38-1.9,.38Zm-2.57-.27h2.57c.64,0,1.25-.12,1.8-.36,.55-.24,1.03-.58,1.43-1.03,.38-.43,.68-.92,.88-1.46,.2-.54,.31-1.12,.31-1.73s-.1-1.19-.31-1.73c-.21-.54-.5-1.03-.88-1.45-.4-.44-.88-.78-1.43-1.02-.55-.24-1.15-.36-1.8-.36h-2.57V9.51Zm2.57-.38h-2.19V.78h2.19c1.19,0,2.18,.42,2.95,1.24,.35,.38,.62,.82,.8,1.32,.18,.5,.28,1.03,.28,1.59s-.09,1.1-.28,1.6c-.18,.5-.45,.95-.8,1.32-.75,.84-1.75,1.27-2.95,1.27Zm-1.92-.27h1.92c1.12,0,2.04-.4,2.75-1.18,.33-.35,.58-.77,.75-1.24,.17-.47,.26-.98,.26-1.51s-.09-1.02-.26-1.49c-.17-.47-.42-.88-.75-1.23-.71-.77-1.64-1.16-2.75-1.16h-1.92v7.81Z"/>
        </g>
        <g>
          <path class="cls-1" d="M18.31,9.65V.25h.65V9.65h-.65Z"/>
          <path class="cls-1" d="M19.09,9.78h-.92V.12h.92V9.78Zm-.65-.27h.38V.39h-.38V9.51Z"/>
        </g>
        <g>
          <path class="cls-1" d="M21.91,9.65V.25h6.09V.92h-5.44v3.7h4.25v.68h-4.25v4.35h-.65Z"/>
          <path class="cls-1" d="M22.69,9.78h-.92V.12h6.36v.94h-5.44v3.43h4.25v.95h-4.25v4.35Zm-.65-.27h.38V5.16h4.25v-.41h-4.25V.78h5.44V.39h-5.82V9.51Z"/>
        </g>
        <g>
          <path class="cls-1" d="M30.58,9.65V.25h.65V9.65h-.65Z"/>
          <path class="cls-1" d="M31.37,9.78h-.92V.12h.92V9.78Zm-.65-.27h.38V.39h-.38V9.51Z"/>
        </g>
        <g>
          <path class="cls-1" d="M38.34,9.75c-.86,0-1.65-.22-2.39-.65-.73-.43-1.31-1.02-1.73-1.76-.42-.74-.64-1.54-.64-2.41s.21-1.67,.64-2.4c.42-.73,1-1.32,1.73-1.75,.73-.43,1.53-.65,2.39-.65,.67,0,1.3,.14,1.92,.41,.61,.27,1.15,.66,1.61,1.16l-.51,.45c-.39-.43-.84-.77-1.37-1.01-.53-.24-1.08-.36-1.66-.36-.74,0-1.43,.19-2.05,.56-.63,.37-1.13,.87-1.5,1.51-.37,.64-.56,1.33-.56,2.08s.19,1.45,.56,2.08c.37,.64,.87,1.14,1.5,1.51,.63,.37,1.31,.56,2.05,.56,.62,0,1.2-.13,1.76-.4,.55-.27,1.03-.65,1.42-1.13l.52,.4c-.45,.57-1,1.01-1.65,1.32-.65,.31-1.33,.47-2.05,.47Z"/>
          <path class="cls-1" d="M38.35,9.88c-.88,0-1.7-.22-2.45-.67-.75-.44-1.35-1.05-1.78-1.81-.43-.75-.65-1.59-.65-2.47s.22-1.72,.65-2.47c.43-.75,1.03-1.35,1.78-1.8,.75-.44,1.58-.67,2.45-.67,.68,0,1.34,.14,1.97,.42,.63,.28,1.18,.68,1.66,1.2l.09,.1-.71,.63-.09-.1c-.37-.42-.81-.75-1.32-.98-.5-.23-1.04-.35-1.6-.35-.71,0-1.38,.18-1.98,.54-.6,.36-1.09,.85-1.45,1.46-.36,.61-.54,1.29-.54,2.01s.18,1.4,.54,2.01c.36,.61,.84,1.1,1.45,1.46,.6,.36,1.27,.54,1.98,.54,.59,0,1.16-.13,1.7-.39,.53-.26,1-.63,1.38-1.09l.08-.1,.73,.57-.09,.11c-.46,.58-1.03,1.04-1.7,1.36-.66,.32-1.37,.48-2.11,.48Zm0-9.61c-.83,0-1.61,.21-2.32,.63-.71,.42-1.28,.99-1.69,1.7-.41,.71-.62,1.49-.62,2.33s.21,1.63,.62,2.34c.41,.71,.98,1.29,1.69,1.71,.71,.42,1.49,.63,2.32,.63,.7,0,1.37-.15,1.99-.46,.58-.28,1.09-.68,1.51-1.18l-.31-.24c-.39,.45-.85,.8-1.38,1.06-.57,.28-1.18,.42-1.82,.42-.76,0-1.48-.19-2.12-.58-.64-.38-1.16-.91-1.54-1.56-.38-.65-.57-1.38-.57-2.15s.19-1.5,.57-2.15c.38-.65,.9-1.18,1.54-1.56,.64-.38,1.36-.58,2.12-.58,.6,0,1.17,.13,1.71,.37,.5,.23,.94,.55,1.32,.95l.3-.27c-.43-.44-.92-.78-1.47-1.03-.59-.27-1.22-.4-1.86-.4Z"/>
        </g>
        <g>
          <path class="cls-1" d="M44.33,9.65V.25h.65V9.65h-.65Z"/>
          <path class="cls-1" d="M45.12,9.78h-.92V.12h.92V9.78Zm-.65-.27h.38V.39h-.38V9.51Z"/>
        </g>
        <g>
          <path class="cls-1" d="M52.09,9.75c-.86,0-1.65-.21-2.39-.64-.73-.43-1.31-1.01-1.73-1.75-.42-.74-.64-1.54-.64-2.41s.21-1.67,.64-2.41c.42-.74,1-1.32,1.73-1.75,.73-.43,1.53-.64,2.39-.64s1.65,.21,2.39,.64c.73,.43,1.31,1.01,1.73,1.75,.42,.74,.64,1.54,.64,2.41s-.21,1.67-.64,2.41c-.42,.74-1,1.32-1.73,1.75-.73,.43-1.53,.64-2.39,.64Zm0-8.93c-.74,0-1.43,.19-2.05,.56-.63,.37-1.13,.87-1.5,1.5-.37,.63-.56,1.32-.56,2.07s.19,1.44,.56,2.07c.37,.63,.87,1.13,1.5,1.5,.63,.37,1.31,.56,2.05,.56s1.43-.19,2.05-.56c.63-.37,1.12-.87,1.49-1.5,.37-.63,.55-1.32,.55-2.07s-.18-1.44-.55-2.07c-.37-.63-.86-1.13-1.49-1.5-.63-.37-1.31-.56-2.05-.56Z"/>
          <path class="cls-1" d="M52.09,9.88c-.88,0-1.7-.22-2.45-.66-.75-.44-1.35-1.04-1.78-1.8-.43-.75-.65-1.59-.65-2.47s.22-1.72,.65-2.47,1.03-1.36,1.78-1.8c.75-.44,1.58-.66,2.45-.66s1.7,.22,2.45,.66c.75,.44,1.35,1.04,1.78,1.8,.43,.75,.65,1.59,.65,2.47s-.22,1.72-.65,2.47c-.43,.75-1.03,1.36-1.78,1.8-.75,.44-1.58,.66-2.45,.66Zm0-9.6c-.83,0-1.61,.21-2.32,.62-.71,.41-1.28,.99-1.69,1.7-.41,.71-.62,1.5-.62,2.34s.21,1.63,.62,2.34c.41,.71,.98,1.29,1.69,1.7,.71,.41,1.49,.62,2.32,.62s1.61-.21,2.32-.62c.71-.42,1.28-.99,1.69-1.7s.62-1.5,.62-2.34-.21-1.63-.62-2.34c-.41-.71-.98-1.29-1.69-1.7-.71-.41-1.49-.62-2.32-.62Zm0,8.93c-.76,0-1.48-.19-2.12-.58-.64-.38-1.16-.9-1.54-1.55-.38-.65-.58-1.37-.58-2.14s.19-1.49,.58-2.14c.38-.65,.9-1.17,1.54-1.55,.64-.38,1.36-.58,2.12-.58s1.48,.19,2.12,.58c.64,.38,1.16,.9,1.54,1.55,.38,.65,.57,1.37,.57,2.14s-.19,1.49-.57,2.14c-.38,.65-.89,1.17-1.54,1.55-.65,.38-1.36,.58-2.12,.58Zm0-8.27c-.71,0-1.38,.18-1.98,.54-.6,.36-1.09,.85-1.45,1.46-.36,.61-.54,1.28-.54,2.01s.18,1.4,.54,2.01c.36,.61,.85,1.1,1.45,1.46,.6,.36,1.27,.54,1.98,.54s1.38-.18,1.98-.54c.6-.36,1.09-.85,1.44-1.46,.35-.61,.53-1.28,.53-2.01s-.18-1.4-.53-2.01c-.35-.61-.84-1.1-1.44-1.46-.6-.36-1.27-.54-1.98-.54Z"/>
        </g>
      </g>
    </g>
  </g>
</svg>