<?xml version="1.0" encoding="UTF-8"?>
<!-- Generator: Adobe Illustrator 27.7.0, SVG Export Plug-In . SVG Version: 6.00 Build 0)  -->
<svg xmlns="http://www.w3.org/2000/svg" xmlns:xlink="http://www.w3.org/1999/xlink" version="1.1" id="Capa_2_00000039853236528691209930000012360590062610281644_" x="0px" y="0px" viewBox="0 0 111.6 54.4" style="enable-background:new 0 0 111.6 54.4;" xml:space="preserve">
<style type="text/css">
	.st0{fill:#0367A6;}
	.st1{fill:#FFFFFF;}
</style>
<g>
	<path class="st0" d="M4.1,7l8.6,14.9L21.3,7h3.1v39.6H21V14.3l-8.3,14.3L4.4,14.3v19.2H0.9V7H4.1z"></path>
</g>
<g>
	<path class="st0" d="M52.4,10.6c2.7,2.7,4,5.9,4,9.6c0,3.8-1.3,7-4,9.6c-2.7,2.7-5.9,4-9.6,4c-3.8,0-7-1.3-9.6-4   c-2.7-2.7-4-5.9-4-9.6c0-3.8,1.3-7,4-9.6c2.7-2.7,5.9-4,9.6-4C46.5,6.6,49.7,7.9,52.4,10.6z M42.8,10.1c-2.8,0-5.2,1-7.2,3   c-2,2-3,4.4-3,7.2c0,2.8,1,5.2,3,7.2c2,2,4.4,3,7.2,3c2.8,0,5.2-1,7.2-3c2-2,3-4.4,3-7.2c0-2.8-1-5.2-3-7.2   C48,11.1,45.6,10.1,42.8,10.1z"></path>
	<path class="st0" d="M84.4,10.6c2.7,2.7,4,5.9,4,9.6c0,3.8-1.3,7-4,9.6s-5.9,4-9.6,4c-3.8,0-7-1.3-9.6-4c-2.7-2.7-4-5.9-4-9.6   c0-3.8,1.3-7,4-9.6c2.7-2.7,5.9-4,9.6-4C78.5,6.6,81.7,7.9,84.4,10.6z M74.8,10.1c-2.8,0-5.2,1-7.2,3c-2,2-3,4.4-3,7.2   c0,2.8,1,5.2,3,7.2c2,2,4.4,3,7.2,3c2.8,0,5.2-1,7.2-3c2-2,3-4.4,3-7.2c0-2.8-1-5.2-3-7.2C79.9,11.1,77.6,10.1,74.8,10.1z"></path>
	<path class="st0" d="M96.8,7c4.3,0,7.7,1.2,10.1,3.7c2.6,2.7,4,5.9,4,9.6c0,3.8-1.3,7-4,9.6c-2.4,2.4-5.8,3.6-10.1,3.7h-2.5V7H96.8   z M97.7,10.5V30c2.7,0,5-0.9,6.7-2.6c2-2,3-4.4,3-7.2c0-2.8-1-5.2-3-7.2C102.6,11.3,100.4,10.5,97.7,10.5z"></path>
</g>
<g>
	<path class="st1" d="M35.2,45.8h1.1v0.5h-1.8v-3.4h0.7V45.8z"></path>
	<path class="st1" d="M43.8,45.7h-1.4l-0.2,0.7h-0.7l1.2-3.4h0.8l1.2,3.4H44L43.8,45.7z M43.6,45.1l-0.5-1.4l-0.5,1.4H43.6z"></path>
	<path class="st1" d="M58.3,42.9v0.6h-1.4v0.9H58v0.5h-1.1v1.4h-0.7v-3.4H58.3z"></path>
	<path class="st1" d="M64.4,45.8h1.1v0.5h-1.8v-3.4h0.7V45.8z"></path>
	<path class="st1" d="M71.6,46.1c-0.3-0.2-0.5-0.4-0.6-0.6c-0.2-0.3-0.2-0.6-0.2-0.9c0-0.3,0.1-0.6,0.2-0.9c0.2-0.3,0.4-0.5,0.6-0.6   c0.3-0.2,0.6-0.2,0.9-0.2c0.3,0,0.6,0.1,0.9,0.2c0.3,0.2,0.5,0.4,0.6,0.6c0.2,0.3,0.2,0.6,0.2,0.9c0,0.3-0.1,0.6-0.2,0.9   c-0.2,0.3-0.4,0.5-0.6,0.6c-0.3,0.2-0.6,0.2-0.9,0.2C72.2,46.4,71.9,46.3,71.6,46.1z M73,45.6c0.2-0.1,0.3-0.2,0.4-0.4   c0.1-0.2,0.1-0.4,0.1-0.6c0-0.2,0-0.4-0.1-0.6c-0.1-0.2-0.2-0.3-0.4-0.4c-0.2-0.1-0.3-0.1-0.5-0.1c-0.2,0-0.4,0-0.5,0.1   c-0.2,0.1-0.3,0.2-0.4,0.4c-0.1,0.2-0.1,0.4-0.1,0.6c0,0.2,0,0.4,0.1,0.6c0.1,0.2,0.2,0.3,0.4,0.4c0.2,0.1,0.3,0.1,0.5,0.1   C72.7,45.8,72.9,45.7,73,45.6z"></path>
	<path class="st1" d="M81.4,46.3L80.7,45h-0.3v1.3h-0.7v-3.4h1.3c0.3,0,0.5,0,0.7,0.1c0.2,0.1,0.3,0.2,0.4,0.4   c0.1,0.2,0.1,0.3,0.1,0.5c0,0.2-0.1,0.4-0.2,0.6c-0.1,0.2-0.3,0.3-0.6,0.4l0.8,1.4H81.4z M80.3,44.5h0.6c0.2,0,0.3,0,0.4-0.1   c0.1-0.1,0.1-0.2,0.1-0.4c0-0.2,0-0.3-0.1-0.4c-0.1-0.1-0.2-0.1-0.4-0.1h-0.6V44.5z"></path>
	<path class="st1" d="M88.4,42.9v3.4h-0.7v-3.4H88.4z"></path>
	<path class="st1" d="M96.1,43.1c0.3,0.1,0.5,0.3,0.6,0.6c0.1,0.3,0.2,0.6,0.2,0.9c0,0.3-0.1,0.6-0.2,0.9c-0.1,0.3-0.4,0.5-0.6,0.6   c-0.3,0.1-0.6,0.2-1,0.2H94v-3.4h1.2C95.6,42.9,95.9,43,96.1,43.1z M96,45.5c0.2-0.2,0.3-0.5,0.3-0.8c0-0.4-0.1-0.6-0.3-0.8   c-0.2-0.2-0.5-0.3-0.8-0.3h-0.5v2.3h0.5C95.5,45.8,95.8,45.7,96,45.5z"></path>
	<path class="st1" d="M104.5,45.7h-1.4l-0.2,0.7h-0.7l1.2-3.4h0.8l1.2,3.4h-0.7L104.5,45.7z M104.3,45.1l-0.5-1.4l-0.5,1.4H104.3z"></path>
</g>
</svg>
