<?xml version="1.0" encoding="UTF-8"?>
<!-- Generator: Adobe Illustrator 27.7.0, SVG Export Plug-In . SVG Version: 6.00 Build 0)  -->
<svg xmlns="http://www.w3.org/2000/svg" xmlns:xlink="http://www.w3.org/1999/xlink" version="1.1" id="Capa_2_00000124864904125811305290000000753356750636418742_" x="0px" y="0px" viewBox="0 0 202.4 64.8" style="enable-background:new 0 0 202.4 64.8;" xml:space="preserve">
<style type="text/css">
	.st0{fill:#FFFFFF;}
	.st1{fill:#EA0029;}
</style>
<g>
	<g>
		<g>
			<g>
				<path class="st0" d="M34.6,17.7v14.6h6.7v3.5H30.1V17.7H34.6z"></path>
				<path class="st0" d="M48.2,35.9h-4.5V17.7h4.5V35.9z"></path>
				<path class="st0" d="M61.2,35.9h-5l-6.1-18.2h4.7l4,13.8l4-13.8h4.7L61.2,35.9z"></path>
				<path class="st0" d="M73.8,35.9h-4.5V17.7h4.5V35.9z"></path>
				<path class="st0" d="M89.3,35.9l-7.5-10.8v10.8h-4.3V17.7h4.3l7.5,10.8V17.7h4.3v18.2H89.3z"></path>
				<path class="st0" d="M106.3,17.4c2.4,0,4.4,0.4,6,1.1l-0.6,3.4c-1.6-0.6-3.2-0.9-4.9-0.9c-0.9,0-1.7,0.1-2.5,0.4      c-0.7,0.2-1.4,0.6-1.9,1.1c-0.5,0.5-0.9,1.1-1.2,1.9s-0.4,1.7-0.4,2.8c0,1.9,0.5,3.3,1.5,4.3s2.5,1.4,4.4,1.4      c0.4,0,0.8,0,1.2-0.1c0.4-0.1,0.7-0.1,1-0.2v-5.1h4v7.5c-0.8,0.4-1.8,0.7-3,0.9c-1.2,0.2-2.5,0.4-3.8,0.4      c-1.5,0-2.9-0.2-4.1-0.7c-1.2-0.4-2.2-1.1-3.1-1.9c-0.8-0.8-1.5-1.8-1.9-2.9c-0.4-1.1-0.7-2.4-0.7-3.7c0-1.5,0.2-2.8,0.7-4      c0.4-1.2,1.1-2.2,2-3.1c0.9-0.8,1.9-1.5,3.1-2C103.3,17.6,104.7,17.4,106.3,17.4z"></path>
				<path class="st0" d="M134.4,17.7v3.5h-4.9v14.6H125V21.3h-4.9v-3.5H134.4z"></path>
				<path class="st0" d="M153.9,26.8c0,1.3-0.2,2.5-0.6,3.6c-0.4,1.1-1,2.1-1.8,3c-0.8,0.9-1.8,1.5-2.9,2c-1.1,0.5-2.5,0.8-3.9,0.8      s-2.8-0.3-3.9-0.8c-1.2-0.5-2.1-1.2-2.9-2c-0.8-0.9-1.4-1.9-1.8-3c-0.4-1.1-0.6-2.4-0.6-3.6c0-1.3,0.2-2.5,0.6-3.6      c0.4-1.1,1-2.1,1.8-3c0.8-0.9,1.8-1.5,2.9-2c1.2-0.5,2.5-0.8,3.9-0.8s2.8,0.3,3.9,0.8s2.1,1.2,2.9,2c0.8,0.9,1.4,1.9,1.8,3      C153.7,24.3,153.9,25.5,153.9,26.8z M144.6,32.7c0.8,0,1.5-0.1,2.1-0.4c0.6-0.3,1.1-0.7,1.5-1.2c0.4-0.5,0.7-1.1,0.9-1.9      c0.2-0.7,0.3-1.5,0.3-2.4c0-0.9-0.1-1.6-0.3-2.4c-0.2-0.7-0.5-1.3-0.9-1.9c-0.4-0.5-0.9-0.9-1.5-1.2c-0.6-0.3-1.3-0.4-2.1-0.4      c-0.8,0-1.5,0.1-2.1,0.4c-0.6,0.3-1.1,0.7-1.5,1.2c-0.4,0.5-0.7,1.1-0.9,1.9c-0.2,0.7-0.3,1.5-0.3,2.4c0,0.9,0.1,1.6,0.3,2.4      c0.2,0.7,0.5,1.3,0.9,1.9c0.4,0.5,0.9,0.9,1.5,1.2C143.1,32.5,143.8,32.7,144.6,32.7z"></path>
				<path class="st0" d="M174.1,30.3l2.8-12.6h4.6l-5,18.2h-4.6l-3.7-13.7l-3.7,13.7H160l-5-18.2h4.6l2.8,12.6l3.4-12.6h5      L174.1,30.3z"></path>
				<path class="st0" d="M195.5,35.9L188,25.1v10.8h-4.3V17.7h4.3l7.5,10.8V17.7h4.3v18.2H195.5z"></path>
			</g>
		</g>
	</g>
	<g>
		<g>
			<g>
				<path class="st0" d="M192,57.4v-9.8h0.7c0.3,0,0.6,0.3,0.6,0.6V49c0.4-0.5,0.9-0.9,1.4-1.2c0.6-0.3,1.2-0.4,1.9-0.4      c0.6,0,1.1,0.1,1.6,0.4s0.8,0.6,1.1,1s0.5,0.9,0.6,1.5c0.1,0.6,0.2,1.2,0.2,1.8v5.2h-1.4v-5.1c0-0.5,0-1.1-0.1-1.5      c-0.1-0.5-0.2-0.9-0.4-1.2c-0.2-0.3-0.5-0.6-0.8-0.8c-0.3-0.2-0.7-0.3-1.2-0.3c-0.6,0-1.1,0.2-1.6,0.5c-0.5,0.3-0.9,0.7-1.2,1.1      v7.3H192z"></path>
				<path class="st0" d="M185.9,48.4c-0.5,0-0.9,0.1-1.2,0.3c-0.4,0.2-0.7,0.4-0.9,0.7c-0.2,0.3-0.4,0.7-0.6,1      c-0.1,0.4-0.2,0.8-0.2,1.2h5.3c0.1-0.9-0.1-1.7-0.5-2.3C187.5,48.7,186.8,48.4,185.9,48.4 M186,47.4c0.7,0,1.2,0.1,1.7,0.3      c0.5,0.2,0.9,0.5,1.2,0.9c0.3,0.4,0.5,0.8,0.7,1.3c0.1,0.5,0.2,1,0.2,1.6c0,0.4,0,0.9-0.1,1.4H183c0,1.2,0.3,2.1,0.9,2.7      c0.6,0.6,1.4,0.9,2.6,0.9c0.5,0,1-0.1,1.5-0.2c0.3-0.1,0.5-0.1,0.7-0.2c0.3-0.1,0.7,0.1,0.8,0.4l0.1,0.4      c-0.4,0.2-0.9,0.4-1.5,0.5c-0.6,0.1-1.2,0.2-1.8,0.2c-0.8,0-1.5-0.1-2.1-0.4c-0.6-0.3-1.1-0.6-1.5-1.1c-0.4-0.5-0.7-1-0.9-1.6      s-0.3-1.3-0.3-2c0-0.7,0.1-1.4,0.3-2c0.2-0.6,0.5-1.2,0.9-1.6s0.8-0.8,1.4-1.1C184.7,47.5,185.3,47.4,186,47.4"></path>
				<path class="st0" d="M175.4,48.5c-0.5,0-1,0.1-1.5,0.3c-0.5,0.2-0.8,0.5-1.2,0.8v6.6c0.5,0.2,1.2,0.3,2,0.3      c1.2,0,2.2-0.4,2.8-1.1c0.6-0.7,0.9-1.7,0.9-3c0-0.6-0.1-1.1-0.2-1.5c-0.1-0.5-0.3-0.9-0.6-1.3c-0.3-0.4-0.6-0.6-1-0.8      C176.4,48.6,175.9,48.5,175.4,48.5 M171.4,42.8h0.8c0.3,0,0.6,0.3,0.6,0.6v5.1c0.3-0.3,0.7-0.6,1.2-0.8c0.5-0.2,1.1-0.4,1.8-0.4      c0.6,0,1.2,0.1,1.7,0.4c0.5,0.3,1,0.6,1.3,1c0.4,0.4,0.6,1,0.8,1.6c0.2,0.6,0.3,1.3,0.3,2c0,0.8-0.1,1.5-0.3,2.1      c-0.2,0.6-0.6,1.2-1,1.6c-0.4,0.5-1,0.8-1.6,1.1c-0.6,0.3-1.4,0.4-2.2,0.4c-1.2,0-2.4-0.2-3.4-0.6V42.8z"></path>
				<path class="st0" d="M165.5,48.4c-0.5,0-0.9,0.1-1.2,0.3c-0.4,0.2-0.7,0.4-0.9,0.7c-0.2,0.3-0.4,0.7-0.6,1      c-0.1,0.4-0.2,0.8-0.2,1.2h5.3c0.1-0.9-0.1-1.7-0.5-2.3C167,48.7,166.4,48.4,165.5,48.4 M165.5,47.4c0.7,0,1.2,0.1,1.7,0.3      c0.5,0.2,0.9,0.5,1.2,0.9c0.3,0.4,0.5,0.8,0.7,1.3c0.1,0.5,0.2,1,0.2,1.6c0,0.4,0,0.9-0.1,1.4h-6.6c0,1.2,0.3,2.1,0.9,2.7      c0.6,0.6,1.4,0.9,2.6,0.9c0.5,0,1-0.1,1.5-0.2c0.3-0.1,0.5-0.1,0.7-0.2c0.3-0.1,0.7,0.1,0.8,0.4l0.1,0.4      c-0.4,0.2-0.9,0.4-1.5,0.5c-0.6,0.1-1.2,0.2-1.8,0.2c-0.8,0-1.5-0.1-2.1-0.4c-0.6-0.3-1.1-0.6-1.5-1.1c-0.4-0.5-0.7-1-0.9-1.6      s-0.3-1.3-0.3-2c0-0.7,0.1-1.4,0.3-2c0.2-0.6,0.5-1.2,0.9-1.6s0.8-0.8,1.4-1.1C164.2,47.5,164.8,47.4,165.5,47.4"></path>
				<path class="st0" d="M158.2,55c0,0.4,0.1,0.7,0.2,1c0.2,0.3,0.5,0.4,0.9,0.4c0.2,0,0.3,0,0.5,0c0.2,0,0.3,0,0.5-0.1l0.1,1      c-0.4,0.1-0.8,0.2-1.4,0.2c-0.8,0-1.3-0.2-1.7-0.7c-0.4-0.5-0.5-1-0.5-1.7V42.8h0.8c0.3,0,0.6,0.3,0.6,0.6V55z"></path>
			</g>
			<g>
				<path class="st1" d="M144,51.9v-3.1v-6c-3.8,0.6-6.6,3.8-6.6,7.7v7h7.9c3.6,0,6.7-2.4,7.7-5.7H144z"></path>
				<rect x="147.1" y="42.8" class="st1" width="6.2" height="6.1"></rect>
			</g>
		</g>
		<g>
			<g>
				<g>
					<path class="st0" d="M117.8,53.8c0,0.6-0.1,1.2-0.4,1.7c-0.3,0.5-0.7,0.9-1.2,1.2c-0.5,0.3-1.2,0.6-1.9,0.8       c-0.7,0.2-1.5,0.3-2.4,0.3h-4.3v-14h5c0.8,0,1.4,0.1,2,0.3c0.6,0.2,1.1,0.4,1.5,0.7s0.7,0.6,0.9,1c0.2,0.4,0.3,0.8,0.3,1.3       c0,0.9-0.2,1.6-0.7,2.1c-0.5,0.6-1.2,1-2.1,1.3c0.5,0.1,0.9,0.2,1.3,0.4c0.4,0.2,0.8,0.4,1.1,0.7c0.3,0.3,0.5,0.6,0.7,1       C117.7,52.9,117.8,53.3,117.8,53.8z M111.9,49.3c0.6,0,1.1-0.1,1.5-0.4c0.4-0.3,0.6-0.7,0.6-1.2c0-0.5-0.2-0.8-0.5-1.1       c-0.3-0.2-0.8-0.4-1.4-0.4h-1.2v3H111.9z M114.4,53.5c0-0.5-0.2-0.9-0.6-1.2c-0.4-0.3-1-0.4-1.8-0.4h-1.1v3.3h1.2       c0.8,0,1.4-0.2,1.8-0.5C114.2,54.4,114.4,54,114.4,53.5z"></path>
					<path class="st0" d="M126.1,52.7v5.1h-3.4v-5.1l-4.6-8.9h3.7l2.6,5.9l2.6-5.9h3.7L126.1,52.7z"></path>
				</g>
			</g>
		</g>
	</g>
	<g>
		<g>
			<path class="st0" d="M21.3,17l-4.1,1.5v-2.3v-5.4V9.4L16,9l-1.2-0.4l-1.2-0.5L9.4,6.6L8.2,6.2L7,5.7L5.8,5.3v1.3v6.2l-4.1,1.5     l-1.2,0.5V16v19.9H7V13.6l1.2-0.4v22.7h6.6V20.7l1.2-0.4v15.6h6.6v-18v-1.3L21.3,17z M5.8,34.7H1.6V15.5l4.1-1.5V34.7z      M14.8,19.4l-1.2,0.5v1.3v13.5H9.4V12.7v-1.3l-1.2,0.5L7,12.3V7l1.2,0.4l1.2,0.5l4.1,1.5l1.2,0.5l1.2,0.4v6.3V19L14.8,19.4z      M21.3,34.7h-4.1V19.8l4.1-1.5V34.7z"></path>
		</g>
	</g>
</g>
</svg>
